%TF.GenerationSoftware,Altium Limited,Altium Designer,24.6.1 (21)*%
G04 Layer_Color=8421504*
%FSLAX45Y45*%
%MOMM*%
%TF.SameCoordinates,189501FC-2F9B-42A0-9727-E85274D5E768*%
%TF.FilePolarity,Positive*%
%TF.FileFunction,Paste,Top*%
%TF.Part,Single*%
G01*
G75*
%TA.AperFunction,SMDPad,CuDef*%
G04:AMPARAMS|DCode=10|XSize=0.91mm|YSize=0.83mm|CornerRadius=0.21995mm|HoleSize=0mm|Usage=FLASHONLY|Rotation=270.000|XOffset=0mm|YOffset=0mm|HoleType=Round|Shape=RoundedRectangle|*
%AMROUNDEDRECTD10*
21,1,0.91000,0.39010,0,0,270.0*
21,1,0.47010,0.83000,0,0,270.0*
1,1,0.43990,-0.19505,-0.23505*
1,1,0.43990,-0.19505,0.23505*
1,1,0.43990,0.19505,0.23505*
1,1,0.43990,0.19505,-0.23505*
%
%ADD10ROUNDEDRECTD10*%
%ADD11R,0.60000X0.70000*%
G04:AMPARAMS|DCode=12|XSize=1.21mm|YSize=0.59mm|CornerRadius=0.07375mm|HoleSize=0mm|Usage=FLASHONLY|Rotation=0.000|XOffset=0mm|YOffset=0mm|HoleType=Round|Shape=RoundedRectangle|*
%AMROUNDEDRECTD12*
21,1,1.21000,0.44250,0,0,0.0*
21,1,1.06250,0.59000,0,0,0.0*
1,1,0.14750,0.53125,-0.22125*
1,1,0.14750,-0.53125,-0.22125*
1,1,0.14750,-0.53125,0.22125*
1,1,0.14750,0.53125,0.22125*
%
%ADD12ROUNDEDRECTD12*%
%ADD13O,0.55000X0.80000*%
%ADD14R,0.55000X0.80000*%
%TA.AperFunction,BGAPad,CuDef*%
%ADD15R,1.20000X1.20000*%
%TA.AperFunction,ConnectorPad*%
%ADD17R,0.80000X0.40000*%
%ADD18R,0.40000X0.80000*%
%TA.AperFunction,SMDPad,CuDef*%
%ADD19R,0.80000X0.80000*%
%ADD20R,0.70000X0.60000*%
%ADD21R,0.54000X0.30000*%
%ADD22R,0.30000X0.54000*%
%ADD23R,0.60000X0.64000*%
%ADD24R,0.64000X0.60000*%
%TA.AperFunction,SMDPad,SMDef*%
%ADD27C,1.00000*%
G36*
X819999Y4444999D02*
X699999D01*
Y4504999D01*
X760000Y4564999D01*
X819999Y4565000D01*
Y4444999D01*
D02*
G37*
G36*
X1607500Y3077500D02*
X1577500D01*
Y3102500D01*
X1607500D01*
Y3077500D01*
D02*
G37*
G36*
X1677500Y3037500D02*
X1647500D01*
Y3097500D01*
X1677500D01*
Y3037500D01*
D02*
G37*
G36*
X1607500Y3032500D02*
X1577500D01*
Y3057500D01*
X1607500D01*
Y3032500D01*
D02*
G37*
D10*
X1275000Y1387500D02*
D03*
Y1537500D02*
D03*
X67500Y4855000D02*
D03*
Y5005000D02*
D03*
D11*
X1405000Y2662500D02*
D03*
Y2752500D02*
D03*
X1095000Y2585000D02*
D03*
Y2675000D02*
D03*
Y2422500D02*
D03*
Y2332500D02*
D03*
X1507500Y2477500D02*
D03*
Y2387500D02*
D03*
X1770000Y380000D02*
D03*
Y470000D02*
D03*
X887500Y1085000D02*
D03*
Y995000D02*
D03*
X772500Y1085000D02*
D03*
Y995000D02*
D03*
X945000Y1497500D02*
D03*
Y1587500D02*
D03*
X830000Y1497500D02*
D03*
Y1587500D02*
D03*
D12*
X584000Y2525000D02*
D03*
Y2430000D02*
D03*
Y2335000D02*
D03*
X835000D02*
D03*
Y2430000D02*
D03*
Y2525000D02*
D03*
D13*
X1487500Y1930000D02*
D03*
X1297500D02*
D03*
X1487500Y1690000D02*
D03*
X1392500D02*
D03*
D14*
X1297500D02*
D03*
D15*
X924999Y4339999D02*
D03*
X760000D02*
D03*
X1089999D02*
D03*
Y4505000D02*
D03*
X924999Y4504999D02*
D03*
X759999Y4174999D02*
D03*
X924999D02*
D03*
X1089999D02*
D03*
D17*
X1625000Y4339999D02*
D03*
X224998Y3744999D02*
D03*
X224998Y4935001D02*
D03*
Y4850000D02*
D03*
Y4765000D02*
D03*
X224998Y4680000D02*
D03*
Y4595000D02*
D03*
Y4510000D02*
D03*
Y4425000D02*
D03*
Y4339999D02*
D03*
Y4254999D02*
D03*
Y4170000D02*
D03*
Y4085000D02*
D03*
Y4000000D02*
D03*
Y3915000D02*
D03*
Y3829999D02*
D03*
X1625001Y3744999D02*
D03*
X1625001Y4935001D02*
D03*
Y4850000D02*
D03*
Y4765000D02*
D03*
X1625001Y4680000D02*
D03*
Y4595000D02*
D03*
Y4510000D02*
D03*
Y4425000D02*
D03*
Y4254999D02*
D03*
Y4170000D02*
D03*
Y4085000D02*
D03*
Y4000000D02*
D03*
Y3915000D02*
D03*
Y3829999D02*
D03*
D18*
X924999Y5040000D02*
D03*
Y3639999D02*
D03*
X1520000Y5040001D02*
D03*
X329998Y5040001D02*
D03*
X414998D02*
D03*
X499998D02*
D03*
X584999Y5040001D02*
D03*
X669999D02*
D03*
X754999D02*
D03*
X839999D02*
D03*
X1010000D02*
D03*
X1094999D02*
D03*
X1179999D02*
D03*
X1264999D02*
D03*
X1349999D02*
D03*
X1435000D02*
D03*
X1520000Y3639999D02*
D03*
X329998Y3639999D02*
D03*
X414999D02*
D03*
X499999D02*
D03*
X584999Y3639999D02*
D03*
X669999D02*
D03*
X754999D02*
D03*
X839999D02*
D03*
X1010000D02*
D03*
X1094999D02*
D03*
X1179999D02*
D03*
X1265000D02*
D03*
X1350000D02*
D03*
X1435000D02*
D03*
D19*
X224999Y5040000D02*
D03*
X224999Y3639999D02*
D03*
X1625000Y3639999D02*
D03*
X1625000Y5040000D02*
D03*
D20*
X1630000Y2550000D02*
D03*
X1720000D02*
D03*
X1492500Y2230000D02*
D03*
X1402500D02*
D03*
X935000Y2682500D02*
D03*
X845000D02*
D03*
X1505000Y1577500D02*
D03*
X1415000D02*
D03*
X667500Y2842500D02*
D03*
X577500D02*
D03*
X890000D02*
D03*
X800000D02*
D03*
D21*
X1357000Y987500D02*
D03*
X1453000D02*
D03*
D22*
X1612500Y1278500D02*
D03*
Y1182500D02*
D03*
X1745000Y912000D02*
D03*
Y1008000D02*
D03*
X1705000Y793000D02*
D03*
Y697000D02*
D03*
X1405000Y2862000D02*
D03*
Y2958000D02*
D03*
X457500Y3246500D02*
D03*
Y3342500D02*
D03*
X895000Y3055500D02*
D03*
Y2959500D02*
D03*
X775000Y3055500D02*
D03*
Y2959500D02*
D03*
D23*
X1637000Y2725000D02*
D03*
X1725000D02*
D03*
X665000Y2725000D02*
D03*
X577000D02*
D03*
X1686000Y3197500D02*
D03*
X1774000D02*
D03*
X1686000Y3310000D02*
D03*
X1774000D02*
D03*
X829000Y1780000D02*
D03*
X741000D02*
D03*
X329000Y1657500D02*
D03*
X241000D02*
D03*
X135000Y1772500D02*
D03*
X47000D02*
D03*
D24*
X277500Y670000D02*
D03*
Y582000D02*
D03*
X1765000Y4813500D02*
D03*
Y4901500D02*
D03*
X1392500Y2387500D02*
D03*
Y2475500D02*
D03*
X1005000Y996000D02*
D03*
Y1084000D02*
D03*
X1060000Y1685000D02*
D03*
Y1773000D02*
D03*
X1770000Y110000D02*
D03*
Y198000D02*
D03*
D27*
X80000Y155000D02*
D03*
X152500Y2122500D02*
D03*
%TF.MD5,81416342caa6418d681b9040296701e9*%
M02*
