%TF.GenerationSoftware,Altium Limited,Altium Designer,24.6.1 (21)*%
G04 Layer_Color=16711935*
%FSLAX45Y45*%
%MOMM*%
%TF.SameCoordinates,189501FC-2F9B-42A0-9727-E85274D5E768*%
%TF.FilePolarity,Negative*%
%TF.FileFunction,Soldermask,Bot*%
%TF.Part,Single*%
G01*
G75*
%TA.AperFunction,NonConductor*%
%ADD62C,0.50000*%
%ADD63C,1.00000*%
%TA.AperFunction,SMDPad,CuDef*%
%ADD65R,0.67600X0.77600*%
G04:AMPARAMS|DCode=66|XSize=1.286mm|YSize=0.666mm|CornerRadius=0.11175mm|HoleSize=0mm|Usage=FLASHONLY|Rotation=0.000|XOffset=0mm|YOffset=0mm|HoleType=Round|Shape=RoundedRectangle|*
%AMROUNDEDRECTD66*
21,1,1.28600,0.44250,0,0,0.0*
21,1,1.06250,0.66600,0,0,0.0*
1,1,0.22350,0.53125,-0.22125*
1,1,0.22350,-0.53125,-0.22125*
1,1,0.22350,-0.53125,0.22125*
1,1,0.22350,0.53125,0.22125*
%
%ADD66ROUNDEDRECTD66*%
%ADD73R,0.77600X0.67600*%
%ADD76R,0.67600X0.71600*%
%TA.AperFunction,ComponentPad*%
%ADD78C,1.60000*%
%ADD79C,1.28400*%
%ADD80R,1.28400X1.28400*%
%ADD81O,2.67600X1.17600*%
%ADD82O,2.17600X1.17600*%
%TA.AperFunction,ViaPad*%
%ADD83C,1.60000*%
%ADD84C,0.32600*%
%ADD85C,0.45320*%
%TA.AperFunction,SMDPad,CuDef*%
%ADD86R,0.47600X0.67600*%
%ADD87R,0.47600X0.82600*%
%ADD88O,0.87600X0.62600*%
%ADD89R,0.87600X0.62600*%
%ADD90O,1.37600X0.67600*%
%ADD91R,1.37600X0.67600*%
G04:AMPARAMS|DCode=92|XSize=1.316mm|YSize=0.476mm|CornerRadius=0.138mm|HoleSize=0mm|Usage=FLASHONLY|Rotation=270.000|XOffset=0mm|YOffset=0mm|HoleType=Round|Shape=RoundedRectangle|*
%AMROUNDEDRECTD92*
21,1,1.31600,0.20000,0,0,270.0*
21,1,1.04000,0.47600,0,0,270.0*
1,1,0.27600,-0.10000,-0.52000*
1,1,0.27600,-0.10000,0.52000*
1,1,0.27600,0.10000,0.52000*
1,1,0.27600,0.10000,-0.52000*
%
%ADD92ROUNDEDRECTD92*%
%TA.AperFunction,ConnectorPad*%
%ADD93R,0.77600X0.37600*%
%ADD94R,0.77600X1.07600*%
%TA.AperFunction,SMDPad,CuDef*%
%ADD95R,0.67600X1.62600*%
%ADD96R,1.27600X1.87600*%
%ADD97R,0.67600X0.67600*%
%ADD98R,0.77600X0.37600*%
%ADD99R,0.37600X0.77600*%
G36*
X707500Y3092500D02*
Y3117500D01*
X647500D01*
Y3092500D01*
X642500D01*
Y3117500D01*
X582500D01*
Y3092500D01*
X577500D01*
Y3117500D01*
X517500D01*
Y3092500D01*
X512500D01*
Y3117500D01*
X452500D01*
Y3092500D01*
X430000D01*
Y2837500D01*
X730000D01*
Y3092500D01*
X707500D01*
D02*
G37*
D62*
X105000Y155000D02*
G03*
X105000Y155000I-25000J0D01*
G01*
X282500Y2065000D02*
G03*
X282500Y2065000I-25000J0D01*
G01*
X1090000Y4780000D02*
G03*
X1090000Y4780000I-25000J0D01*
G01*
D63*
X130000Y155000D02*
G03*
X130000Y155000I-50000J0D01*
G01*
X307500Y2065000D02*
G03*
X307500Y2065000I-50000J0D01*
G01*
X1115000Y4780000D02*
G03*
X1115000Y4780000I-50000J0D01*
G01*
X30000Y155000D02*
X130000D01*
X207500Y2065000D02*
X307500D01*
X1015000Y4780000D02*
X1115000D01*
D65*
X1765000Y4903500D02*
D03*
Y4813500D02*
D03*
X72500Y4842500D02*
D03*
Y4932500D02*
D03*
X140000Y3085000D02*
D03*
Y2995000D02*
D03*
D66*
X680500Y4895000D02*
D03*
Y4800000D02*
D03*
Y4705000D02*
D03*
X429500D02*
D03*
Y4800000D02*
D03*
Y4895000D02*
D03*
D73*
X1267500Y1807500D02*
D03*
X1357500D02*
D03*
X272500Y2622500D02*
D03*
X182500D02*
D03*
D76*
X1574000Y1810000D02*
D03*
X1486000D02*
D03*
X1646500Y3552500D02*
D03*
X1558500D02*
D03*
X407000Y4217500D02*
D03*
X495000D02*
D03*
X1323500Y4495000D02*
D03*
X1411500D02*
D03*
D78*
X101600Y1016000D02*
D03*
Y762000D02*
D03*
Y508000D02*
D03*
Y1270000D02*
D03*
Y1524000D02*
D03*
X798000Y125000D02*
D03*
X1052000D02*
D03*
X1306000D02*
D03*
X1560000D02*
D03*
X544000D02*
D03*
X290000D02*
D03*
D79*
X425000Y525000D02*
D03*
X625000D02*
D03*
X425000Y725000D02*
D03*
X625000D02*
D03*
X825001Y525000D02*
D03*
X1025001D02*
D03*
X1225001D02*
D03*
X1425001D02*
D03*
X825001Y725000D02*
D03*
X1025001D02*
D03*
X1225001D02*
D03*
X825000Y3197500D02*
D03*
X1025000D02*
D03*
X1225000D02*
D03*
X625000Y3397500D02*
D03*
X825000D02*
D03*
X1025000D02*
D03*
X1225000D02*
D03*
D80*
X1425001Y725000D02*
D03*
X625000Y3197500D02*
D03*
D81*
X1672500Y2934500D02*
D03*
Y2070500D02*
D03*
D82*
X1136500Y2934500D02*
D03*
Y2070500D02*
D03*
D83*
X1697100Y1482700D02*
D03*
X160400Y2341900D02*
D03*
D84*
X1558894Y3042126D02*
D03*
X822700Y2641400D02*
D03*
X492500Y2430000D02*
D03*
X1770000Y3150000D02*
D03*
X425000Y2105000D02*
D03*
X165000Y1955000D02*
D03*
X695000Y2242500D02*
D03*
X747500Y2660000D02*
D03*
X640000Y2635000D02*
D03*
X697500D02*
D03*
X290280Y3156279D02*
D03*
X739600Y2784759D02*
D03*
X457500Y3382500D02*
D03*
X459800Y3205455D02*
D03*
X572200Y2676501D02*
D03*
X1015000Y1770000D02*
D03*
X1704059Y3385941D02*
D03*
X1450000Y4785000D02*
D03*
X1600000Y3432500D02*
D03*
X535000Y4565000D02*
D03*
X1322500Y4300000D02*
D03*
X1435000Y4995000D02*
D03*
X842500Y4997500D02*
D03*
X1572500Y4932500D02*
D03*
X1677500Y3830000D02*
D03*
X1437500Y3695000D02*
D03*
X1350000Y3692500D02*
D03*
X327500Y3587500D02*
D03*
X277500Y3745000D02*
D03*
Y3827500D02*
D03*
Y4000000D02*
D03*
X275000Y3915000D02*
D03*
X255000Y4935000D02*
D03*
X140000Y2947500D02*
D03*
X870000Y2797960D02*
D03*
X1352500Y2230000D02*
D03*
X1275040Y2627500D02*
D03*
X1275040Y2527500D02*
D03*
X1172137Y2375655D02*
D03*
X1272500Y2220000D02*
D03*
X1015600Y2540000D02*
D03*
X825000Y1685000D02*
D03*
X1432500Y2862500D02*
D03*
X122500Y5010000D02*
D03*
X545000Y4217500D02*
D03*
X315000Y1702500D02*
D03*
X1392500Y2525000D02*
D03*
X995000Y1132500D02*
D03*
X875000D02*
D03*
X775000Y1130000D02*
D03*
X889600Y1437099D02*
D03*
X1447500Y1935000D02*
D03*
X1745000Y1050000D02*
D03*
X1705000Y835000D02*
D03*
X1772500Y517500D02*
D03*
X1770000Y327500D02*
D03*
X1772500Y240000D02*
D03*
X1770000Y60000D02*
D03*
X1005000Y970000D02*
D03*
X1380000Y1732500D02*
D03*
X1717500Y4725000D02*
D03*
X985000Y3055000D02*
D03*
X610400Y1185000D02*
D03*
X430000Y1172500D02*
D03*
X1682500Y1290000D02*
D03*
X1315000Y987500D02*
D03*
X1015600Y2603739D02*
D03*
X759999Y4504999D02*
D03*
X1465000Y1232500D02*
D03*
X837500Y2937500D02*
D03*
X1172500Y3055000D02*
D03*
X1380000Y3107500D02*
D03*
X1790000Y1920000D02*
D03*
X1439121Y2578379D02*
D03*
X1020000Y2430000D02*
D03*
X1450000Y2992500D02*
D03*
X1264400Y2837389D02*
D03*
X1777500Y3065000D02*
D03*
X1715000Y3067500D02*
D03*
X1790001Y3549058D02*
D03*
X1012500Y2340000D02*
D03*
X912500Y2432500D02*
D03*
X1575000Y1360000D02*
D03*
X1507500Y2380000D02*
D03*
Y2317500D02*
D03*
X1725000Y2775000D02*
D03*
X1508626Y1764393D02*
D03*
X1530000Y1687500D02*
D03*
X1365000Y1900000D02*
D03*
X1138800Y1485000D02*
D03*
X1562500Y3145000D02*
D03*
X1291361Y2168861D02*
D03*
X1317500Y2455000D02*
D03*
X1337100Y2732500D02*
D03*
X562500Y2612500D02*
D03*
X482500Y2609636D02*
D03*
X222500Y3637500D02*
D03*
X173100Y3277500D02*
D03*
X130000Y2637500D02*
D03*
X190000Y1715000D02*
D03*
X277500Y1297500D02*
D03*
Y1477500D02*
D03*
X692500Y1780000D02*
D03*
X932500Y1670000D02*
D03*
X47500Y2017500D02*
D03*
X1322500Y4422500D02*
D03*
X357500Y4217500D02*
D03*
X173100Y4170000D02*
D03*
Y4085000D02*
D03*
X1240000Y1895000D02*
D03*
X695000Y1527499D02*
D03*
X1075000Y1365000D02*
D03*
X644998Y1014995D02*
D03*
X1204998Y1014996D02*
D03*
X22500Y4640000D02*
D03*
X135000Y4652500D02*
D03*
X925779Y3568280D02*
D03*
X1420000Y4922500D02*
D03*
X672500Y4995000D02*
D03*
X1010000D02*
D03*
X1180000Y4992500D02*
D03*
X1350000Y4995000D02*
D03*
X500000Y4997500D02*
D03*
X1625000Y3639999D02*
D03*
X1625000Y5040000D02*
D03*
X224998Y5035001D02*
D03*
X307500Y4797500D02*
D03*
X1547500Y4252500D02*
D03*
X1545000Y4327500D02*
D03*
X1399400Y3859400D02*
D03*
X1415779Y3800780D02*
D03*
X1425000Y4422500D02*
D03*
X452500D02*
D03*
X282500Y4255000D02*
D03*
X302500Y4597500D02*
D03*
X550000Y4895000D02*
D03*
X759999Y4174999D02*
D03*
X924999D02*
D03*
X1089999Y4175000D02*
D03*
Y4339999D02*
D03*
X924999D02*
D03*
X760000D02*
D03*
X924999Y4505000D02*
D03*
X1089999D02*
D03*
X1725000Y2600000D02*
D03*
D85*
X1264400Y2785000D02*
D03*
D86*
X612500Y2782500D02*
D03*
X677500D02*
D03*
X547500D02*
D03*
X482500D02*
D03*
D87*
X1450000Y4735000D02*
D03*
X1515000Y4925000D02*
D03*
X1385000D02*
D03*
D88*
X1547500Y3245000D02*
D03*
Y3435000D02*
D03*
X1787500Y3245000D02*
D03*
Y3340000D02*
D03*
D89*
Y3435000D02*
D03*
D90*
X371640Y4424020D02*
D03*
X581640Y4329020D02*
D03*
D91*
Y4519020D02*
D03*
D92*
X312500Y1475000D02*
D03*
X377500D02*
D03*
X442500D02*
D03*
Y1288000D02*
D03*
X377500D02*
D03*
X312500D02*
D03*
D93*
X1095500Y2202500D02*
D03*
Y2252500D02*
D03*
Y2302500D02*
D03*
Y2352500D02*
D03*
Y2402500D02*
D03*
Y2452500D02*
D03*
Y2552500D02*
D03*
Y2602500D02*
D03*
Y2652500D02*
D03*
Y2702500D02*
D03*
Y2752500D02*
D03*
Y2802500D02*
D03*
X1225500Y2277500D02*
D03*
Y2327500D02*
D03*
Y2377500D02*
D03*
Y2427500D02*
D03*
Y2477500D02*
D03*
Y2527500D02*
D03*
Y2577500D02*
D03*
Y2627500D02*
D03*
Y2677500D02*
D03*
Y2727500D02*
D03*
D94*
Y2192500D02*
D03*
Y2812500D02*
D03*
D95*
X1074998Y1267497D02*
D03*
X774998Y1267499D02*
D03*
X974998D02*
D03*
X874998D02*
D03*
X825000Y1780002D02*
D03*
X1025000D02*
D03*
X925000D02*
D03*
D96*
X644998Y1014995D02*
D03*
X1204998Y1014996D02*
D03*
X695000Y1527499D02*
D03*
X1152500D02*
D03*
D97*
X266250Y2761250D02*
D03*
X166250D02*
D03*
X216250Y2901250D02*
D03*
X75000Y4730000D02*
D03*
X25000Y4590000D02*
D03*
X125000D02*
D03*
D98*
X1470000Y4252500D02*
D03*
Y4302500D02*
D03*
X1280000D02*
D03*
Y4252500D02*
D03*
D99*
X1450000Y4372500D02*
D03*
X1400000D02*
D03*
X1350000D02*
D03*
X1300000D02*
D03*
Y4182500D02*
D03*
X1350000D02*
D03*
X1400000D02*
D03*
X1450000D02*
D03*
%TF.MD5,23a57bce785375f2fe3961b9ccfc843d*%
M02*
