%TF.GenerationSoftware,Altium Limited,Altium Designer,24.6.1 (21)*%
G04 Layer_Color=128*
%FSLAX45Y45*%
%MOMM*%
%TF.SameCoordinates,189501FC-2F9B-42A0-9727-E85274D5E768*%
%TF.FilePolarity,Positive*%
%TF.FileFunction,Paste,Bot*%
%TF.Part,Single*%
G01*
G75*
%TA.AperFunction,SMDPad,CuDef*%
%ADD11R,0.60000X0.70000*%
G04:AMPARAMS|DCode=12|XSize=1.21mm|YSize=0.59mm|CornerRadius=0.07375mm|HoleSize=0mm|Usage=FLASHONLY|Rotation=0.000|XOffset=0mm|YOffset=0mm|HoleType=Round|Shape=RoundedRectangle|*
%AMROUNDEDRECTD12*
21,1,1.21000,0.44250,0,0,0.0*
21,1,1.06250,0.59000,0,0,0.0*
1,1,0.14750,0.53125,-0.22125*
1,1,0.14750,-0.53125,-0.22125*
1,1,0.14750,-0.53125,0.22125*
1,1,0.14750,0.53125,0.22125*
%
%ADD12ROUNDEDRECTD12*%
%ADD20R,0.70000X0.60000*%
%ADD23R,0.60000X0.64000*%
%ADD39R,0.40000X0.60000*%
%ADD41R,0.40000X0.75000*%
%ADD42O,0.80000X0.55000*%
%ADD43R,0.80000X0.55000*%
%ADD44O,1.30000X0.60000*%
%ADD45R,1.30000X0.60000*%
G04:AMPARAMS|DCode=46|XSize=1.24mm|YSize=0.4mm|CornerRadius=0.1mm|HoleSize=0mm|Usage=FLASHONLY|Rotation=270.000|XOffset=0mm|YOffset=0mm|HoleType=Round|Shape=RoundedRectangle|*
%AMROUNDEDRECTD46*
21,1,1.24000,0.20000,0,0,270.0*
21,1,1.04000,0.40000,0,0,270.0*
1,1,0.20000,-0.10000,-0.52000*
1,1,0.20000,-0.10000,0.52000*
1,1,0.20000,0.10000,0.52000*
1,1,0.20000,0.10000,-0.52000*
%
%ADD46ROUNDEDRECTD46*%
%TA.AperFunction,ConnectorPad*%
%ADD47R,0.70000X0.30000*%
%ADD48R,0.70000X1.00000*%
%TA.AperFunction,SMDPad,CuDef*%
%ADD49R,0.60000X1.55000*%
%ADD50R,1.20000X1.80000*%
%ADD52C,1.00000*%
%ADD53R,0.70000X0.30000*%
%ADD54R,0.30000X0.70000*%
G36*
X697500Y3082500D02*
X657500D01*
Y3107500D01*
X697500D01*
Y3082500D01*
D02*
G37*
G36*
X632500D02*
X592500D01*
Y3107500D01*
X632500D01*
Y3082500D01*
D02*
G37*
G36*
X567500D02*
X527500D01*
Y3107500D01*
X567500D01*
Y3082500D01*
D02*
G37*
G36*
X502500D02*
X462500D01*
Y3107500D01*
X502500D01*
Y3082500D01*
D02*
G37*
G36*
X688500Y2980500D02*
X619976D01*
Y2949500D01*
X688500D01*
Y2878500D01*
X595500D01*
Y2947524D01*
X564500D01*
Y2878500D01*
X471500D01*
Y2949500D01*
X540024D01*
Y2980500D01*
X471500D01*
Y3051500D01*
X564500D01*
Y2982542D01*
X567500Y2982476D01*
X592500D01*
X595500Y2982542D01*
Y3051500D01*
X688500D01*
Y2980500D01*
D02*
G37*
D11*
X1765000Y4903500D02*
D03*
Y4813500D02*
D03*
X72500Y4842500D02*
D03*
Y4932500D02*
D03*
X140000Y3085000D02*
D03*
Y2995000D02*
D03*
D12*
X680500Y4895000D02*
D03*
Y4800000D02*
D03*
Y4705000D02*
D03*
X429500D02*
D03*
Y4800000D02*
D03*
Y4895000D02*
D03*
D20*
X1267500Y1807500D02*
D03*
X1357500D02*
D03*
X272500Y2622500D02*
D03*
X182500D02*
D03*
D23*
X1574000Y1810000D02*
D03*
X1486000D02*
D03*
X1646500Y3552500D02*
D03*
X1558500D02*
D03*
X407000Y4217500D02*
D03*
X495000D02*
D03*
X1323500Y4495000D02*
D03*
X1411500D02*
D03*
D39*
X612500Y2782500D02*
D03*
X677500D02*
D03*
X547500D02*
D03*
X482500D02*
D03*
D41*
X1450000Y4735000D02*
D03*
X1515000Y4925000D02*
D03*
X1385000D02*
D03*
D42*
X1547500Y3245000D02*
D03*
Y3435000D02*
D03*
X1787500Y3245000D02*
D03*
Y3340000D02*
D03*
D43*
Y3435000D02*
D03*
D44*
X371640Y4424020D02*
D03*
X581640Y4329020D02*
D03*
D45*
Y4519020D02*
D03*
D46*
X312500Y1475000D02*
D03*
X377500D02*
D03*
X442500D02*
D03*
Y1288000D02*
D03*
X377500D02*
D03*
X312500D02*
D03*
D47*
X1095500Y2202500D02*
D03*
Y2252500D02*
D03*
Y2302500D02*
D03*
Y2352500D02*
D03*
Y2402500D02*
D03*
Y2452500D02*
D03*
Y2552500D02*
D03*
Y2602500D02*
D03*
Y2652500D02*
D03*
Y2702500D02*
D03*
Y2752500D02*
D03*
Y2802500D02*
D03*
X1225500Y2277500D02*
D03*
Y2327500D02*
D03*
Y2377500D02*
D03*
Y2427500D02*
D03*
Y2477500D02*
D03*
Y2527500D02*
D03*
Y2577500D02*
D03*
Y2627500D02*
D03*
Y2677500D02*
D03*
Y2727500D02*
D03*
D48*
Y2192500D02*
D03*
Y2812500D02*
D03*
D49*
X1074998Y1267497D02*
D03*
X774998Y1267499D02*
D03*
X974998D02*
D03*
X874998D02*
D03*
X825000Y1780002D02*
D03*
X1025000D02*
D03*
X925000D02*
D03*
D50*
X644998Y1014995D02*
D03*
X1204998Y1014996D02*
D03*
X695000Y1527499D02*
D03*
X1152500D02*
D03*
D52*
X80000Y155000D02*
D03*
X257500Y2065000D02*
D03*
X1065000Y4780000D02*
D03*
D53*
X1470000Y4252500D02*
D03*
Y4302500D02*
D03*
X1280000D02*
D03*
Y4252500D02*
D03*
D54*
X1450000Y4372500D02*
D03*
X1400000D02*
D03*
X1350000D02*
D03*
X1300000D02*
D03*
Y4182500D02*
D03*
X1350000D02*
D03*
X1400000D02*
D03*
X1450000D02*
D03*
%TF.MD5,9b1241702b3bca3d04b65ecbaa18bd3f*%
M02*
