%TF.GenerationSoftware,Altium Limited,Altium Designer,24.6.1 (21)*%
G04 Layer_Color=2752767*
%FSLAX45Y45*%
%MOMM*%
%TF.SameCoordinates,189501FC-2F9B-42A0-9727-E85274D5E768*%
%TF.FilePolarity,Positive*%
%TF.FileFunction,Drawing*%
%TF.Part,Single*%
G01*
G75*
%TA.AperFunction,NonConductor*%
%ADD59C,0.12700*%
%ADD109C,0.16933*%
D59*
X374200Y474200D02*
Y575800D01*
X475800D01*
Y474200D01*
X374200D01*
X574200D02*
Y575800D01*
X675800D01*
Y474200D01*
X574200D01*
X374200Y674200D02*
Y775800D01*
X475800D01*
Y674200D01*
X374200D01*
X574200D02*
Y775800D01*
X675800D01*
Y674200D01*
X574200D01*
X774201Y474200D02*
Y575800D01*
X875801D01*
Y474200D01*
X774201D01*
X974201D02*
Y575800D01*
X1075801D01*
Y474200D01*
X974201D01*
X1174201D02*
Y575800D01*
X1275801D01*
Y474200D01*
X1174201D01*
X1374201D02*
Y575800D01*
X1475801D01*
Y474200D01*
X1374201D01*
X774201Y674200D02*
Y775800D01*
X875801D01*
Y674200D01*
X774201D01*
X974201D02*
Y775800D01*
X1075801D01*
Y674200D01*
X974201D01*
X1174201D02*
Y775800D01*
X1275801D01*
Y674200D01*
X1174201D01*
X1374201D02*
Y775800D01*
X1475801D01*
Y674200D01*
X1374201D01*
X1621700Y2883700D02*
X1647100Y2934500D01*
X1621700Y2985300D01*
X1672500Y2959900D01*
X1723300Y2985300D01*
X1697900Y2934500D01*
X1723300Y2883700D01*
X1672500Y2909100D01*
X1621700Y2883700D01*
Y2019700D02*
X1647100Y2070500D01*
X1621700Y2121300D01*
X1672500Y2095900D01*
X1723300Y2121300D01*
X1697900Y2070500D01*
X1723300Y2019700D01*
X1672500Y2045100D01*
X1621700Y2019700D01*
X1136500Y2883700D02*
X1161900Y2909100D01*
X1187300D01*
X1161900Y2934500D01*
X1187300Y2959900D01*
X1161900D01*
X1136500Y2985300D01*
X1111100Y2959900D01*
X1085700D01*
X1111100Y2934500D01*
X1085700Y2909100D01*
X1111100D01*
X1136500Y2883700D01*
Y2019700D02*
X1161900Y2045100D01*
X1187300D01*
X1161900Y2070500D01*
X1187300Y2095900D01*
X1161900D01*
X1136500Y2121300D01*
X1111100Y2095900D01*
X1085700D01*
X1111100Y2070500D01*
X1085700Y2045100D01*
X1111100D01*
X1136500Y2019700D01*
X574200Y3146700D02*
Y3248300D01*
X675800D01*
Y3146700D01*
X574200D01*
X774200D02*
Y3248300D01*
X875800D01*
Y3146700D01*
X774200D01*
X974200D02*
Y3248300D01*
X1075800D01*
Y3146700D01*
X974200D01*
X1174200D02*
Y3248300D01*
X1275800D01*
Y3146700D01*
X1174200D01*
X574200Y3346700D02*
Y3448300D01*
X675800D01*
Y3346700D01*
X574200D01*
X774200D02*
Y3448300D01*
X875800D01*
Y3346700D01*
X774200D01*
X974200D02*
Y3448300D01*
X1075800D01*
Y3346700D01*
X974200D01*
X1174200D02*
Y3448300D01*
X1275800D01*
Y3346700D01*
X1174200D01*
X1697100Y1431900D02*
X1646300Y1533500D01*
X1747900D01*
X1697100Y1431900D01*
X160400Y2291100D02*
X109600Y2392700D01*
X211200D01*
X160400Y2291100D01*
X1533494Y3016726D02*
Y2991326D01*
X1584294D01*
Y3016726D01*
X1609694D01*
Y3067526D01*
X1584294D01*
Y3092926D01*
X1533494D01*
Y3067526D01*
X1508094D01*
Y3016726D01*
X1533494D01*
X797300Y2616000D02*
Y2590600D01*
X848100D01*
Y2616000D01*
X873500D01*
Y2666800D01*
X848100D01*
Y2692200D01*
X797300D01*
Y2666800D01*
X771900D01*
Y2616000D01*
X797300D01*
X467100Y2404600D02*
Y2379200D01*
X517900D01*
Y2404600D01*
X543300D01*
Y2455400D01*
X517900D01*
Y2480800D01*
X467100D01*
Y2455400D01*
X441700D01*
Y2404600D01*
X467100D01*
X1744600Y3124600D02*
Y3099200D01*
X1795400D01*
Y3124600D01*
X1820800D01*
Y3175400D01*
X1795400D01*
Y3200800D01*
X1744600D01*
Y3175400D01*
X1719200D01*
Y3124600D01*
X1744600D01*
X399600Y2079600D02*
Y2054200D01*
X450400D01*
Y2079600D01*
X475800D01*
Y2130400D01*
X450400D01*
Y2155800D01*
X399600D01*
Y2130400D01*
X374200D01*
Y2079600D01*
X399600D01*
X139600Y1929600D02*
Y1904200D01*
X190400D01*
Y1929600D01*
X215800D01*
Y1980400D01*
X190400D01*
Y2005800D01*
X139600D01*
Y1980400D01*
X114200D01*
Y1929600D01*
X139600D01*
X669600Y2217100D02*
Y2191700D01*
X720400D01*
Y2217100D01*
X745800D01*
Y2267900D01*
X720400D01*
Y2293300D01*
X669600D01*
Y2267900D01*
X644200D01*
Y2217100D01*
X669600D01*
X722100Y2634600D02*
Y2609200D01*
X772900D01*
Y2634600D01*
X798300D01*
Y2685400D01*
X772900D01*
Y2710800D01*
X722100D01*
Y2685400D01*
X696700D01*
Y2634600D01*
X722100D01*
X614600Y2609600D02*
Y2584200D01*
X665400D01*
Y2609600D01*
X690800D01*
Y2660400D01*
X665400D01*
Y2685800D01*
X614600D01*
Y2660400D01*
X589200D01*
Y2609600D01*
X614600D01*
X672100D02*
Y2584200D01*
X722900D01*
Y2609600D01*
X748300D01*
Y2660400D01*
X722900D01*
Y2685800D01*
X672100D01*
Y2660400D01*
X646700D01*
Y2609600D01*
X672100D01*
X264880Y3130879D02*
Y3105479D01*
X315680D01*
Y3130879D01*
X341080D01*
Y3181679D01*
X315680D01*
Y3207079D01*
X264880D01*
Y3181679D01*
X239480D01*
Y3130879D01*
X264880D01*
X714200Y2759359D02*
Y2733959D01*
X765000D01*
Y2759359D01*
X790400D01*
Y2810159D01*
X765000D01*
Y2835559D01*
X714200D01*
Y2810159D01*
X688800D01*
Y2759359D01*
X714200D01*
X432100Y3357100D02*
Y3331700D01*
X482900D01*
Y3357100D01*
X508300D01*
Y3407900D01*
X482900D01*
Y3433300D01*
X432100D01*
Y3407900D01*
X406700D01*
Y3357100D01*
X432100D01*
X434400Y3180055D02*
Y3154655D01*
X485200D01*
Y3180055D01*
X510600D01*
Y3230855D01*
X485200D01*
Y3256255D01*
X434400D01*
Y3230855D01*
X409000D01*
Y3180055D01*
X434400D01*
X546800Y2651101D02*
Y2625701D01*
X597600D01*
Y2651101D01*
X623000D01*
Y2701901D01*
X597600D01*
Y2727301D01*
X546800D01*
Y2701901D01*
X521400D01*
Y2651101D01*
X546800D01*
X989600Y1744600D02*
Y1719200D01*
X1040400D01*
Y1744600D01*
X1065800D01*
Y1795400D01*
X1040400D01*
Y1820800D01*
X989600D01*
Y1795400D01*
X964200D01*
Y1744600D01*
X989600D01*
X1678659Y3360541D02*
Y3335141D01*
X1729459D01*
Y3360541D01*
X1754859D01*
Y3411341D01*
X1729459D01*
Y3436741D01*
X1678659D01*
Y3411341D01*
X1653259D01*
Y3360541D01*
X1678659D01*
X1424600Y4759600D02*
Y4734200D01*
X1475400D01*
Y4759600D01*
X1500800D01*
Y4810400D01*
X1475400D01*
Y4835800D01*
X1424600D01*
Y4810400D01*
X1399200D01*
Y4759600D01*
X1424600D01*
X1574600Y3407100D02*
Y3381700D01*
X1625400D01*
Y3407100D01*
X1650800D01*
Y3457900D01*
X1625400D01*
Y3483300D01*
X1574600D01*
Y3457900D01*
X1549200D01*
Y3407100D01*
X1574600D01*
X509600Y4539600D02*
Y4514200D01*
X560400D01*
Y4539600D01*
X585800D01*
Y4590400D01*
X560400D01*
Y4615800D01*
X509600D01*
Y4590400D01*
X484200D01*
Y4539600D01*
X509600D01*
X1297100Y4274600D02*
Y4249200D01*
X1347900D01*
Y4274600D01*
X1373300D01*
Y4325400D01*
X1347900D01*
Y4350800D01*
X1297100D01*
Y4325400D01*
X1271700D01*
Y4274600D01*
X1297100D01*
X1409600Y4969600D02*
Y4944200D01*
X1460400D01*
Y4969600D01*
X1485800D01*
Y5020400D01*
X1460400D01*
Y5045800D01*
X1409600D01*
Y5020400D01*
X1384200D01*
Y4969600D01*
X1409600D01*
X817100Y4972100D02*
Y4946700D01*
X867900D01*
Y4972100D01*
X893300D01*
Y5022900D01*
X867900D01*
Y5048300D01*
X817100D01*
Y5022900D01*
X791700D01*
Y4972100D01*
X817100D01*
X1547100Y4907100D02*
Y4881700D01*
X1597900D01*
Y4907100D01*
X1623300D01*
Y4957900D01*
X1597900D01*
Y4983300D01*
X1547100D01*
Y4957900D01*
X1521700D01*
Y4907100D01*
X1547100D01*
X1652100Y3804600D02*
Y3779200D01*
X1702900D01*
Y3804600D01*
X1728300D01*
Y3855400D01*
X1702900D01*
Y3880800D01*
X1652100D01*
Y3855400D01*
X1626700D01*
Y3804600D01*
X1652100D01*
X1412100Y3669600D02*
Y3644200D01*
X1462900D01*
Y3669600D01*
X1488300D01*
Y3720400D01*
X1462900D01*
Y3745800D01*
X1412100D01*
Y3720400D01*
X1386700D01*
Y3669600D01*
X1412100D01*
X1324600Y3667100D02*
Y3641700D01*
X1375400D01*
Y3667100D01*
X1400800D01*
Y3717900D01*
X1375400D01*
Y3743300D01*
X1324600D01*
Y3717900D01*
X1299200D01*
Y3667100D01*
X1324600D01*
X302100Y3562100D02*
Y3536700D01*
X352900D01*
Y3562100D01*
X378300D01*
Y3612900D01*
X352900D01*
Y3638300D01*
X302100D01*
Y3612900D01*
X276700D01*
Y3562100D01*
X302100D01*
X252100Y3719600D02*
Y3694200D01*
X302900D01*
Y3719600D01*
X328300D01*
Y3770400D01*
X302900D01*
Y3795800D01*
X252100D01*
Y3770400D01*
X226700D01*
Y3719600D01*
X252100D01*
Y3802100D02*
Y3776700D01*
X302900D01*
Y3802100D01*
X328300D01*
Y3852900D01*
X302900D01*
Y3878300D01*
X252100D01*
Y3852900D01*
X226700D01*
Y3802100D01*
X252100D01*
Y3974600D02*
Y3949200D01*
X302900D01*
Y3974600D01*
X328300D01*
Y4025400D01*
X302900D01*
Y4050800D01*
X252100D01*
Y4025400D01*
X226700D01*
Y3974600D01*
X252100D01*
X249600Y3889600D02*
Y3864200D01*
X300400D01*
Y3889600D01*
X325800D01*
Y3940400D01*
X300400D01*
Y3965800D01*
X249600D01*
Y3940400D01*
X224200D01*
Y3889600D01*
X249600D01*
X229600Y4909600D02*
Y4884200D01*
X280400D01*
Y4909600D01*
X305800D01*
Y4960400D01*
X280400D01*
Y4985800D01*
X229600D01*
Y4960400D01*
X204200D01*
Y4909600D01*
X229600D01*
X114600Y2922100D02*
Y2896700D01*
X165400D01*
Y2922100D01*
X190800D01*
Y2972900D01*
X165400D01*
Y2998300D01*
X114600D01*
Y2972900D01*
X89200D01*
Y2922100D01*
X114600D01*
X844600Y2772560D02*
Y2747160D01*
X895400D01*
Y2772560D01*
X920800D01*
Y2823360D01*
X895400D01*
Y2848760D01*
X844600D01*
Y2823360D01*
X819200D01*
Y2772560D01*
X844600D01*
X1327100Y2204600D02*
Y2179200D01*
X1377900D01*
Y2204600D01*
X1403300D01*
Y2255400D01*
X1377900D01*
Y2280800D01*
X1327100D01*
Y2255400D01*
X1301700D01*
Y2204600D01*
X1327100D01*
X1249640Y2602100D02*
Y2576700D01*
X1300440D01*
Y2602100D01*
X1325840D01*
Y2652900D01*
X1300440D01*
Y2678300D01*
X1249640D01*
Y2652900D01*
X1224240D01*
Y2602100D01*
X1249640D01*
X1249640Y2502100D02*
Y2476700D01*
X1300440D01*
Y2502100D01*
X1325840D01*
Y2552900D01*
X1300440D01*
Y2578300D01*
X1249640D01*
Y2552900D01*
X1224240D01*
Y2502100D01*
X1249640D01*
X1146737Y2350255D02*
Y2324855D01*
X1197537D01*
Y2350255D01*
X1222937D01*
Y2401055D01*
X1197537D01*
Y2426455D01*
X1146737D01*
Y2401055D01*
X1121337D01*
Y2350255D01*
X1146737D01*
X1247100Y2194600D02*
Y2169200D01*
X1297900D01*
Y2194600D01*
X1323300D01*
Y2245400D01*
X1297900D01*
Y2270800D01*
X1247100D01*
Y2245400D01*
X1221700D01*
Y2194600D01*
X1247100D01*
X990200Y2514600D02*
Y2489200D01*
X1041000D01*
Y2514600D01*
X1066400D01*
Y2565400D01*
X1041000D01*
Y2590800D01*
X990200D01*
Y2565400D01*
X964800D01*
Y2514600D01*
X990200D01*
X799600Y1659600D02*
Y1634200D01*
X850400D01*
Y1659600D01*
X875800D01*
Y1710400D01*
X850400D01*
Y1735800D01*
X799600D01*
Y1710400D01*
X774200D01*
Y1659600D01*
X799600D01*
X1407100Y2837100D02*
Y2811700D01*
X1457900D01*
Y2837100D01*
X1483300D01*
Y2887900D01*
X1457900D01*
Y2913300D01*
X1407100D01*
Y2887900D01*
X1381700D01*
Y2837100D01*
X1407100D01*
X97100Y4984600D02*
Y4959200D01*
X147900D01*
Y4984600D01*
X173300D01*
Y5035400D01*
X147900D01*
Y5060800D01*
X97100D01*
Y5035400D01*
X71700D01*
Y4984600D01*
X97100D01*
X519600Y4192100D02*
Y4166700D01*
X570400D01*
Y4192100D01*
X595800D01*
Y4242900D01*
X570400D01*
Y4268300D01*
X519600D01*
Y4242900D01*
X494200D01*
Y4192100D01*
X519600D01*
X289600Y1677100D02*
Y1651700D01*
X340400D01*
Y1677100D01*
X365800D01*
Y1727900D01*
X340400D01*
Y1753300D01*
X289600D01*
Y1727900D01*
X264200D01*
Y1677100D01*
X289600D01*
X1367100Y2499600D02*
Y2474200D01*
X1417900D01*
Y2499600D01*
X1443300D01*
Y2550400D01*
X1417900D01*
Y2575800D01*
X1367100D01*
Y2550400D01*
X1341700D01*
Y2499600D01*
X1367100D01*
X969600Y1107100D02*
Y1081700D01*
X1020400D01*
Y1107100D01*
X1045800D01*
Y1157900D01*
X1020400D01*
Y1183300D01*
X969600D01*
Y1157900D01*
X944200D01*
Y1107100D01*
X969600D01*
X849600D02*
Y1081700D01*
X900400D01*
Y1107100D01*
X925800D01*
Y1157900D01*
X900400D01*
Y1183300D01*
X849600D01*
Y1157900D01*
X824200D01*
Y1107100D01*
X849600D01*
X749600Y1104600D02*
Y1079200D01*
X800400D01*
Y1104600D01*
X825800D01*
Y1155400D01*
X800400D01*
Y1180800D01*
X749600D01*
Y1155400D01*
X724200D01*
Y1104600D01*
X749600D01*
X864200Y1411699D02*
Y1386299D01*
X915000D01*
Y1411699D01*
X940400D01*
Y1462499D01*
X915000D01*
Y1487899D01*
X864200D01*
Y1462499D01*
X838800D01*
Y1411699D01*
X864200D01*
X1422100Y1909600D02*
Y1884200D01*
X1472900D01*
Y1909600D01*
X1498300D01*
Y1960400D01*
X1472900D01*
Y1985800D01*
X1422100D01*
Y1960400D01*
X1396700D01*
Y1909600D01*
X1422100D01*
X1719600Y1024600D02*
Y999200D01*
X1770400D01*
Y1024600D01*
X1795800D01*
Y1075400D01*
X1770400D01*
Y1100800D01*
X1719600D01*
Y1075400D01*
X1694200D01*
Y1024600D01*
X1719600D01*
X1679600Y809600D02*
Y784200D01*
X1730400D01*
Y809600D01*
X1755800D01*
Y860400D01*
X1730400D01*
Y885800D01*
X1679600D01*
Y860400D01*
X1654200D01*
Y809600D01*
X1679600D01*
X1747100Y492100D02*
Y466700D01*
X1797900D01*
Y492100D01*
X1823300D01*
Y542900D01*
X1797900D01*
Y568300D01*
X1747100D01*
Y542900D01*
X1721700D01*
Y492100D01*
X1747100D01*
X1744600Y302100D02*
Y276700D01*
X1795400D01*
Y302100D01*
X1820800D01*
Y352900D01*
X1795400D01*
Y378300D01*
X1744600D01*
Y352900D01*
X1719200D01*
Y302100D01*
X1744600D01*
X1747100Y214600D02*
Y189200D01*
X1797900D01*
Y214600D01*
X1823300D01*
Y265400D01*
X1797900D01*
Y290800D01*
X1747100D01*
Y265400D01*
X1721700D01*
Y214600D01*
X1747100D01*
X1744600Y34600D02*
Y9200D01*
X1795400D01*
Y34600D01*
X1820800D01*
Y85400D01*
X1795400D01*
Y110800D01*
X1744600D01*
Y85400D01*
X1719200D01*
Y34600D01*
X1744600D01*
X979600Y944600D02*
Y919200D01*
X1030400D01*
Y944600D01*
X1055800D01*
Y995400D01*
X1030400D01*
Y1020800D01*
X979600D01*
Y995400D01*
X954200D01*
Y944600D01*
X979600D01*
X1354600Y1707100D02*
Y1681700D01*
X1405400D01*
Y1707100D01*
X1430800D01*
Y1757900D01*
X1405400D01*
Y1783300D01*
X1354600D01*
Y1757900D01*
X1329200D01*
Y1707100D01*
X1354600D01*
X1692100Y4699600D02*
Y4674200D01*
X1742900D01*
Y4699600D01*
X1768300D01*
Y4750400D01*
X1742900D01*
Y4775800D01*
X1692100D01*
Y4750400D01*
X1666700D01*
Y4699600D01*
X1692100D01*
X959600Y3029600D02*
Y3004200D01*
X1010400D01*
Y3029600D01*
X1035800D01*
Y3080400D01*
X1010400D01*
Y3105800D01*
X959600D01*
Y3080400D01*
X934200D01*
Y3029600D01*
X959600D01*
X585000Y1159600D02*
Y1134200D01*
X635800D01*
Y1159600D01*
X661200D01*
Y1210400D01*
X635800D01*
Y1235800D01*
X585000D01*
Y1210400D01*
X559600D01*
Y1159600D01*
X585000D01*
X404600Y1147100D02*
Y1121700D01*
X455400D01*
Y1147100D01*
X480800D01*
Y1197900D01*
X455400D01*
Y1223300D01*
X404600D01*
Y1197900D01*
X379200D01*
Y1147100D01*
X404600D01*
X1657100Y1264600D02*
Y1239200D01*
X1707900D01*
Y1264600D01*
X1733300D01*
Y1315400D01*
X1707900D01*
Y1340800D01*
X1657100D01*
Y1315400D01*
X1631700D01*
Y1264600D01*
X1657100D01*
X1289600Y962100D02*
Y936700D01*
X1340400D01*
Y962100D01*
X1365800D01*
Y1012900D01*
X1340400D01*
Y1038300D01*
X1289600D01*
Y1012900D01*
X1264200D01*
Y962100D01*
X1289600D01*
X990200Y2578339D02*
Y2552939D01*
X1041000D01*
Y2578339D01*
X1066400D01*
Y2629139D01*
X1041000D01*
Y2654539D01*
X990200D01*
Y2629139D01*
X964800D01*
Y2578339D01*
X990200D01*
X734599Y4479599D02*
Y4454199D01*
X785399D01*
Y4479599D01*
X810799D01*
Y4530399D01*
X785399D01*
Y4555799D01*
X734599D01*
Y4530399D01*
X709199D01*
Y4479599D01*
X734599D01*
X1439600Y1207100D02*
Y1181700D01*
X1490400D01*
Y1207100D01*
X1515800D01*
Y1257900D01*
X1490400D01*
Y1283300D01*
X1439600D01*
Y1257900D01*
X1414200D01*
Y1207100D01*
X1439600D01*
X812100Y2912100D02*
Y2886700D01*
X862900D01*
Y2912100D01*
X888300D01*
Y2962900D01*
X862900D01*
Y2988300D01*
X812100D01*
Y2962900D01*
X786700D01*
Y2912100D01*
X812100D01*
X1147100Y3029600D02*
Y3004200D01*
X1197900D01*
Y3029600D01*
X1223300D01*
Y3080400D01*
X1197900D01*
Y3105800D01*
X1147100D01*
Y3080400D01*
X1121700D01*
Y3029600D01*
X1147100D01*
X1354600Y3082100D02*
Y3056700D01*
X1405400D01*
Y3082100D01*
X1430800D01*
Y3132900D01*
X1405400D01*
Y3158300D01*
X1354600D01*
Y3132900D01*
X1329200D01*
Y3082100D01*
X1354600D01*
X1764600Y1894600D02*
Y1869200D01*
X1815400D01*
Y1894600D01*
X1840800D01*
Y1945400D01*
X1815400D01*
Y1970800D01*
X1764600D01*
Y1945400D01*
X1739200D01*
Y1894600D01*
X1764600D01*
X1413721Y2552979D02*
Y2527579D01*
X1464521D01*
Y2552979D01*
X1489921D01*
Y2603779D01*
X1464521D01*
Y2629179D01*
X1413721D01*
Y2603779D01*
X1388321D01*
Y2552979D01*
X1413721D01*
X994600Y2404600D02*
Y2379200D01*
X1045400D01*
Y2404600D01*
X1070800D01*
Y2455400D01*
X1045400D01*
Y2480800D01*
X994600D01*
Y2455400D01*
X969200D01*
Y2404600D01*
X994600D01*
X1424600Y2967100D02*
Y2941700D01*
X1475400D01*
Y2967100D01*
X1500800D01*
Y3017900D01*
X1475400D01*
Y3043300D01*
X1424600D01*
Y3017900D01*
X1399200D01*
Y2967100D01*
X1424600D01*
X1239000Y2759600D02*
Y2734200D01*
X1289800D01*
Y2759600D01*
X1315200D01*
Y2810400D01*
X1289800D01*
Y2835800D01*
X1239000D01*
Y2810400D01*
X1213600D01*
Y2759600D01*
X1239000D01*
Y2811989D02*
Y2786589D01*
X1289800D01*
Y2811989D01*
X1315200D01*
Y2862789D01*
X1289800D01*
Y2888189D01*
X1239000D01*
Y2862789D01*
X1213600D01*
Y2811989D01*
X1239000D01*
X1752100Y3039600D02*
Y3014200D01*
X1802900D01*
Y3039600D01*
X1828300D01*
Y3090400D01*
X1802900D01*
Y3115800D01*
X1752100D01*
Y3090400D01*
X1726700D01*
Y3039600D01*
X1752100D01*
X1689600Y3042100D02*
Y3016700D01*
X1740400D01*
Y3042100D01*
X1765800D01*
Y3092900D01*
X1740400D01*
Y3118300D01*
X1689600D01*
Y3092900D01*
X1664200D01*
Y3042100D01*
X1689600D01*
X1764601Y3523658D02*
Y3498258D01*
X1815402D01*
Y3523658D01*
X1840801D01*
Y3574458D01*
X1815402D01*
Y3599858D01*
X1764601D01*
Y3574458D01*
X1739202D01*
Y3523658D01*
X1764601D01*
X987100Y2314600D02*
Y2289200D01*
X1037900D01*
Y2314600D01*
X1063300D01*
Y2365400D01*
X1037900D01*
Y2390800D01*
X987100D01*
Y2365400D01*
X961700D01*
Y2314600D01*
X987100D01*
X887100Y2407100D02*
Y2381700D01*
X937900D01*
Y2407100D01*
X963300D01*
Y2457900D01*
X937900D01*
Y2483300D01*
X887100D01*
Y2457900D01*
X861700D01*
Y2407100D01*
X887100D01*
X1549600Y1334600D02*
Y1309200D01*
X1600400D01*
Y1334600D01*
X1625800D01*
Y1385400D01*
X1600400D01*
Y1410800D01*
X1549600D01*
Y1385400D01*
X1524200D01*
Y1334600D01*
X1549600D01*
X1482100Y2354600D02*
Y2329200D01*
X1532900D01*
Y2354600D01*
X1558300D01*
Y2405400D01*
X1532900D01*
Y2430800D01*
X1482100D01*
Y2405400D01*
X1456700D01*
Y2354600D01*
X1482100D01*
Y2292100D02*
Y2266700D01*
X1532900D01*
Y2292100D01*
X1558300D01*
Y2342900D01*
X1532900D01*
Y2368300D01*
X1482100D01*
Y2342900D01*
X1456700D01*
Y2292100D01*
X1482100D01*
X1699600Y2749600D02*
Y2724200D01*
X1750400D01*
Y2749600D01*
X1775800D01*
Y2800400D01*
X1750400D01*
Y2825800D01*
X1699600D01*
Y2800400D01*
X1674200D01*
Y2749600D01*
X1699600D01*
X1483226Y1738993D02*
Y1713593D01*
X1534026D01*
Y1738993D01*
X1559426D01*
Y1789793D01*
X1534026D01*
Y1815193D01*
X1483226D01*
Y1789793D01*
X1457826D01*
Y1738993D01*
X1483226D01*
X1504600Y1662100D02*
Y1636700D01*
X1555400D01*
Y1662100D01*
X1580800D01*
Y1712900D01*
X1555400D01*
Y1738300D01*
X1504600D01*
Y1712900D01*
X1479200D01*
Y1662100D01*
X1504600D01*
X1339600Y1874600D02*
Y1849200D01*
X1390400D01*
Y1874600D01*
X1415800D01*
Y1925400D01*
X1390400D01*
Y1950800D01*
X1339600D01*
Y1925400D01*
X1314200D01*
Y1874600D01*
X1339600D01*
X1113400Y1459600D02*
Y1434200D01*
X1164200D01*
Y1459600D01*
X1189600D01*
Y1510400D01*
X1164200D01*
Y1535800D01*
X1113400D01*
Y1510400D01*
X1088000D01*
Y1459600D01*
X1113400D01*
X1537100Y3119600D02*
Y3094200D01*
X1587900D01*
Y3119600D01*
X1613300D01*
Y3170400D01*
X1587900D01*
Y3195800D01*
X1537100D01*
Y3170400D01*
X1511700D01*
Y3119600D01*
X1537100D01*
X1265961Y2143461D02*
Y2118061D01*
X1316761D01*
Y2143461D01*
X1342161D01*
Y2194261D01*
X1316761D01*
Y2219661D01*
X1265961D01*
Y2194261D01*
X1240561D01*
Y2143461D01*
X1265961D01*
X1292100Y2429600D02*
Y2404200D01*
X1342900D01*
Y2429600D01*
X1368300D01*
Y2480400D01*
X1342900D01*
Y2505800D01*
X1292100D01*
Y2480400D01*
X1266700D01*
Y2429600D01*
X1292100D01*
X1311700Y2707100D02*
Y2681700D01*
X1362500D01*
Y2707100D01*
X1387900D01*
Y2757900D01*
X1362500D01*
Y2783300D01*
X1311700D01*
Y2757900D01*
X1286300D01*
Y2707100D01*
X1311700D01*
X537100Y2587100D02*
Y2561700D01*
X587900D01*
Y2587100D01*
X613300D01*
Y2637900D01*
X587900D01*
Y2663300D01*
X537100D01*
Y2637900D01*
X511700D01*
Y2587100D01*
X537100D01*
X457100Y2584236D02*
Y2558836D01*
X507900D01*
Y2584236D01*
X533300D01*
Y2635036D01*
X507900D01*
Y2660436D01*
X457100D01*
Y2635036D01*
X431700D01*
Y2584236D01*
X457100D01*
X197100Y3612100D02*
Y3586700D01*
X247900D01*
Y3612100D01*
X273300D01*
Y3662900D01*
X247900D01*
Y3688300D01*
X197100D01*
Y3662900D01*
X171700D01*
Y3612100D01*
X197100D01*
X147700Y3252100D02*
Y3226700D01*
X198500D01*
Y3252100D01*
X223900D01*
Y3302900D01*
X198500D01*
Y3328300D01*
X147700D01*
Y3302900D01*
X122300D01*
Y3252100D01*
X147700D01*
X104600Y2612100D02*
Y2586700D01*
X155400D01*
Y2612100D01*
X180800D01*
Y2662900D01*
X155400D01*
Y2688300D01*
X104600D01*
Y2662900D01*
X79200D01*
Y2612100D01*
X104600D01*
X164600Y1689600D02*
Y1664200D01*
X215400D01*
Y1689600D01*
X240800D01*
Y1740400D01*
X215400D01*
Y1765800D01*
X164600D01*
Y1740400D01*
X139200D01*
Y1689600D01*
X164600D01*
X252100Y1272100D02*
Y1246700D01*
X302900D01*
Y1272100D01*
X328300D01*
Y1322900D01*
X302900D01*
Y1348300D01*
X252100D01*
Y1322900D01*
X226700D01*
Y1272100D01*
X252100D01*
Y1452100D02*
Y1426700D01*
X302900D01*
Y1452100D01*
X328300D01*
Y1502900D01*
X302900D01*
Y1528300D01*
X252100D01*
Y1502900D01*
X226700D01*
Y1452100D01*
X252100D01*
X667100Y1754600D02*
Y1729200D01*
X717900D01*
Y1754600D01*
X743300D01*
Y1805400D01*
X717900D01*
Y1830800D01*
X667100D01*
Y1805400D01*
X641700D01*
Y1754600D01*
X667100D01*
X907100Y1644600D02*
Y1619200D01*
X957900D01*
Y1644600D01*
X983300D01*
Y1695400D01*
X957900D01*
Y1720800D01*
X907100D01*
Y1695400D01*
X881700D01*
Y1644600D01*
X907100D01*
X22100Y1992100D02*
Y1966700D01*
X72900D01*
Y1992100D01*
X98300D01*
Y2042900D01*
X72900D01*
Y2068300D01*
X22100D01*
Y2042900D01*
X-3300D01*
Y1992100D01*
X22100D01*
X1297100Y4397100D02*
Y4371700D01*
X1347900D01*
Y4397100D01*
X1373300D01*
Y4447900D01*
X1347900D01*
Y4473300D01*
X1297100D01*
Y4447900D01*
X1271700D01*
Y4397100D01*
X1297100D01*
X332100Y4192100D02*
Y4166700D01*
X382900D01*
Y4192100D01*
X408300D01*
Y4242900D01*
X382900D01*
Y4268300D01*
X332100D01*
Y4242900D01*
X306700D01*
Y4192100D01*
X332100D01*
X147700Y4144600D02*
Y4119200D01*
X198500D01*
Y4144600D01*
X223900D01*
Y4195400D01*
X198500D01*
Y4220800D01*
X147700D01*
Y4195400D01*
X122300D01*
Y4144600D01*
X147700D01*
Y4059600D02*
Y4034200D01*
X198500D01*
Y4059600D01*
X223900D01*
Y4110400D01*
X198500D01*
Y4135800D01*
X147700D01*
Y4110400D01*
X122300D01*
Y4059600D01*
X147700D01*
X1214600Y1869600D02*
Y1844200D01*
X1265400D01*
Y1869600D01*
X1290800D01*
Y1920400D01*
X1265400D01*
Y1945800D01*
X1214600D01*
Y1920400D01*
X1189200D01*
Y1869600D01*
X1214600D01*
X669600Y1502099D02*
Y1476699D01*
X720400D01*
Y1502099D01*
X745800D01*
Y1552899D01*
X720400D01*
Y1578299D01*
X669600D01*
Y1552899D01*
X644200D01*
Y1502099D01*
X669600D01*
X1049600Y1339600D02*
Y1314200D01*
X1100400D01*
Y1339600D01*
X1125800D01*
Y1390400D01*
X1100400D01*
Y1415800D01*
X1049600D01*
Y1390400D01*
X1024200D01*
Y1339600D01*
X1049600D01*
X619598Y989595D02*
Y964195D01*
X670398D01*
Y989595D01*
X695798D01*
Y1040395D01*
X670398D01*
Y1065795D01*
X619598D01*
Y1040395D01*
X594198D01*
Y989595D01*
X619598D01*
X1179598Y989596D02*
Y964196D01*
X1230398D01*
Y989596D01*
X1255798D01*
Y1040396D01*
X1230398D01*
Y1065796D01*
X1179598D01*
Y1040396D01*
X1154198D01*
Y989596D01*
X1179598D01*
X-2900Y4614600D02*
Y4589200D01*
X47900D01*
Y4614600D01*
X73300D01*
Y4665400D01*
X47900D01*
Y4690800D01*
X-2900D01*
Y4665400D01*
X-28300D01*
Y4614600D01*
X-2900D01*
X109600Y4627100D02*
Y4601700D01*
X160400D01*
Y4627100D01*
X185800D01*
Y4677900D01*
X160400D01*
Y4703300D01*
X109600D01*
Y4677900D01*
X84200D01*
Y4627100D01*
X109600D01*
X900379Y3542880D02*
Y3517480D01*
X951179D01*
Y3542880D01*
X976579D01*
Y3593680D01*
X951179D01*
Y3619080D01*
X900379D01*
Y3593680D01*
X874979D01*
Y3542880D01*
X900379D01*
X1394600Y4897100D02*
Y4871700D01*
X1445400D01*
Y4897100D01*
X1470800D01*
Y4947900D01*
X1445400D01*
Y4973300D01*
X1394600D01*
Y4947900D01*
X1369200D01*
Y4897100D01*
X1394600D01*
X647100Y4969600D02*
Y4944200D01*
X697900D01*
Y4969600D01*
X723300D01*
Y5020400D01*
X697900D01*
Y5045800D01*
X647100D01*
Y5020400D01*
X621700D01*
Y4969600D01*
X647100D01*
X984600D02*
Y4944200D01*
X1035400D01*
Y4969600D01*
X1060800D01*
Y5020400D01*
X1035400D01*
Y5045800D01*
X984600D01*
Y5020400D01*
X959200D01*
Y4969600D01*
X984600D01*
X1154600Y4967100D02*
Y4941700D01*
X1205400D01*
Y4967100D01*
X1230800D01*
Y5017900D01*
X1205400D01*
Y5043300D01*
X1154600D01*
Y5017900D01*
X1129200D01*
Y4967100D01*
X1154600D01*
X1324600Y4969600D02*
Y4944200D01*
X1375400D01*
Y4969600D01*
X1400800D01*
Y5020400D01*
X1375400D01*
Y5045800D01*
X1324600D01*
Y5020400D01*
X1299200D01*
Y4969600D01*
X1324600D01*
X474600Y4972100D02*
Y4946700D01*
X525400D01*
Y4972100D01*
X550800D01*
Y5022900D01*
X525400D01*
Y5048300D01*
X474600D01*
Y5022900D01*
X449200D01*
Y4972100D01*
X474600D01*
X1599600Y3614599D02*
Y3589199D01*
X1650400D01*
Y3614599D01*
X1675800D01*
Y3665399D01*
X1650400D01*
Y3690799D01*
X1599600D01*
Y3665399D01*
X1574200D01*
Y3614599D01*
X1599600D01*
X1599600Y5014600D02*
Y4989200D01*
X1650400D01*
Y5014600D01*
X1675800D01*
Y5065400D01*
X1650400D01*
Y5090800D01*
X1599600D01*
Y5065400D01*
X1574200D01*
Y5014600D01*
X1599600D01*
X199598Y5009601D02*
Y4984201D01*
X250398D01*
Y5009601D01*
X275798D01*
Y5060401D01*
X250398D01*
Y5085801D01*
X199598D01*
Y5060401D01*
X174198D01*
Y5009601D01*
X199598D01*
X282100Y4772100D02*
Y4746700D01*
X332900D01*
Y4772100D01*
X358300D01*
Y4822900D01*
X332900D01*
Y4848300D01*
X282100D01*
Y4822900D01*
X256700D01*
Y4772100D01*
X282100D01*
X1522100Y4227100D02*
Y4201700D01*
X1572900D01*
Y4227100D01*
X1598300D01*
Y4277900D01*
X1572900D01*
Y4303300D01*
X1522100D01*
Y4277900D01*
X1496700D01*
Y4227100D01*
X1522100D01*
X1519600Y4302100D02*
Y4276700D01*
X1570400D01*
Y4302100D01*
X1595800D01*
Y4352900D01*
X1570400D01*
Y4378300D01*
X1519600D01*
Y4352900D01*
X1494200D01*
Y4302100D01*
X1519600D01*
X1374000Y3834000D02*
Y3808600D01*
X1424800D01*
Y3834000D01*
X1450200D01*
Y3884800D01*
X1424800D01*
Y3910200D01*
X1374000D01*
Y3884800D01*
X1348600D01*
Y3834000D01*
X1374000D01*
X1390379Y3775380D02*
Y3749980D01*
X1441179D01*
Y3775380D01*
X1466579D01*
Y3826180D01*
X1441179D01*
Y3851580D01*
X1390379D01*
Y3826180D01*
X1364979D01*
Y3775380D01*
X1390379D01*
X1399600Y4397100D02*
Y4371700D01*
X1450400D01*
Y4397100D01*
X1475800D01*
Y4447900D01*
X1450400D01*
Y4473300D01*
X1399600D01*
Y4447900D01*
X1374200D01*
Y4397100D01*
X1399600D01*
X427100D02*
Y4371700D01*
X477900D01*
Y4397100D01*
X503300D01*
Y4447900D01*
X477900D01*
Y4473300D01*
X427100D01*
Y4447900D01*
X401700D01*
Y4397100D01*
X427100D01*
X257100Y4229600D02*
Y4204200D01*
X307900D01*
Y4229600D01*
X333300D01*
Y4280400D01*
X307900D01*
Y4305800D01*
X257100D01*
Y4280400D01*
X231700D01*
Y4229600D01*
X257100D01*
X277100Y4572100D02*
Y4546700D01*
X327900D01*
Y4572100D01*
X353300D01*
Y4622900D01*
X327900D01*
Y4648300D01*
X277100D01*
Y4622900D01*
X251700D01*
Y4572100D01*
X277100D01*
X524600Y4869600D02*
Y4844200D01*
X575400D01*
Y4869600D01*
X600800D01*
Y4920400D01*
X575400D01*
Y4945800D01*
X524600D01*
Y4920400D01*
X499200D01*
Y4869600D01*
X524600D01*
X734599Y4149599D02*
Y4124199D01*
X785399D01*
Y4149599D01*
X810799D01*
Y4200399D01*
X785399D01*
Y4225799D01*
X734599D01*
Y4200399D01*
X709199D01*
Y4149599D01*
X734599D01*
X899599D02*
Y4124199D01*
X950399D01*
Y4149599D01*
X975799D01*
Y4200399D01*
X950399D01*
Y4225799D01*
X899599D01*
Y4200399D01*
X874199D01*
Y4149599D01*
X899599D01*
X1064599Y4149600D02*
Y4124200D01*
X1115399D01*
Y4149600D01*
X1140799D01*
Y4200400D01*
X1115399D01*
Y4225800D01*
X1064599D01*
Y4200400D01*
X1039199D01*
Y4149600D01*
X1064599D01*
Y4314599D02*
Y4289199D01*
X1115399D01*
Y4314599D01*
X1140799D01*
Y4365399D01*
X1115399D01*
Y4390799D01*
X1064599D01*
Y4365399D01*
X1039199D01*
Y4314599D01*
X1064599D01*
X899599D02*
Y4289199D01*
X950399D01*
Y4314599D01*
X975799D01*
Y4365399D01*
X950399D01*
Y4390799D01*
X899599D01*
Y4365399D01*
X874199D01*
Y4314599D01*
X899599D01*
X734600D02*
Y4289199D01*
X785400D01*
Y4314599D01*
X810800D01*
Y4365399D01*
X785400D01*
Y4390799D01*
X734600D01*
Y4365399D01*
X709200D01*
Y4314599D01*
X734600D01*
X899599Y4479600D02*
Y4454200D01*
X950399D01*
Y4479600D01*
X975799D01*
Y4530400D01*
X950399D01*
Y4555800D01*
X899599D01*
Y4530400D01*
X874199D01*
Y4479600D01*
X899599D01*
X1064599D02*
Y4454200D01*
X1115399D01*
Y4479600D01*
X1140799D01*
Y4530400D01*
X1115399D01*
Y4555800D01*
X1064599D01*
Y4530400D01*
X1039199D01*
Y4479600D01*
X1064599D01*
X1699600Y2574600D02*
Y2549200D01*
X1750400D01*
Y2574600D01*
X1775800D01*
Y2625400D01*
X1750400D01*
Y2650800D01*
X1699600D01*
Y2625400D01*
X1674200D01*
Y2574600D01*
X1699600D01*
D109*
X152400Y1016000D02*
G03*
X152400Y1016000I-50800J0D01*
G01*
Y762000D02*
G03*
X152400Y762000I-50800J0D01*
G01*
Y508000D02*
G03*
X152400Y508000I-50800J0D01*
G01*
Y1270000D02*
G03*
X152400Y1270000I-50800J0D01*
G01*
Y1524000D02*
G03*
X152400Y1524000I-50800J0D01*
G01*
X848800Y125000D02*
G03*
X848800Y125000I-50800J0D01*
G01*
X1102800D02*
G03*
X1102800Y125000I-50800J0D01*
G01*
X1356800D02*
G03*
X1356800Y125000I-50800J0D01*
G01*
X1610800D02*
G03*
X1610800Y125000I-50800J0D01*
G01*
X594800D02*
G03*
X594800Y125000I-50800J0D01*
G01*
X340800D02*
G03*
X340800Y125000I-50800J0D01*
G01*
%TF.MD5,0dfea85136561e17fccb10fb420c513a*%
M02*
