%TF.GenerationSoftware,Altium Limited,Altium Designer,24.6.1 (21)*%
G04 Layer_Physical_Order=1*
G04 Layer_Color=255*
%FSLAX45Y45*%
%MOMM*%
%TF.SameCoordinates,189501FC-2F9B-42A0-9727-E85274D5E768*%
%TF.FilePolarity,Positive*%
%TF.FileFunction,Copper,L1,Top,Signal*%
%TF.Part,Single*%
G01*
G75*
%TA.AperFunction,SMDPad,CuDef*%
G04:AMPARAMS|DCode=10|XSize=0.91mm|YSize=0.83mm|CornerRadius=0.21995mm|HoleSize=0mm|Usage=FLASHONLY|Rotation=270.000|XOffset=0mm|YOffset=0mm|HoleType=Round|Shape=RoundedRectangle|*
%AMROUNDEDRECTD10*
21,1,0.91000,0.39010,0,0,270.0*
21,1,0.47010,0.83000,0,0,270.0*
1,1,0.43990,-0.19505,-0.23505*
1,1,0.43990,-0.19505,0.23505*
1,1,0.43990,0.19505,0.23505*
1,1,0.43990,0.19505,-0.23505*
%
%ADD10ROUNDEDRECTD10*%
%ADD11R,0.60000X0.70000*%
G04:AMPARAMS|DCode=12|XSize=1.21mm|YSize=0.59mm|CornerRadius=0.07375mm|HoleSize=0mm|Usage=FLASHONLY|Rotation=0.000|XOffset=0mm|YOffset=0mm|HoleType=Round|Shape=RoundedRectangle|*
%AMROUNDEDRECTD12*
21,1,1.21000,0.44250,0,0,0.0*
21,1,1.06250,0.59000,0,0,0.0*
1,1,0.14750,0.53125,-0.22125*
1,1,0.14750,-0.53125,-0.22125*
1,1,0.14750,-0.53125,0.22125*
1,1,0.14750,0.53125,0.22125*
%
%ADD12ROUNDEDRECTD12*%
%ADD13O,0.55000X0.80000*%
%ADD14R,0.55000X0.80000*%
%TA.AperFunction,BGAPad,CuDef*%
%ADD15R,1.20000X1.20000*%
%TA.AperFunction,SMDPad,CuDef*%
%AMCUSTOMSHAPE16*
4,1,5,-0.60000,-0.00001,-0.60000,-0.60000,0.60000,-0.60000,0.60000,0.60000,0.00001,0.60000,-0.60000,-0.00001,0.0*%
%ADD16CUSTOMSHAPE16*%

%TA.AperFunction,ConnectorPad*%
%ADD17R,0.80000X0.40000*%
%ADD18R,0.40000X0.80000*%
%TA.AperFunction,SMDPad,CuDef*%
%ADD19R,0.80000X0.80000*%
%ADD20R,0.70000X0.60000*%
%ADD21R,0.54000X0.30000*%
%ADD22R,0.30000X0.54000*%
%ADD23R,0.60000X0.64000*%
%ADD24R,0.64000X0.60000*%
%TA.AperFunction,SMDPad,SMDef*%
%ADD25R,0.40000X0.25000*%
%ADD26R,0.40000X0.70000*%
%ADD27C,1.00000*%
%TA.AperFunction,Conductor*%
%ADD28C,0.25400*%
%ADD29C,0.09000*%
%ADD30C,0.50000*%
%ADD31C,0.12700*%
%TA.AperFunction,ComponentPad*%
%ADD32C,1.52400*%
%ADD33C,1.20800*%
%ADD34R,1.20800X1.20800*%
%ADD35O,2.60000X1.10000*%
%ADD36O,2.10000X1.10000*%
%TA.AperFunction,ViaPad*%
%ADD37C,1.52400*%
%ADD38C,0.25000*%
G36*
X1875000Y3788422D02*
X1866000Y3785496D01*
X1712289Y3939207D01*
X1699687Y3947628D01*
X1690400Y3949475D01*
Y4039600D01*
Y4124600D01*
Y4209599D01*
Y4300399D01*
X1690400D01*
Y4379600D01*
X1690400D01*
Y4464600D01*
Y4549600D01*
Y4640400D01*
X1559601D01*
Y4549600D01*
Y4464600D01*
Y4385399D01*
X1559600D01*
Y4371546D01*
X1550199D01*
X1535333Y4368589D01*
X1522731Y4360168D01*
X1517531Y4354969D01*
X1514836Y4350935D01*
X1512870Y4348969D01*
X1511806Y4346400D01*
X1509111Y4342366D01*
X1508164Y4337607D01*
X1507100Y4335039D01*
Y4332259D01*
X1506153Y4327500D01*
X1507100Y4322741D01*
Y4319961D01*
X1508164Y4317393D01*
X1509111Y4312634D01*
X1511806Y4308600D01*
X1512870Y4306032D01*
X1514836Y4304066D01*
X1517531Y4300032D01*
X1521565Y4297336D01*
X1523531Y4295370D01*
X1525600Y4294513D01*
X1526456Y4292394D01*
X1526084Y4285588D01*
X1525463Y4284062D01*
X1524066Y4282664D01*
X1520032Y4279969D01*
X1517336Y4275935D01*
X1515370Y4273969D01*
X1514306Y4271400D01*
X1511611Y4267366D01*
X1510664Y4262607D01*
X1509600Y4260039D01*
Y4257259D01*
X1508654Y4252500D01*
X1509600Y4247741D01*
Y4244961D01*
X1510664Y4242393D01*
X1511611Y4237634D01*
X1514306Y4233600D01*
X1515370Y4231031D01*
X1517336Y4229065D01*
X1520032Y4225031D01*
X1524066Y4222336D01*
X1526031Y4220370D01*
X1528600Y4219306D01*
X1532634Y4216611D01*
X1537393Y4215664D01*
X1539961Y4214600D01*
X1542741D01*
X1547500Y4213653D01*
X1559601D01*
Y4124600D01*
Y4039600D01*
Y3954600D01*
Y3869600D01*
Y3784599D01*
Y3705398D01*
X1474278D01*
X1473389Y3709866D01*
X1470694Y3713900D01*
X1469630Y3716469D01*
X1467664Y3718435D01*
X1464969Y3722469D01*
X1460935Y3725164D01*
X1458969Y3727130D01*
X1456400Y3728194D01*
X1452366Y3730889D01*
X1447607Y3731836D01*
X1445039Y3732900D01*
X1442259D01*
X1437500Y3733846D01*
X1432741Y3732900D01*
X1429961D01*
X1427393Y3731836D01*
X1422634Y3730889D01*
X1418600Y3728194D01*
X1416031Y3727130D01*
X1414065Y3725164D01*
X1410031Y3722469D01*
X1407336Y3718435D01*
X1405370Y3716469D01*
X1404306Y3713900D01*
X1401611Y3709866D01*
X1400722Y3705398D01*
X1386281D01*
X1385890Y3707366D01*
X1383194Y3711400D01*
X1382130Y3713969D01*
X1380164Y3715935D01*
X1377469Y3719969D01*
X1373435Y3722664D01*
X1371469Y3724630D01*
X1368900Y3725694D01*
X1364866Y3728390D01*
X1360107Y3729336D01*
X1357539Y3730400D01*
X1354759D01*
X1350000Y3731347D01*
X1345241Y3730400D01*
X1342461D01*
X1339893Y3729336D01*
X1339404Y3729239D01*
X1334970Y3737533D01*
X1359370Y3761933D01*
X1415779D01*
X1420538Y3762880D01*
X1423318D01*
X1425886Y3763943D01*
X1430645Y3764890D01*
X1434679Y3767586D01*
X1437248Y3768650D01*
X1439214Y3770616D01*
X1443248Y3773311D01*
X1445944Y3777345D01*
X1447909Y3779311D01*
X1448973Y3781880D01*
X1451669Y3785914D01*
X1452616Y3790673D01*
X1453679Y3793241D01*
Y3796021D01*
X1454626Y3800780D01*
X1453679Y3805538D01*
Y3808318D01*
X1452616Y3810886D01*
X1451669Y3815645D01*
X1448973Y3819679D01*
X1447909Y3822248D01*
X1445944Y3824214D01*
X1443248Y3828248D01*
X1439214Y3830944D01*
X1437248Y3832910D01*
X1436112Y3834763D01*
X1433835Y3842138D01*
X1434842Y3843865D01*
X1435289Y3844534D01*
X1436236Y3849293D01*
X1437300Y3851861D01*
Y3854641D01*
X1438247Y3859400D01*
X1437300Y3864159D01*
Y3866939D01*
X1436236Y3869507D01*
X1435289Y3874266D01*
X1432594Y3878300D01*
X1431530Y3880869D01*
X1429564Y3882835D01*
X1426869Y3886869D01*
X1422835Y3889564D01*
X1420869Y3891530D01*
X1418300Y3892594D01*
X1414266Y3895290D01*
X1409507Y3896236D01*
X1406939Y3897300D01*
X1404159D01*
X1399400Y3898247D01*
X1294401D01*
X1279535Y3895290D01*
X1266932Y3886869D01*
X1085462Y3705398D01*
X545399D01*
Y3705399D01*
X303257D01*
X302230Y3707188D01*
X300497Y3714399D01*
X300935Y3714836D01*
X304969Y3717531D01*
X307664Y3721565D01*
X309630Y3723531D01*
X310694Y3726100D01*
X313390Y3730134D01*
X314336Y3734893D01*
X315400Y3737461D01*
Y3740241D01*
X316347Y3745000D01*
X315400Y3749759D01*
Y3752539D01*
X314336Y3755107D01*
X313390Y3759866D01*
X310694Y3763900D01*
X309630Y3766468D01*
X307664Y3768434D01*
X304969Y3772468D01*
X300935Y3775164D01*
X298969Y3777130D01*
X296400Y3778194D01*
X292366Y3780889D01*
X290398Y3781281D01*
Y3791219D01*
X292366Y3791611D01*
X296400Y3794306D01*
X298969Y3795370D01*
X300935Y3797336D01*
X304969Y3800032D01*
X307664Y3804066D01*
X309630Y3806032D01*
X310694Y3808600D01*
X313390Y3812634D01*
X314336Y3817393D01*
X315400Y3819961D01*
Y3822741D01*
X316347Y3827500D01*
X315400Y3832259D01*
Y3835039D01*
X314336Y3837607D01*
X313390Y3842366D01*
X310694Y3846400D01*
X309630Y3848969D01*
X307664Y3850935D01*
X304969Y3854969D01*
X300935Y3857664D01*
X298969Y3859630D01*
X296400Y3860694D01*
X292366Y3863390D01*
X290398Y3863781D01*
Y3879466D01*
X293900Y3881806D01*
X296469Y3882870D01*
X298435Y3884836D01*
X302469Y3887531D01*
X305164Y3891565D01*
X307130Y3893531D01*
X308194Y3896100D01*
X310889Y3900134D01*
X311836Y3904893D01*
X312900Y3907461D01*
Y3910241D01*
X313846Y3915000D01*
X312900Y3919759D01*
Y3922539D01*
X311836Y3925107D01*
X310889Y3929866D01*
X308194Y3933900D01*
X307130Y3936469D01*
X305164Y3938435D01*
X302469Y3942469D01*
X298435Y3945164D01*
X296469Y3947130D01*
X293900Y3948194D01*
X290398Y3950534D01*
Y3963719D01*
X292366Y3964110D01*
X296400Y3966806D01*
X298969Y3967870D01*
X300935Y3969836D01*
X304969Y3972531D01*
X307664Y3976565D01*
X309630Y3978531D01*
X310694Y3981100D01*
X313390Y3985134D01*
X314336Y3989893D01*
X315400Y3992461D01*
Y3995241D01*
X316347Y4000000D01*
X315400Y4004759D01*
Y4007539D01*
X314336Y4010107D01*
X313390Y4014866D01*
X310694Y4018900D01*
X309630Y4021468D01*
X307664Y4023434D01*
X304969Y4027468D01*
X300935Y4030164D01*
X298969Y4032130D01*
X296400Y4033194D01*
X292366Y4035889D01*
X290398Y4036281D01*
Y4124600D01*
Y4217249D01*
X292607Y4218164D01*
X297366Y4219111D01*
X301400Y4221806D01*
X303969Y4222870D01*
X305935Y4224836D01*
X309969Y4227532D01*
X312664Y4231566D01*
X314630Y4233532D01*
X315694Y4236100D01*
X318390Y4240134D01*
X319336Y4244893D01*
X320400Y4247461D01*
Y4250241D01*
X321347Y4255000D01*
X320400Y4259759D01*
Y4262539D01*
X319336Y4265107D01*
X318390Y4269866D01*
X315694Y4273900D01*
X314630Y4276469D01*
X312664Y4278435D01*
X309969Y4282469D01*
X305935Y4285164D01*
X303969Y4287130D01*
X301400Y4288194D01*
X297366Y4290890D01*
X292607Y4291836D01*
X290398Y4292751D01*
Y4379600D01*
Y4471153D01*
X332500D01*
X347366Y4474110D01*
X359969Y4482531D01*
X577468Y4700031D01*
X585889Y4712634D01*
X588846Y4727500D01*
Y4895000D01*
X587900Y4899759D01*
Y4902539D01*
X586836Y4905107D01*
X585889Y4909866D01*
X583194Y4913900D01*
X582130Y4916469D01*
X580164Y4918435D01*
X577468Y4922469D01*
X573434Y4925164D01*
X571469Y4927130D01*
X568900Y4928194D01*
X564866Y4930890D01*
X560107Y4931836D01*
X557539Y4932900D01*
X554759D01*
X550000Y4933847D01*
X545241Y4932900D01*
X542461D01*
X539893Y4931836D01*
X535134Y4930890D01*
X531100Y4928194D01*
X528531Y4927130D01*
X526565Y4925164D01*
X522531Y4922469D01*
X519836Y4918435D01*
X517870Y4916469D01*
X516806Y4913900D01*
X514110Y4909866D01*
X513164Y4905107D01*
X512100Y4902539D01*
Y4899759D01*
X511153Y4895000D01*
Y4743590D01*
X349581Y4582018D01*
X347495Y4582276D01*
X345148Y4583748D01*
X340400Y4589962D01*
Y4592741D01*
X341347Y4597500D01*
X340400Y4602259D01*
Y4605039D01*
X339336Y4607607D01*
X338389Y4612366D01*
X335694Y4616400D01*
X334630Y4618969D01*
X332664Y4620935D01*
X329969Y4624969D01*
X325935Y4627664D01*
X323969Y4629630D01*
X321400Y4630694D01*
X317366Y4633390D01*
X312607Y4634336D01*
X310039Y4635400D01*
X307259D01*
X302500Y4636347D01*
X299398Y4635730D01*
X292713Y4639268D01*
X290398Y4643251D01*
Y4719600D01*
X290398D01*
Y4755463D01*
X293589Y4758653D01*
X307500D01*
X312259Y4759600D01*
X315039D01*
X317607Y4760664D01*
X322366Y4761610D01*
X326400Y4764306D01*
X328969Y4765370D01*
X330935Y4767336D01*
X334969Y4770031D01*
X337664Y4774065D01*
X339630Y4776031D01*
X340694Y4778600D01*
X343389Y4782634D01*
X344336Y4787393D01*
X345400Y4789961D01*
Y4792741D01*
X346347Y4797500D01*
X345400Y4802259D01*
Y4805039D01*
X344336Y4807607D01*
X343389Y4812366D01*
X340694Y4816400D01*
X339630Y4818969D01*
X337664Y4820934D01*
X334969Y4824969D01*
X330935Y4827664D01*
X328969Y4829630D01*
X326400Y4830694D01*
X322366Y4833389D01*
X317607Y4834336D01*
X315039Y4835400D01*
X312259D01*
X307500Y4836346D01*
X277498D01*
X262632Y4833389D01*
X250029Y4824969D01*
X236208Y4811147D01*
X232298D01*
X228545Y4810400D01*
X159598D01*
Y4803847D01*
X135079D01*
X130836Y4811784D01*
X131650Y4813002D01*
X135329Y4831495D01*
Y4878505D01*
X131650Y4896998D01*
X121175Y4912675D01*
X105498Y4923150D01*
X94127Y4925412D01*
Y4934588D01*
X105498Y4936850D01*
X121175Y4947325D01*
X131650Y4963003D01*
X133715Y4973384D01*
X137366Y4974110D01*
X141400Y4976806D01*
X143968Y4977870D01*
X145934Y4979836D01*
X149968Y4982531D01*
X152664Y4986565D01*
X154630Y4988531D01*
X155694Y4991100D01*
X158389Y4995134D01*
X159336Y4999893D01*
X160400Y5002461D01*
Y5005241D01*
X161346Y5010000D01*
X160400Y5014759D01*
Y5017539D01*
X159336Y5020107D01*
X158389Y5024866D01*
X155694Y5028900D01*
X154630Y5031468D01*
X152664Y5033434D01*
X149968Y5037468D01*
X145934Y5040164D01*
X143968Y5042130D01*
X141400Y5043194D01*
X137366Y5045889D01*
X132607Y5046836D01*
X131434Y5047322D01*
X121175Y5062675D01*
X105498Y5073150D01*
X87005Y5076829D01*
X47995D01*
X29502Y5073150D01*
X13825Y5062675D01*
X3350Y5046998D01*
X-329Y5028505D01*
Y4981495D01*
X3350Y4963003D01*
X13825Y4947325D01*
X29502Y4936850D01*
X40873Y4934588D01*
Y4925412D01*
X29502Y4923150D01*
X13825Y4912675D01*
X3350Y4896998D01*
X-329Y4878505D01*
Y4831495D01*
X3350Y4813002D01*
X13825Y4797325D01*
X29502Y4786850D01*
X33005Y4786153D01*
X41252Y4773810D01*
X77531Y4737532D01*
X90134Y4729111D01*
X105000Y4726154D01*
X150910D01*
X159598Y4725400D01*
Y4711547D01*
X155200D01*
X140334Y4708590D01*
X127732Y4700169D01*
X107531Y4679969D01*
X104836Y4675935D01*
X102870Y4673969D01*
X101806Y4671400D01*
X99111Y4667366D01*
X98164Y4662607D01*
X97100Y4660039D01*
Y4657259D01*
X96153Y4652500D01*
X97100Y4647741D01*
Y4644961D01*
X98164Y4642393D01*
X99111Y4637634D01*
X101806Y4633600D01*
X102870Y4631031D01*
X104836Y4629065D01*
X107531Y4625031D01*
X111565Y4622336D01*
X113531Y4620370D01*
X116100Y4619306D01*
X120134Y4616611D01*
X124893Y4615664D01*
X127461Y4614600D01*
X130241D01*
X135000Y4613653D01*
X139759Y4614600D01*
X142539D01*
X145107Y4615664D01*
X149866Y4616611D01*
X150598Y4617100D01*
X158456Y4613405D01*
X159598Y4611925D01*
Y4604537D01*
X-8169Y4436771D01*
X-11236Y4432180D01*
X-23464Y4430080D01*
X-25000Y4431220D01*
Y5105000D01*
X130096D01*
X131073Y5100089D01*
X136687Y5091687D01*
X145089Y5086073D01*
X154999Y5084102D01*
X1694999D01*
X1704910Y5086073D01*
X1713313Y5091688D01*
X1718926Y5100089D01*
X1719903Y5105000D01*
X1875000D01*
Y3788422D01*
D02*
G37*
G36*
X1651553Y3683510D02*
Y3459931D01*
X1641800Y3450178D01*
X1632973Y3451934D01*
X1632130Y3453969D01*
X1621469Y3464630D01*
X1607539Y3470400D01*
X1592461D01*
X1578532Y3464630D01*
X1567870Y3453969D01*
X1562100Y3440039D01*
Y3424961D01*
X1567870Y3411032D01*
X1578532Y3400370D01*
X1580567Y3399527D01*
X1582322Y3390700D01*
X1459431Y3267809D01*
X1451011Y3255207D01*
X1448053Y3240341D01*
Y3031346D01*
X1427500D01*
X1412634Y3028389D01*
X1400031Y3019969D01*
X1390463Y3010400D01*
X1364600D01*
X1362347Y3018467D01*
Y3065690D01*
X1369830Y3070690D01*
X1372461Y3069600D01*
X1387539D01*
X1401469Y3075370D01*
X1412130Y3086031D01*
X1415656Y3094543D01*
X1415889Y3094893D01*
X1415972Y3095306D01*
X1417900Y3099961D01*
Y3105000D01*
X1418847Y3109759D01*
Y3504998D01*
X1415889Y3519864D01*
X1407469Y3532466D01*
X1373651Y3566284D01*
X1377095Y3574599D01*
X1565400D01*
Y3699599D01*
X1635464D01*
X1651553Y3683510D01*
D02*
G37*
G36*
X284598Y3574599D02*
X291220D01*
X291611Y3572634D01*
X294306Y3568600D01*
X295370Y3566031D01*
X297336Y3564066D01*
X300031Y3560031D01*
X304065Y3557336D01*
X306031Y3555370D01*
X308600Y3554306D01*
X312634Y3551611D01*
X317393Y3550664D01*
X319961Y3549600D01*
X322741D01*
X327500Y3548654D01*
X332259Y3549600D01*
X335039D01*
X337607Y3550664D01*
X342366Y3551611D01*
X346400Y3554306D01*
X348969Y3555370D01*
X350935Y3557336D01*
X354969Y3560031D01*
X357664Y3564066D01*
X359630Y3566031D01*
X360694Y3568600D01*
X363389Y3572634D01*
X363780Y3574599D01*
X387903D01*
X391347Y3566284D01*
X302532Y3477469D01*
X294111Y3464866D01*
X291154Y3450000D01*
Y3225542D01*
X282839Y3222098D01*
X201777Y3303161D01*
X200569Y3304968D01*
X196535Y3307664D01*
X194569Y3309630D01*
X192000Y3310694D01*
X187966Y3313389D01*
X183207Y3314336D01*
X180639Y3315400D01*
X177859D01*
X173100Y3316346D01*
X170347Y3315799D01*
X163324Y3319644D01*
X161346Y3323395D01*
Y3699599D01*
X284598D01*
Y3574599D01*
D02*
G37*
G36*
X1237700Y3112076D02*
X1258117Y3117547D01*
X1275654Y3127672D01*
X1284654Y3124269D01*
Y2746100D01*
X1287611Y2731234D01*
X1296031Y2718631D01*
X1309631Y2705031D01*
X1313665Y2702336D01*
X1315631Y2700370D01*
X1318200Y2699306D01*
X1322234Y2696611D01*
X1326993Y2695664D01*
X1329561Y2694600D01*
X1332341D01*
X1337100Y2693653D01*
X1340600Y2694350D01*
X1343808Y2693548D01*
X1345951Y2692567D01*
X1349600Y2686914D01*
Y2666346D01*
X1275040D01*
X1270281Y2665400D01*
X1267502D01*
X1264933Y2664336D01*
X1260175Y2663389D01*
X1256140Y2660694D01*
X1253572Y2659630D01*
X1251606Y2657664D01*
X1247572Y2654969D01*
X1244876Y2650934D01*
X1242910Y2648969D01*
X1241846Y2646400D01*
X1239151Y2642366D01*
X1238204Y2637607D01*
X1237141Y2635039D01*
Y2632259D01*
X1236194Y2627500D01*
X1237141Y2622741D01*
Y2619961D01*
X1238204Y2617393D01*
X1239151Y2612634D01*
X1241846Y2608600D01*
X1242910Y2606031D01*
X1244876Y2604065D01*
X1247572Y2600031D01*
X1251606Y2597336D01*
X1253572Y2595370D01*
X1256140Y2594306D01*
X1260175Y2591611D01*
X1264933Y2590664D01*
X1267502Y2589600D01*
X1270281D01*
X1275040Y2588653D01*
X1370000D01*
X1384866Y2591611D01*
X1394028Y2597733D01*
X1396258Y2596921D01*
X1401221Y2585917D01*
Y2571215D01*
X1401147Y2570691D01*
X1400162Y2568716D01*
X1394545Y2563440D01*
X1392500Y2563847D01*
X1387741Y2562900D01*
X1384961D01*
X1382393Y2561836D01*
X1377634Y2560889D01*
X1373600Y2558194D01*
X1371031Y2557130D01*
X1369065Y2555164D01*
X1365031Y2552469D01*
X1362336Y2548435D01*
X1360370Y2546469D01*
X1359306Y2543900D01*
X1356610Y2539866D01*
X1355664Y2535107D01*
X1354600Y2532539D01*
Y2530900D01*
X1335100D01*
Y2499063D01*
X1329811Y2493962D01*
X1326100Y2492460D01*
X1325039Y2492900D01*
X1322259D01*
X1317500Y2493846D01*
X1312741Y2492900D01*
X1309961D01*
X1307393Y2491836D01*
X1306041Y2491567D01*
X1302527Y2499988D01*
X1302516Y2500042D01*
X1305204Y2504065D01*
X1307170Y2506031D01*
X1308234Y2508600D01*
X1310930Y2512634D01*
X1311876Y2517393D01*
X1312940Y2519961D01*
Y2522741D01*
X1313887Y2527500D01*
X1312940Y2532259D01*
Y2535039D01*
X1311876Y2537607D01*
X1310930Y2542366D01*
X1308234Y2546400D01*
X1307170Y2548968D01*
X1305204Y2550934D01*
X1302509Y2554968D01*
X1298475Y2557664D01*
X1296509Y2559630D01*
X1293940Y2560694D01*
X1289906Y2563389D01*
X1285147Y2564336D01*
X1282579Y2565400D01*
X1279799D01*
X1275040Y2566346D01*
X1195000D01*
X1180134Y2563389D01*
X1167531Y2554968D01*
X1158715Y2546152D01*
X1150400Y2549597D01*
Y2614600D01*
Y2735400D01*
X1089537D01*
X1018847Y2806091D01*
Y2876597D01*
X1027369Y2879490D01*
X1029158Y2877158D01*
X1045953Y2864271D01*
X1065511Y2856170D01*
X1086500Y2853406D01*
X1186500D01*
X1207489Y2856170D01*
X1227047Y2864271D01*
X1243842Y2877158D01*
X1256729Y2893953D01*
X1264831Y2913511D01*
X1267594Y2934500D01*
X1264831Y2955488D01*
X1256729Y2975047D01*
X1243842Y2991842D01*
X1227047Y3004729D01*
X1207489Y3012830D01*
X1196683Y3014253D01*
X1194958Y3019728D01*
X1194691Y3023593D01*
X1204630Y3033531D01*
X1210400Y3047461D01*
Y3062539D01*
X1204630Y3076469D01*
X1193969Y3087130D01*
X1180039Y3092900D01*
X1167129D01*
X1162468Y3098893D01*
X1161639Y3100884D01*
X1164596Y3115750D01*
Y3125247D01*
X1173596Y3128105D01*
X1191882Y3117547D01*
X1212300Y3112076D01*
Y3197500D01*
X1237700D01*
Y3112076D01*
D02*
G37*
G36*
X886153Y3569060D02*
X889110Y3554194D01*
X893008Y3548360D01*
X893649Y3546811D01*
X894835Y3545625D01*
X897531Y3541591D01*
X898311Y3540811D01*
X902345Y3538116D01*
X904311Y3536150D01*
X906880Y3535086D01*
X910914Y3532390D01*
X915673Y3531444D01*
X918241Y3530380D01*
X921021D01*
X925779Y3529433D01*
X930538Y3530380D01*
X933318D01*
X935886Y3531444D01*
X940645Y3532390D01*
X944679Y3535086D01*
X947248Y3536150D01*
X949214Y3538116D01*
X953248Y3540811D01*
X955943Y3544845D01*
X957909Y3546811D01*
X958973Y3549380D01*
X961669Y3553414D01*
X962153Y3555849D01*
X971153Y3554962D01*
Y3551800D01*
X974110Y3536935D01*
X982531Y3524332D01*
X1015399Y3491464D01*
X1011441Y3482694D01*
X991882Y3477453D01*
X972317Y3466157D01*
X956343Y3450183D01*
X945047Y3430618D01*
X939200Y3408796D01*
Y3386204D01*
X945047Y3364383D01*
X956343Y3344818D01*
X972317Y3328843D01*
X986153Y3320855D01*
Y3274145D01*
X972317Y3266157D01*
X956343Y3250182D01*
X945047Y3230618D01*
X939200Y3208796D01*
Y3186204D01*
X943335Y3170772D01*
X880463Y3107900D01*
X863347D01*
X863135Y3107900D01*
X863133Y3107900D01*
X862165Y3107900D01*
X861698Y3108006D01*
X857758Y3116865D01*
X858088Y3117495D01*
X858118Y3117547D01*
X860680Y3119027D01*
X877682Y3128843D01*
X893657Y3144818D01*
X904953Y3164383D01*
X910800Y3186204D01*
Y3208796D01*
X904953Y3230618D01*
X893657Y3250182D01*
X877682Y3266157D01*
X863846Y3274145D01*
Y3320855D01*
X877682Y3328843D01*
X893657Y3344818D01*
X904953Y3364383D01*
X910800Y3386204D01*
Y3408796D01*
X904953Y3430618D01*
X893657Y3450183D01*
X877682Y3466157D01*
X858117Y3477453D01*
X836296Y3483300D01*
X813704D01*
X791882Y3477453D01*
X772317Y3466157D01*
X756343Y3450183D01*
X745047Y3430618D01*
X739200Y3408796D01*
Y3386204D01*
X745047Y3364383D01*
X756343Y3344818D01*
X772317Y3328843D01*
X786153Y3320855D01*
Y3274145D01*
X772317Y3266157D01*
X756343Y3250182D01*
X745047Y3230618D01*
X739200Y3208796D01*
Y3186204D01*
X745047Y3164383D01*
X751531Y3153153D01*
X746979Y3148602D01*
X738559Y3135999D01*
X735602Y3121133D01*
Y3107900D01*
X734600D01*
Y3003100D01*
X815400D01*
Y3107148D01*
X819952Y3111700D01*
X836296D01*
X846322Y3114387D01*
X849734Y3112334D01*
X854055Y3109655D01*
X854600Y3107287D01*
X854600Y3099905D01*
X854600Y3099904D01*
X854600Y3099847D01*
Y3003100D01*
X935400D01*
Y3047040D01*
X938100Y3048859D01*
X940539Y3048480D01*
X948199Y3044810D01*
X952870Y3033531D01*
X963531Y3022870D01*
X966231Y3021752D01*
X967987Y3012925D01*
X952531Y2997469D01*
X944111Y2984866D01*
X941154Y2970000D01*
Y2897900D01*
X851529D01*
X847912Y2903312D01*
X839510Y2908926D01*
X829600Y2910898D01*
X637900D01*
X627989Y2908926D01*
X619587Y2903312D01*
X615971Y2897900D01*
X607100D01*
Y2787101D01*
X607099Y2787100D01*
X606581Y2784424D01*
X606667Y2783701D01*
X606502Y2782400D01*
X606502Y2778347D01*
Y2682500D01*
X607822Y2675864D01*
X608473Y2672590D01*
X608882Y2670779D01*
X609599Y2667600D01*
D01*
X610002Y2658600D01*
X607870Y2656469D01*
X602100Y2642539D01*
Y2638258D01*
X600316Y2637233D01*
X593100Y2635498D01*
X592664Y2635935D01*
X589969Y2639969D01*
X555946Y2673991D01*
Y3111700D01*
X710800D01*
Y3283300D01*
X561947D01*
Y3327455D01*
X570261Y3330899D01*
X572317Y3328843D01*
X591882Y3317547D01*
X613704Y3311700D01*
X636296D01*
X658117Y3317547D01*
X677682Y3328843D01*
X693657Y3344818D01*
X704953Y3364383D01*
X710800Y3386204D01*
Y3408796D01*
X704953Y3430618D01*
X693657Y3450183D01*
X677682Y3466157D01*
X658117Y3477453D01*
X636296Y3483300D01*
X613704D01*
X596304Y3478638D01*
X591645Y3486707D01*
X679537Y3574599D01*
X886153D01*
Y3569060D01*
D02*
G37*
G36*
X1723390Y3818232D02*
X1801754Y3739868D01*
Y3589773D01*
X1797540Y3586958D01*
X1782463D01*
X1768533Y3581188D01*
X1757872Y3570526D01*
X1752102Y3556596D01*
Y3541519D01*
X1757872Y3527589D01*
X1768533Y3516928D01*
X1782463Y3511158D01*
X1797540D01*
X1801754Y3508342D01*
Y3105718D01*
X1792753Y3099704D01*
X1785039Y3102900D01*
X1769961D01*
X1756031Y3097130D01*
X1753011Y3094109D01*
X1742468Y3094969D01*
X1738435Y3097664D01*
X1736469Y3099630D01*
X1733900Y3100694D01*
X1729866Y3103390D01*
X1725108Y3104336D01*
X1722539Y3105400D01*
X1719758D01*
X1715000Y3106346D01*
X1707900Y3111603D01*
Y3127900D01*
X1686800D01*
X1682791Y3136900D01*
X1685671Y3140100D01*
X1741400D01*
Y3252600D01*
Y3367400D01*
X1680655D01*
X1677211Y3375715D01*
X1717868Y3416372D01*
X1726289Y3428975D01*
X1729246Y3443840D01*
Y3699600D01*
X1726289Y3714466D01*
X1717868Y3727069D01*
X1690400Y3754537D01*
Y3793720D01*
X1692366Y3794111D01*
X1696400Y3796806D01*
X1698969Y3797870D01*
X1700935Y3799836D01*
X1704969Y3802531D01*
X1707664Y3806565D01*
X1709630Y3808531D01*
X1710694Y3811100D01*
X1713390Y3815134D01*
X1713451Y3815443D01*
X1722588Y3818379D01*
X1723390Y3818232D01*
D02*
G37*
G36*
X944111Y2775134D02*
X952531Y2762531D01*
X968848Y2746215D01*
X965404Y2737900D01*
X874600D01*
Y2627100D01*
X940463D01*
X981767Y2585796D01*
X982406Y2584839D01*
X983470Y2582271D01*
X985436Y2580305D01*
X988132Y2576271D01*
X987940Y2565938D01*
X985848Y2563847D01*
X916370D01*
X911755Y2570754D01*
X900913Y2577998D01*
X888125Y2580542D01*
X781875D01*
X769087Y2577998D01*
X758246Y2570754D01*
X753630Y2563847D01*
X665371D01*
X660755Y2570754D01*
X649914Y2577998D01*
X637125Y2580542D01*
X597793D01*
X593249Y2588093D01*
X593141Y2589542D01*
X594630Y2591031D01*
X595694Y2593600D01*
X598389Y2597634D01*
X599336Y2602393D01*
X600400Y2604961D01*
Y2607742D01*
X600649Y2608994D01*
X601046Y2609243D01*
X610053Y2611348D01*
X618531Y2602870D01*
X632461Y2597100D01*
X647539D01*
X661469Y2602870D01*
X668750Y2610151D01*
X676031Y2602870D01*
X689961Y2597100D01*
X705039D01*
X718969Y2602870D01*
X729630Y2613531D01*
X734172Y2624498D01*
X739961Y2622100D01*
X755039D01*
X768968Y2627870D01*
X779630Y2638531D01*
X785400Y2652461D01*
Y2667539D01*
X779630Y2681469D01*
X768969Y2692130D01*
X768933Y2692308D01*
X845280Y2768655D01*
X846565Y2767796D01*
X848531Y2765830D01*
X851100Y2764766D01*
X855134Y2762071D01*
X859893Y2761124D01*
X862461Y2760060D01*
X865241D01*
X870000Y2759114D01*
X874759Y2760060D01*
X877539D01*
X880107Y2761124D01*
X884866Y2762071D01*
X888900Y2764766D01*
X891469Y2765830D01*
X893435Y2767796D01*
X897469Y2770492D01*
X900164Y2774526D01*
X902130Y2776492D01*
X903194Y2779060D01*
X905889Y2783094D01*
X906686Y2787100D01*
X941730D01*
X944111Y2775134D01*
D02*
G37*
G36*
X829600Y2789600D02*
X740597Y2700597D01*
X735039Y2702900D01*
X719961D01*
X706031Y2697130D01*
X695370Y2686469D01*
X693726Y2682500D01*
X632400D01*
Y2782400D01*
X637900Y2787100D01*
X637900D01*
Y2885000D01*
X829600D01*
Y2789600D01*
D02*
G37*
G36*
X505669Y2568621D02*
X505737Y2568497D01*
X500002Y2559913D01*
X497458Y2547125D01*
Y2502875D01*
X500002Y2490087D01*
X507246Y2479246D01*
X518087Y2472002D01*
X530875Y2469458D01*
X637125D01*
X649914Y2472002D01*
X660755Y2479246D01*
X665371Y2486154D01*
X753630D01*
X754858Y2484315D01*
X757555Y2477500D01*
X754858Y2470685D01*
X751002Y2464913D01*
X748458Y2452125D01*
Y2407875D01*
X751002Y2395087D01*
X754858Y2389315D01*
X757555Y2382500D01*
X754858Y2375685D01*
X753630Y2373846D01*
X665371D01*
X660755Y2380754D01*
X649914Y2387998D01*
X637125Y2390542D01*
X530875D01*
X518087Y2387998D01*
X507246Y2380754D01*
X500002Y2369913D01*
X499197Y2365867D01*
X489432Y2362905D01*
X470747Y2381590D01*
Y2563740D01*
X472724Y2567492D01*
X479747Y2571337D01*
X482500Y2570789D01*
X487259Y2571736D01*
X490039D01*
X492607Y2572800D01*
X497366Y2573746D01*
X499271Y2575019D01*
X505669Y2568621D01*
D02*
G37*
G36*
X-11236Y3185323D02*
X-8169Y3180732D01*
X254835Y2917728D01*
Y2398920D01*
X246142Y2396590D01*
X241700Y2404284D01*
X222784Y2423200D01*
X199616Y2436576D01*
X173776Y2443500D01*
X147024D01*
X121184Y2436576D01*
X98016Y2423200D01*
X79100Y2404284D01*
X65724Y2381116D01*
X58800Y2355276D01*
Y2328524D01*
X65724Y2302684D01*
X79100Y2279516D01*
X98016Y2260600D01*
X121184Y2247224D01*
X147024Y2240300D01*
X173776D01*
X199616Y2247224D01*
X222784Y2260600D01*
X241700Y2279516D01*
X246142Y2287210D01*
X254835Y2284881D01*
Y1948819D01*
X254835Y1948818D01*
X257792Y1933952D01*
X266213Y1921349D01*
X605553Y1582009D01*
Y1506540D01*
X608510Y1491674D01*
X616931Y1479071D01*
X646572Y1449430D01*
X659175Y1441009D01*
X672353Y1438388D01*
Y1247651D01*
X675311Y1232785D01*
X683731Y1220182D01*
X736153Y1167760D01*
Y1145400D01*
X717100D01*
Y1024600D01*
Y938999D01*
X708100Y935271D01*
X633244Y1010127D01*
Y1154245D01*
X633835Y1154836D01*
X637869Y1157531D01*
X640564Y1161565D01*
X642530Y1163531D01*
X643594Y1166100D01*
X646290Y1170134D01*
X647236Y1174893D01*
X648300Y1177461D01*
Y1180241D01*
X649247Y1185000D01*
X648300Y1189759D01*
Y1192539D01*
X647236Y1195107D01*
X646290Y1199866D01*
X643594Y1203900D01*
X642530Y1206469D01*
X640564Y1208434D01*
X637869Y1212468D01*
X633835Y1215164D01*
X631869Y1217130D01*
X629300Y1218194D01*
X625266Y1220889D01*
X620507Y1221836D01*
X617939Y1222900D01*
X615159D01*
X610400Y1223846D01*
X608100D01*
X603341Y1222900D01*
X602862D01*
X602419Y1222716D01*
X593234Y1220889D01*
X580632Y1212469D01*
X566929Y1198766D01*
X558508Y1186163D01*
X555551Y1171297D01*
Y994036D01*
X558508Y979170D01*
X566929Y966568D01*
X681047Y852450D01*
X693650Y844029D01*
X708515Y841072D01*
X793292D01*
X815400Y818964D01*
X811442Y810194D01*
X791883Y804953D01*
X772318Y793657D01*
X756344Y777682D01*
X745048Y758118D01*
X739201Y736296D01*
Y713704D01*
X745048Y691883D01*
X756344Y672318D01*
X772318Y656343D01*
X791883Y645047D01*
X813705Y639200D01*
X836297D01*
X858118Y645047D01*
X875655Y655172D01*
X884655Y651769D01*
Y598231D01*
X875655Y594828D01*
X858118Y604953D01*
X836297Y610800D01*
X813705D01*
X791883Y604953D01*
X772318Y593657D01*
X756344Y577682D01*
X745048Y558118D01*
X739201Y536296D01*
Y513704D01*
X745048Y491882D01*
X756344Y472318D01*
X772318Y456343D01*
X791883Y445047D01*
X813705Y439200D01*
X836297D01*
X858118Y445047D01*
X877683Y456343D01*
X878941Y457601D01*
X888849Y454781D01*
X896032Y444030D01*
X925402Y414661D01*
X921958Y406346D01*
X532500D01*
X517634Y403389D01*
X505031Y394968D01*
X329547Y219485D01*
X329216Y219676D01*
X303376Y226600D01*
X276624D01*
X250784Y219676D01*
X227616Y206300D01*
X208700Y187384D01*
X195324Y164216D01*
X188400Y138376D01*
Y111624D01*
X195324Y85784D01*
X208700Y62616D01*
X227616Y43700D01*
X250784Y30324D01*
X276624Y23400D01*
X303376D01*
X329216Y30324D01*
X352384Y43700D01*
X371300Y62616D01*
X384676Y85784D01*
X391600Y111624D01*
Y138376D01*
X384676Y164216D01*
X384485Y164548D01*
X548590Y328653D01*
X680957D01*
X684402Y320339D01*
X583548Y219485D01*
X583216Y219676D01*
X557376Y226600D01*
X530624D01*
X504784Y219676D01*
X481616Y206300D01*
X462700Y187384D01*
X449324Y164216D01*
X442400Y138376D01*
Y111624D01*
X449324Y85784D01*
X462700Y62616D01*
X481616Y43700D01*
X504784Y30324D01*
X530624Y23400D01*
X557376D01*
X583216Y30324D01*
X606384Y43700D01*
X625300Y62616D01*
X638676Y85784D01*
X645600Y111624D01*
Y138376D01*
X638676Y164216D01*
X638485Y164548D01*
X744717Y270779D01*
X1447126D01*
X1461991Y273736D01*
X1474594Y282157D01*
X1585370Y392932D01*
X1593791Y405535D01*
X1596748Y420401D01*
Y1099811D01*
X1627037Y1130100D01*
X1652900D01*
Y1234900D01*
X1572100D01*
Y1193065D01*
X1563100Y1189337D01*
X1492469Y1259969D01*
X1488435Y1262664D01*
X1486469Y1264630D01*
X1483900Y1265694D01*
X1479866Y1268389D01*
X1475107Y1269336D01*
X1472539Y1270400D01*
X1469759D01*
X1465000Y1271346D01*
X1460241Y1270400D01*
X1457461D01*
X1454893Y1269336D01*
X1450134Y1268389D01*
X1446100Y1265694D01*
X1443532Y1264630D01*
X1441566Y1262664D01*
X1437532Y1259969D01*
X1434836Y1255934D01*
X1432870Y1253969D01*
X1431806Y1251400D01*
X1429111Y1247366D01*
X1428164Y1242607D01*
X1427100Y1240039D01*
Y1237259D01*
X1426154Y1232500D01*
X1427100Y1227741D01*
Y1224961D01*
X1428164Y1222393D01*
X1429111Y1217634D01*
X1431806Y1213600D01*
X1432870Y1211031D01*
X1434836Y1209065D01*
X1437532Y1205031D01*
X1519055Y1123508D01*
Y1100105D01*
X1510740Y1096661D01*
X1299844Y1307557D01*
X1302806Y1317322D01*
X1312998Y1319350D01*
X1328675Y1329825D01*
X1339150Y1345502D01*
X1342829Y1363995D01*
Y1367589D01*
X1349714Y1368959D01*
X1362317Y1377380D01*
X1420168Y1435231D01*
X1428589Y1447834D01*
X1431546Y1462700D01*
Y1522100D01*
X1536153D01*
Y1360000D01*
X1537100Y1355241D01*
Y1352461D01*
X1538164Y1349893D01*
X1539110Y1345134D01*
X1541806Y1341100D01*
X1542870Y1338531D01*
X1544836Y1336566D01*
X1547531Y1332531D01*
X1551565Y1329836D01*
X1553531Y1327870D01*
X1556100Y1326806D01*
X1560134Y1324111D01*
X1564893Y1323164D01*
X1567461Y1322100D01*
X1570241D01*
X1575000Y1321154D01*
X1579759Y1322100D01*
X1582539D01*
X1585107Y1323164D01*
X1589866Y1324111D01*
X1593900Y1326806D01*
X1596468Y1327870D01*
X1598434Y1329836D01*
X1602468Y1332531D01*
X1605164Y1336566D01*
X1607130Y1338531D01*
X1608194Y1341100D01*
X1610889Y1345134D01*
X1611836Y1349893D01*
X1612900Y1352461D01*
Y1355241D01*
X1613846Y1360000D01*
Y1409542D01*
X1622846Y1413269D01*
X1634716Y1401400D01*
X1657884Y1388024D01*
X1683724Y1381100D01*
X1710476D01*
X1736316Y1388024D01*
X1759484Y1401400D01*
X1778400Y1420316D01*
X1791776Y1443484D01*
X1798700Y1469324D01*
Y1496076D01*
X1791776Y1521916D01*
X1778400Y1545084D01*
X1759484Y1564000D01*
X1736316Y1577376D01*
X1710476Y1584300D01*
X1683724D01*
X1678571Y1582919D01*
X1674072Y1590714D01*
X1866000Y1782642D01*
X1875000Y1779717D01*
Y-25000D01*
X-25000D01*
Y3186282D01*
X-23464Y3187423D01*
X-11236Y3185323D01*
D02*
G37*
G36*
X1164599Y2337755D02*
X1179676D01*
X1183054Y2335498D01*
Y2166764D01*
X1184281Y2160594D01*
X1176895Y2151594D01*
X1086500D01*
X1065511Y2148830D01*
X1045953Y2140729D01*
X1029158Y2127842D01*
X1016271Y2111047D01*
X1008170Y2091489D01*
X1005406Y2070500D01*
X1008170Y2049512D01*
X1016271Y2029953D01*
X1029158Y2013158D01*
X1045953Y2000271D01*
X1065511Y1992170D01*
X1086500Y1989406D01*
X1186500D01*
X1196498Y1990723D01*
X1200702Y1982198D01*
X1161931Y1943428D01*
X1153511Y1930825D01*
X1150553Y1915959D01*
Y1848033D01*
X1141553Y1844305D01*
X1129990Y1855869D01*
X1117387Y1864289D01*
X1102521Y1867246D01*
X985090D01*
X581193Y2271143D01*
X584637Y2279458D01*
X637125D01*
X649914Y2282002D01*
X660755Y2289246D01*
X665371Y2296153D01*
X753630D01*
X758246Y2289246D01*
X769087Y2282002D01*
X781875Y2279458D01*
X888125D01*
X900913Y2282002D01*
X911755Y2289246D01*
X916370Y2296154D01*
X925533D01*
X940398Y2299111D01*
X953001Y2307532D01*
X968210Y2322740D01*
X969051Y2322980D01*
X979303Y2321105D01*
X979306Y2321100D01*
X980370Y2318531D01*
X982336Y2316565D01*
X985031Y2312531D01*
X992531Y2305031D01*
X1005134Y2296611D01*
X1020000Y2293654D01*
X1039600D01*
Y2272100D01*
X1150400D01*
Y2333894D01*
X1159400Y2339908D01*
X1164599Y2337755D01*
D02*
G37*
G36*
X1801754Y2864614D02*
Y2140386D01*
X1793682Y2136405D01*
X1788047Y2140729D01*
X1768489Y2148830D01*
X1747500Y2151594D01*
X1675785D01*
Y2494600D01*
X1690400D01*
Y2605400D01*
X1675847D01*
Y2667600D01*
X1692400D01*
Y2782400D01*
X1675847D01*
Y2853406D01*
X1747500D01*
X1768489Y2856170D01*
X1788047Y2864271D01*
X1793682Y2868595D01*
X1801754Y2864614D01*
D02*
G37*
G36*
X1449900Y2420100D02*
X1452100Y2417100D01*
Y2417100D01*
X1536153D01*
Y2195754D01*
X1337531Y1997132D01*
X1329328Y1984855D01*
X1318140Y1992331D01*
X1315789Y1992798D01*
X1318447Y2006159D01*
Y2109063D01*
X1315490Y2123929D01*
X1307069Y2136532D01*
X1260747Y2182854D01*
Y2343309D01*
X1337537Y2420100D01*
X1449900D01*
D02*
G37*
G36*
X1518243Y2056553D02*
X1519170Y2049512D01*
X1527271Y2029953D01*
X1540158Y2013158D01*
X1556953Y2000271D01*
X1576511Y1992170D01*
X1597500Y1989406D01*
X1747500D01*
X1768489Y1992170D01*
X1788047Y2000271D01*
X1793682Y2004595D01*
X1801754Y2000614D01*
Y1960716D01*
X1797538Y1957900D01*
X1782461D01*
X1768531Y1952130D01*
X1757870Y1941469D01*
X1752100Y1927539D01*
Y1912461D01*
X1757870Y1898531D01*
X1768531Y1887870D01*
X1782461Y1882100D01*
X1797538D01*
X1801754Y1879284D01*
Y1828270D01*
X1577846Y1604363D01*
X1568846Y1608091D01*
Y1687500D01*
X1567900Y1692259D01*
Y1695039D01*
X1566836Y1697607D01*
X1565889Y1702366D01*
X1563194Y1706400D01*
X1562130Y1708969D01*
X1560164Y1710935D01*
X1557469Y1714969D01*
X1553435Y1717664D01*
X1551469Y1719630D01*
X1548900Y1720694D01*
X1544866Y1723389D01*
X1540107Y1724336D01*
X1537539Y1725400D01*
X1535821D01*
X1525639Y1740639D01*
X1508140Y1752331D01*
X1487500Y1756436D01*
X1466859Y1752331D01*
X1449361Y1740639D01*
X1437669Y1723141D01*
X1433564Y1702500D01*
Y1677500D01*
X1437669Y1656859D01*
X1447665Y1641900D01*
X1444065Y1632900D01*
X1354600D01*
X1350400Y1640160D01*
Y1755400D01*
X1244600D01*
Y1679323D01*
X1242032Y1675479D01*
X1229875Y1673484D01*
X1228246Y1674739D01*
Y1849105D01*
X1230224Y1852856D01*
X1237247Y1856701D01*
X1240000Y1856154D01*
X1244759Y1857100D01*
X1247539D01*
X1250107Y1858164D01*
X1254866Y1859111D01*
X1258900Y1861806D01*
X1261469Y1862870D01*
X1263435Y1864836D01*
X1267469Y1867531D01*
X1271313Y1871375D01*
X1276859Y1867669D01*
X1297500Y1863564D01*
X1318140Y1867669D01*
X1326956Y1873560D01*
X1337532Y1872531D01*
X1341566Y1869836D01*
X1343531Y1867870D01*
X1346100Y1866806D01*
X1350134Y1864111D01*
X1354893Y1863164D01*
X1357461Y1862100D01*
X1360241D01*
X1365000Y1861154D01*
X1369759Y1862100D01*
X1372539D01*
X1375107Y1863164D01*
X1379866Y1864111D01*
X1383900Y1866806D01*
X1386469Y1867870D01*
X1388435Y1869836D01*
X1392469Y1872531D01*
X1395164Y1876565D01*
X1397130Y1878531D01*
X1398194Y1881100D01*
X1400890Y1885134D01*
X1401836Y1889893D01*
X1402900Y1892461D01*
Y1895241D01*
X1403847Y1900000D01*
Y1916546D01*
X1412847Y1918284D01*
X1414306Y1916100D01*
X1415370Y1913531D01*
X1417336Y1911565D01*
X1420031Y1907531D01*
X1424065Y1904836D01*
X1426031Y1902870D01*
X1428600Y1901806D01*
X1432634Y1899111D01*
X1437393Y1898164D01*
X1437411Y1898156D01*
X1437669Y1896859D01*
X1449361Y1879361D01*
X1466859Y1867669D01*
X1487500Y1863564D01*
X1508140Y1867669D01*
X1525639Y1879361D01*
X1537330Y1896859D01*
X1541436Y1917500D01*
Y1942500D01*
X1537330Y1963141D01*
X1525639Y1980639D01*
X1508140Y1992331D01*
X1487500Y1996436D01*
X1466859Y1992331D01*
X1449361Y1980639D01*
X1444413Y1973232D01*
X1442741Y1972900D01*
X1439961D01*
X1437393Y1971836D01*
X1434203Y1971202D01*
X1430453Y1975406D01*
X1428898Y1978624D01*
X1509720Y2059446D01*
X1518243Y2056553D01*
D02*
G37*
G36*
X836848Y1845715D02*
X833404Y1837400D01*
X773600D01*
Y1722600D01*
X788653D01*
Y1711347D01*
X688591D01*
X401328Y1998609D01*
Y2269476D01*
X409643Y2272920D01*
X836848Y1845715D01*
D02*
G37*
G36*
X857932Y1409631D02*
X870535Y1401210D01*
X885401Y1398253D01*
X889600D01*
X894359Y1399200D01*
X897139D01*
X897153Y1399205D01*
X902721Y1396573D01*
X906153Y1392369D01*
Y1169012D01*
X897153Y1165284D01*
X784446Y1277991D01*
Y1437100D01*
X830463D01*
X857932Y1409631D01*
D02*
G37*
G36*
X1084655Y1069468D02*
Y798231D01*
X1075655Y794828D01*
X1058119Y804953D01*
X1036297Y810800D01*
X1013705D01*
X991883Y804953D01*
X972319Y793657D01*
X964381Y785720D01*
X955425Y786602D01*
X950970Y793269D01*
X836852Y907387D01*
X824249Y915808D01*
X809383Y918765D01*
X724606D01*
X717771Y925600D01*
X721499Y934600D01*
X827900D01*
Y934599D01*
X832100D01*
Y934600D01*
X942900D01*
Y980478D01*
X947587Y981411D01*
X960189Y989831D01*
X975068Y1004710D01*
X981828Y1014827D01*
X985265Y1015511D01*
X997868Y1023931D01*
X1002537Y1028600D01*
X1062400D01*
Y1079963D01*
X1070715Y1083408D01*
X1084655Y1069468D01*
D02*
G37*
G36*
X1150553Y1529446D02*
Y1363063D01*
X1153511Y1348197D01*
X1161931Y1335595D01*
X1461311Y1036215D01*
X1457867Y1027900D01*
X1400600D01*
Y947100D01*
X1450463D01*
X1484655Y912908D01*
Y810800D01*
X1339201D01*
Y639200D01*
X1484655D01*
Y598231D01*
X1475655Y594828D01*
X1458118Y604953D01*
X1436297Y610800D01*
X1413705D01*
X1391883Y604953D01*
X1372319Y593657D01*
X1356344Y577682D01*
X1345048Y558118D01*
X1339201Y536296D01*
Y513704D01*
X1343336Y498272D01*
X1310410Y465346D01*
X1298232D01*
X1294829Y474346D01*
X1304954Y491882D01*
X1310801Y513704D01*
Y536296D01*
X1304954Y558118D01*
X1293658Y577682D01*
X1277683Y593657D01*
X1258118Y604953D01*
X1236297Y610800D01*
X1213705D01*
X1198273Y606665D01*
X1162348Y642590D01*
Y654555D01*
X1170662Y657999D01*
X1172318Y656343D01*
X1191883Y645047D01*
X1213705Y639200D01*
X1236297D01*
X1258118Y645047D01*
X1277683Y656343D01*
X1293658Y672318D01*
X1304954Y691883D01*
X1310801Y713704D01*
Y736296D01*
X1304954Y758118D01*
X1293658Y777682D01*
X1277683Y793657D01*
X1258118Y804953D01*
X1236297Y810800D01*
X1213705D01*
X1191883Y804953D01*
X1172318Y793657D01*
X1170662Y792001D01*
X1162348Y795445D01*
Y1085558D01*
X1159391Y1100424D01*
X1150970Y1113027D01*
X1063246Y1200750D01*
Y1454867D01*
X1141553Y1533174D01*
X1150553Y1529446D01*
D02*
G37*
%LPC*%
G36*
X1690401Y4980401D02*
X1559601D01*
Y4968781D01*
X1557634Y4968389D01*
X1553600Y4965694D01*
X1551031Y4964630D01*
X1549065Y4962664D01*
X1545031Y4959968D01*
X1542336Y4955934D01*
X1540370Y4953969D01*
X1539306Y4951400D01*
X1536611Y4947366D01*
X1535664Y4942607D01*
X1534600Y4940039D01*
Y4937259D01*
X1533654Y4932500D01*
X1534600Y4927741D01*
Y4924961D01*
X1535664Y4922393D01*
X1536611Y4917634D01*
X1539306Y4913600D01*
X1540370Y4911031D01*
X1542336Y4909065D01*
X1545031Y4905031D01*
X1549065Y4902336D01*
X1551031Y4900370D01*
X1553600Y4899306D01*
X1557634Y4896610D01*
X1559601Y4896219D01*
Y4804601D01*
X1690401D01*
Y4896154D01*
X1707600D01*
Y4846100D01*
X1822400D01*
Y4956900D01*
X1762537D01*
X1756969Y4962469D01*
X1744366Y4970889D01*
X1729500Y4973847D01*
X1690401D01*
Y4980401D01*
D02*
G37*
G36*
X1457539Y4822900D02*
X1442461D01*
X1428531Y4817130D01*
X1417870Y4806469D01*
X1412100Y4792539D01*
Y4777461D01*
X1417870Y4763531D01*
X1428531Y4752870D01*
X1442461Y4747100D01*
X1457539D01*
X1471468Y4752870D01*
X1482130Y4763531D01*
X1487900Y4777461D01*
Y4792539D01*
X1482130Y4806469D01*
X1471468Y4817130D01*
X1457539Y4822900D01*
D02*
G37*
G36*
X542539Y4602900D02*
X527461D01*
X513531Y4597130D01*
X502870Y4586469D01*
X497100Y4572539D01*
Y4557461D01*
X502870Y4543531D01*
X513531Y4532870D01*
X527461Y4527100D01*
X542539D01*
X556469Y4532870D01*
X567130Y4543531D01*
X572900Y4557461D01*
Y4572539D01*
X567130Y4586469D01*
X556469Y4597130D01*
X542539Y4602900D01*
D02*
G37*
G36*
X1432539Y4460400D02*
X1417461D01*
X1403531Y4454630D01*
X1392870Y4443969D01*
X1387100Y4430039D01*
Y4414961D01*
X1392870Y4401031D01*
X1403531Y4390370D01*
X1417461Y4384600D01*
X1432539D01*
X1446469Y4390370D01*
X1457130Y4401031D01*
X1462900Y4414961D01*
Y4430039D01*
X1457130Y4443969D01*
X1446469Y4454630D01*
X1432539Y4460400D01*
D02*
G37*
G36*
X552539Y4255400D02*
X537461D01*
X523531Y4249630D01*
X512870Y4238969D01*
X507100Y4225039D01*
Y4209961D01*
X512870Y4196031D01*
X523531Y4185370D01*
X537461Y4179600D01*
X552539D01*
X566469Y4185370D01*
X577130Y4196031D01*
X582900Y4209961D01*
Y4225039D01*
X577130Y4238969D01*
X566469Y4249630D01*
X552539Y4255400D01*
D02*
G37*
G36*
X147539Y2985400D02*
X132461D01*
X118531Y2979630D01*
X107870Y2968969D01*
X102100Y2955039D01*
Y2939961D01*
X107870Y2926031D01*
X118531Y2915370D01*
X132461Y2909600D01*
X147539D01*
X161469Y2915370D01*
X172130Y2926031D01*
X177900Y2939961D01*
Y2955039D01*
X172130Y2968969D01*
X161469Y2979630D01*
X147539Y2985400D01*
D02*
G37*
G36*
X162427Y2197900D02*
X142574D01*
X123397Y2192762D01*
X106203Y2182835D01*
X92165Y2168797D01*
X82238Y2151603D01*
X77100Y2132427D01*
Y2112573D01*
X82238Y2093397D01*
X92165Y2076203D01*
X106203Y2062165D01*
X123397Y2052238D01*
X142574Y2047100D01*
X162427D01*
X181603Y2052238D01*
X198797Y2062165D01*
X212835Y2076203D01*
X222762Y2093397D01*
X227900Y2112573D01*
Y2132427D01*
X222762Y2151603D01*
X212835Y2168797D01*
X198797Y2182835D01*
X181603Y2192762D01*
X162427Y2197900D01*
D02*
G37*
G36*
X315000Y1741347D02*
X310241Y1740400D01*
X307461D01*
X304893Y1739336D01*
X300134Y1738389D01*
X296100Y1735694D01*
X293531Y1734630D01*
X291565Y1732664D01*
X287531Y1729969D01*
X284836Y1725935D01*
X282870Y1723969D01*
X281806Y1721400D01*
X279110Y1717366D01*
X278620Y1714900D01*
X273600D01*
Y1600100D01*
X384400D01*
Y1714900D01*
X351380D01*
X350889Y1717366D01*
X348194Y1721400D01*
X347130Y1723969D01*
X345164Y1725935D01*
X342468Y1729969D01*
X338434Y1732664D01*
X336468Y1734630D01*
X333900Y1735694D01*
X329866Y1738389D01*
X325107Y1739336D01*
X322539Y1740400D01*
X319759D01*
X315000Y1741347D01*
D02*
G37*
G36*
X47500Y2056346D02*
X42741Y2055400D01*
X39961D01*
X37393Y2054336D01*
X32634Y2053389D01*
X28600Y2050694D01*
X26031Y2049630D01*
X24065Y2047664D01*
X20031Y2044968D01*
X19531Y2044468D01*
X16836Y2040434D01*
X15370Y2038968D01*
X14577Y2037053D01*
X11110Y2031866D01*
X9893Y2025746D01*
X9600Y2025039D01*
Y2024273D01*
X8153Y2017000D01*
Y1829900D01*
X-8400D01*
Y1715100D01*
X26303D01*
X27524Y1708966D01*
X35945Y1696363D01*
X98393Y1633915D01*
X94949Y1625600D01*
X88224D01*
X62384Y1618676D01*
X39216Y1605300D01*
X20300Y1586384D01*
X6924Y1563216D01*
X0Y1537376D01*
Y1510624D01*
X6924Y1484784D01*
X20300Y1461616D01*
X39216Y1442700D01*
X62384Y1429324D01*
X88224Y1422400D01*
X114976D01*
X140816Y1429324D01*
X163984Y1442700D01*
X168739Y1447455D01*
X177053Y1444010D01*
Y1359100D01*
X179075Y1348937D01*
X170780Y1344504D01*
X163984Y1351300D01*
X140816Y1364676D01*
X114976Y1371600D01*
X88224D01*
X62384Y1364676D01*
X39216Y1351300D01*
X20300Y1332384D01*
X6924Y1309216D01*
X0Y1283376D01*
Y1256624D01*
X6924Y1230784D01*
X20300Y1207616D01*
X39216Y1188700D01*
X62384Y1175324D01*
X88224Y1168400D01*
X114976D01*
X140816Y1175324D01*
X163984Y1188700D01*
X182900Y1207616D01*
X196276Y1230784D01*
X203200Y1256624D01*
Y1283376D01*
X196276Y1309216D01*
X193759Y1313576D01*
X200961Y1319102D01*
X250032Y1270031D01*
X254066Y1267336D01*
X256031Y1265370D01*
X258600Y1264306D01*
X262634Y1261611D01*
X267393Y1260664D01*
X269961Y1259600D01*
X272741D01*
X277500Y1258654D01*
X282259Y1259600D01*
X285039D01*
X287607Y1260664D01*
X292366Y1261611D01*
X296400Y1264306D01*
X298969Y1265370D01*
X300935Y1267336D01*
X304969Y1270031D01*
X307664Y1274066D01*
X309630Y1276031D01*
X310694Y1278600D01*
X313390Y1282634D01*
X314336Y1287393D01*
X315400Y1289961D01*
Y1292741D01*
X316347Y1297500D01*
X315400Y1302259D01*
Y1305039D01*
X314336Y1307607D01*
X313390Y1312366D01*
X310694Y1316400D01*
X309630Y1318969D01*
X307664Y1320935D01*
X304969Y1324969D01*
X254747Y1375191D01*
Y1571345D01*
X251789Y1586210D01*
X243369Y1598813D01*
X102400Y1739782D01*
Y1829900D01*
X85846D01*
Y2014986D01*
X86347Y2017500D01*
X85400Y2022259D01*
Y2025039D01*
X84336Y2027607D01*
X83389Y2032366D01*
X80694Y2036400D01*
X79630Y2038968D01*
X77664Y2040934D01*
X74969Y2044968D01*
X70934Y2047664D01*
X68969Y2049630D01*
X66400Y2050694D01*
X62366Y2053389D01*
X57607Y2054336D01*
X55039Y2055400D01*
X52259D01*
X47500Y2056346D01*
D02*
G37*
G36*
X1745000Y1088846D02*
X1740241Y1087900D01*
X1737461D01*
X1734893Y1086836D01*
X1730134Y1085889D01*
X1726100Y1083194D01*
X1723531Y1082130D01*
X1721566Y1080164D01*
X1717531Y1077469D01*
X1714836Y1073434D01*
X1712870Y1071469D01*
X1711806Y1068900D01*
X1709111Y1064866D01*
X1708222Y1060400D01*
X1704600D01*
Y955600D01*
X1785400D01*
Y1060400D01*
X1781778D01*
X1780890Y1064866D01*
X1778194Y1068900D01*
X1777130Y1071469D01*
X1775164Y1073434D01*
X1772469Y1077469D01*
X1768435Y1080164D01*
X1766469Y1082130D01*
X1763900Y1083194D01*
X1759866Y1085889D01*
X1755107Y1086836D01*
X1752539Y1087900D01*
X1749759D01*
X1745000Y1088846D01*
D02*
G37*
G36*
X114976Y1117600D02*
X88224D01*
X62384Y1110676D01*
X39216Y1097300D01*
X20300Y1078384D01*
X6924Y1055216D01*
X0Y1029376D01*
Y1002624D01*
X6924Y976784D01*
X20300Y953616D01*
X39216Y934700D01*
X62384Y921324D01*
X88224Y914400D01*
X114976D01*
X140816Y921324D01*
X163984Y934700D01*
X182900Y953616D01*
X196276Y976784D01*
X203200Y1002624D01*
Y1029376D01*
X196276Y1055216D01*
X182900Y1078384D01*
X163984Y1097300D01*
X140816Y1110676D01*
X114976Y1117600D01*
D02*
G37*
G36*
Y863600D02*
X114300D01*
Y774700D01*
X203200D01*
Y775376D01*
X196276Y801216D01*
X182900Y824384D01*
X163984Y843300D01*
X140816Y856676D01*
X114976Y863600D01*
D02*
G37*
G36*
X88900D02*
X88224D01*
X62384Y856676D01*
X39216Y843300D01*
X20300Y824384D01*
X6924Y801216D01*
X0Y775376D01*
Y774700D01*
X88900D01*
Y863600D01*
D02*
G37*
G36*
X637701Y810424D02*
Y737701D01*
X710424D01*
X704953Y758118D01*
X693657Y777682D01*
X677682Y793657D01*
X658118Y804953D01*
X637701Y810424D01*
D02*
G37*
G36*
X612301Y810424D02*
X591882Y804953D01*
X572318Y793657D01*
X556343Y777682D01*
X545047Y758118D01*
X539577Y737701D01*
X612301D01*
Y810424D01*
D02*
G37*
G36*
X203200Y749300D02*
X114300D01*
Y660400D01*
X114976D01*
X140816Y667324D01*
X163984Y680700D01*
X182900Y699616D01*
X196276Y722784D01*
X203200Y748624D01*
Y749300D01*
D02*
G37*
G36*
X88900D02*
X0D01*
Y748624D01*
X6924Y722784D01*
X20300Y699616D01*
X39216Y680700D01*
X62384Y667324D01*
X88224Y660400D01*
X88900D01*
Y749300D01*
D02*
G37*
G36*
X710424Y712301D02*
X637701D01*
Y639577D01*
X658118Y645047D01*
X677682Y656343D01*
X693657Y672318D01*
X704953Y691883D01*
X710424Y712301D01*
D02*
G37*
G36*
X612301D02*
X539576D01*
X545047Y691883D01*
X556343Y672318D01*
X572318Y656343D01*
X591882Y645047D01*
X612301Y639576D01*
Y712301D01*
D02*
G37*
G36*
X436296Y810800D02*
X413704D01*
X391882Y804953D01*
X372318Y793657D01*
X356343Y777682D01*
X345047Y758118D01*
X339200Y736296D01*
Y713704D01*
X345047Y691883D01*
X356343Y672318D01*
X372318Y656343D01*
X391882Y645047D01*
X413704Y639200D01*
X436296D01*
X458117Y645047D01*
X477682Y656343D01*
X493657Y672318D01*
X504953Y691883D01*
X510800Y713704D01*
Y736296D01*
X504953Y758118D01*
X493657Y777682D01*
X477682Y793657D01*
X458117Y804953D01*
X436296Y810800D01*
D02*
G37*
G36*
X334900Y637400D02*
X220100D01*
Y620846D01*
X207400D01*
X192534Y617889D01*
X179931Y609468D01*
X161308Y590845D01*
X140816Y602676D01*
X114976Y609600D01*
X88224D01*
X62384Y602676D01*
X39216Y589300D01*
X20300Y570384D01*
X6924Y547216D01*
X0Y521376D01*
Y494624D01*
X6924Y468784D01*
X20300Y445616D01*
X39216Y426700D01*
X62384Y413324D01*
X88224Y406400D01*
X114976D01*
X140816Y413324D01*
X163984Y426700D01*
X182900Y445616D01*
X196276Y468784D01*
X203200Y494624D01*
Y521376D01*
X202886Y522549D01*
X211785Y531448D01*
X220100Y528004D01*
Y526600D01*
X334900D01*
X339200Y519381D01*
Y513704D01*
X345047Y491882D01*
X356343Y472318D01*
X372318Y456343D01*
X391882Y445047D01*
X413704Y439200D01*
X436296D01*
X458117Y445047D01*
X477682Y456343D01*
X493657Y472318D01*
X504953Y491882D01*
X510800Y513704D01*
Y536296D01*
X504953Y558118D01*
X493657Y577682D01*
X477682Y593657D01*
X458117Y604953D01*
X436296Y610800D01*
X413704D01*
X391882Y604953D01*
X384086Y600451D01*
X375069Y609468D01*
X362466Y617889D01*
X347600Y620846D01*
X334900D01*
Y637400D01*
D02*
G37*
G36*
X637701Y610423D02*
Y537699D01*
X710424D01*
X704953Y558118D01*
X693657Y577682D01*
X677682Y593657D01*
X658118Y604953D01*
X637701Y610423D01*
D02*
G37*
G36*
X612301Y610424D02*
X591882Y604953D01*
X572318Y593657D01*
X556343Y577682D01*
X545047Y558118D01*
X539576Y537699D01*
X612301D01*
Y610424D01*
D02*
G37*
G36*
X710424Y512299D02*
X637701D01*
Y439576D01*
X658118Y445047D01*
X677682Y456343D01*
X693657Y472318D01*
X704953Y491882D01*
X710424Y512299D01*
D02*
G37*
G36*
X612301D02*
X539577D01*
X545047Y491882D01*
X556343Y472318D01*
X572318Y456343D01*
X591882Y445047D01*
X612301Y439576D01*
Y512299D01*
D02*
G37*
G36*
X1745400Y749400D02*
X1664600D01*
Y644600D01*
X1666153D01*
Y631900D01*
X1669110Y617034D01*
X1677531Y604432D01*
X1733653Y548309D01*
Y530400D01*
X1714600D01*
Y409600D01*
X1825400D01*
Y530400D01*
X1811346D01*
Y564400D01*
X1808389Y579266D01*
X1799968Y591869D01*
X1745400Y646437D01*
Y749400D01*
D02*
G37*
G36*
X1772500Y278847D02*
X1767741Y277900D01*
X1764961D01*
X1762393Y276836D01*
X1757634Y275889D01*
X1753600Y273194D01*
X1751031Y272130D01*
X1749065Y270164D01*
X1745031Y267469D01*
X1742336Y263435D01*
X1740370Y261469D01*
X1739306Y258900D01*
X1736610Y254866D01*
X1736319Y253400D01*
X1712600D01*
Y142600D01*
X1827400D01*
Y253400D01*
X1808681D01*
X1808389Y254866D01*
X1805694Y258900D01*
X1804630Y261469D01*
X1802664Y263435D01*
X1799968Y267469D01*
X1795934Y270164D01*
X1793968Y272130D01*
X1791400Y273194D01*
X1787366Y275889D01*
X1782607Y276836D01*
X1780039Y277900D01*
X1777259D01*
X1772500Y278847D01*
D02*
G37*
G36*
X1573376Y226600D02*
X1572700D01*
Y137700D01*
X1661600D01*
Y138376D01*
X1654676Y164216D01*
X1641300Y187384D01*
X1622384Y206300D01*
X1599216Y219676D01*
X1573376Y226600D01*
D02*
G37*
G36*
X1547300D02*
X1546624D01*
X1520784Y219676D01*
X1497616Y206300D01*
X1478700Y187384D01*
X1465324Y164216D01*
X1458400Y138376D01*
Y137700D01*
X1547300D01*
Y226600D01*
D02*
G37*
G36*
X89927Y230400D02*
X70074D01*
X50897Y225262D01*
X33704Y215335D01*
X19665Y201297D01*
X9738Y184103D01*
X4600Y164927D01*
Y145073D01*
X9738Y125897D01*
X19665Y108703D01*
X33704Y94665D01*
X50897Y84738D01*
X70074Y79600D01*
X89927D01*
X109103Y84738D01*
X126297Y94665D01*
X140335Y108703D01*
X150262Y125897D01*
X155400Y145073D01*
Y164927D01*
X150262Y184103D01*
X140335Y201297D01*
X126297Y215335D01*
X109103Y225262D01*
X89927Y230400D01*
D02*
G37*
G36*
X1661600Y112300D02*
X1572700D01*
Y23400D01*
X1573376D01*
X1599216Y30324D01*
X1622384Y43700D01*
X1641300Y62616D01*
X1654676Y85784D01*
X1661600Y111624D01*
Y112300D01*
D02*
G37*
G36*
X1547300D02*
X1458400D01*
Y111624D01*
X1465324Y85784D01*
X1478700Y62616D01*
X1497616Y43700D01*
X1520784Y30324D01*
X1546624Y23400D01*
X1547300D01*
Y112300D01*
D02*
G37*
G36*
X1319376Y226600D02*
X1292624D01*
X1266784Y219676D01*
X1243616Y206300D01*
X1224700Y187384D01*
X1211324Y164216D01*
X1204400Y138376D01*
Y111624D01*
X1211324Y85784D01*
X1224700Y62616D01*
X1243616Y43700D01*
X1266784Y30324D01*
X1292624Y23400D01*
X1319376D01*
X1345216Y30324D01*
X1368384Y43700D01*
X1387300Y62616D01*
X1400676Y85784D01*
X1407600Y111624D01*
Y138376D01*
X1400676Y164216D01*
X1387300Y187384D01*
X1368384Y206300D01*
X1345216Y219676D01*
X1319376Y226600D01*
D02*
G37*
G36*
X1065376D02*
X1038624D01*
X1012784Y219676D01*
X989616Y206300D01*
X970700Y187384D01*
X957324Y164216D01*
X950400Y138376D01*
Y111624D01*
X957324Y85784D01*
X970700Y62616D01*
X989616Y43700D01*
X1012784Y30324D01*
X1038624Y23400D01*
X1065376D01*
X1091216Y30324D01*
X1114384Y43700D01*
X1133300Y62616D01*
X1146676Y85784D01*
X1153600Y111624D01*
Y138376D01*
X1146676Y164216D01*
X1133300Y187384D01*
X1114384Y206300D01*
X1091216Y219676D01*
X1065376Y226600D01*
D02*
G37*
G36*
X811376D02*
X784624D01*
X758784Y219676D01*
X735616Y206300D01*
X716700Y187384D01*
X703324Y164216D01*
X696400Y138376D01*
Y111624D01*
X703324Y85784D01*
X716700Y62616D01*
X735616Y43700D01*
X758784Y30324D01*
X784624Y23400D01*
X811376D01*
X837216Y30324D01*
X860384Y43700D01*
X879300Y62616D01*
X892676Y85784D01*
X899600Y111624D01*
Y138376D01*
X892676Y164216D01*
X879300Y187384D01*
X860384Y206300D01*
X837216Y219676D01*
X811376Y226600D01*
D02*
G37*
G36*
X1462900Y2285400D02*
X1342100D01*
Y2266778D01*
X1337634Y2265890D01*
X1333600Y2263194D01*
X1331031Y2262130D01*
X1329065Y2260164D01*
X1325031Y2257469D01*
X1322336Y2253435D01*
X1320370Y2251469D01*
X1319306Y2248900D01*
X1316611Y2244866D01*
X1315664Y2240107D01*
X1314600Y2237539D01*
Y2234759D01*
X1313653Y2230000D01*
X1314600Y2225241D01*
Y2222461D01*
X1315664Y2219893D01*
X1316611Y2215134D01*
X1319306Y2211100D01*
X1320370Y2208532D01*
X1322336Y2206566D01*
X1325031Y2202532D01*
X1329065Y2199836D01*
X1331031Y2197870D01*
X1333600Y2196806D01*
X1337634Y2194111D01*
X1342100Y2193222D01*
Y2174600D01*
X1462900D01*
Y2285400D01*
D02*
G37*
%LPD*%
D10*
X1275000Y1387500D02*
D03*
Y1537500D02*
D03*
X67500Y4855000D02*
D03*
Y5005000D02*
D03*
D11*
X1405000Y2662500D02*
D03*
Y2752500D02*
D03*
X1095000Y2585000D02*
D03*
Y2675000D02*
D03*
Y2422500D02*
D03*
Y2332500D02*
D03*
X1507500Y2477500D02*
D03*
Y2387500D02*
D03*
X1770000Y380000D02*
D03*
Y470000D02*
D03*
X887500Y1085000D02*
D03*
Y995000D02*
D03*
X772500Y1085000D02*
D03*
Y995000D02*
D03*
X945000Y1497500D02*
D03*
Y1587500D02*
D03*
X830000Y1497500D02*
D03*
Y1587500D02*
D03*
D12*
X584000Y2525000D02*
D03*
Y2430000D02*
D03*
Y2335000D02*
D03*
X835000D02*
D03*
Y2430000D02*
D03*
Y2525000D02*
D03*
D13*
X1487500Y1930000D02*
D03*
X1297500D02*
D03*
X1487500Y1690000D02*
D03*
X1392500D02*
D03*
D14*
X1297500D02*
D03*
D15*
X924999Y4339999D02*
D03*
X760000D02*
D03*
X1089999D02*
D03*
Y4505000D02*
D03*
X924999Y4504999D02*
D03*
X759999Y4174999D02*
D03*
X924999D02*
D03*
X1089999D02*
D03*
D16*
X759999Y4504999D02*
D03*
D17*
X1625000Y4339999D02*
D03*
X224998Y3744999D02*
D03*
X224998Y4935001D02*
D03*
Y4850000D02*
D03*
Y4765000D02*
D03*
X224998Y4680000D02*
D03*
Y4595000D02*
D03*
Y4510000D02*
D03*
Y4425000D02*
D03*
Y4339999D02*
D03*
Y4254999D02*
D03*
Y4170000D02*
D03*
Y4085000D02*
D03*
Y4000000D02*
D03*
Y3915000D02*
D03*
Y3829999D02*
D03*
X1625001Y3744999D02*
D03*
X1625001Y4935001D02*
D03*
Y4850000D02*
D03*
Y4765000D02*
D03*
X1625001Y4680000D02*
D03*
Y4595000D02*
D03*
Y4510000D02*
D03*
Y4425000D02*
D03*
Y4254999D02*
D03*
Y4170000D02*
D03*
Y4085000D02*
D03*
Y4000000D02*
D03*
Y3915000D02*
D03*
Y3829999D02*
D03*
D18*
X924999Y5040000D02*
D03*
Y3639999D02*
D03*
X1520000Y5040001D02*
D03*
X329998Y5040001D02*
D03*
X414998D02*
D03*
X499998D02*
D03*
X584999Y5040001D02*
D03*
X669999D02*
D03*
X754999D02*
D03*
X839999D02*
D03*
X1010000D02*
D03*
X1094999D02*
D03*
X1179999D02*
D03*
X1264999D02*
D03*
X1349999D02*
D03*
X1435000D02*
D03*
X1520000Y3639999D02*
D03*
X329998Y3639999D02*
D03*
X414999D02*
D03*
X499999D02*
D03*
X584999Y3639999D02*
D03*
X669999D02*
D03*
X754999D02*
D03*
X839999D02*
D03*
X1010000D02*
D03*
X1094999D02*
D03*
X1179999D02*
D03*
X1265000D02*
D03*
X1350000D02*
D03*
X1435000D02*
D03*
D19*
X224999Y5040000D02*
D03*
X224999Y3639999D02*
D03*
X1625000Y3639999D02*
D03*
X1625000Y5040000D02*
D03*
D20*
X1630000Y2550000D02*
D03*
X1720000D02*
D03*
X1492500Y2230000D02*
D03*
X1402500D02*
D03*
X935000Y2682500D02*
D03*
X845000D02*
D03*
X1505000Y1577500D02*
D03*
X1415000D02*
D03*
X667500Y2842500D02*
D03*
X577500D02*
D03*
X890000D02*
D03*
X800000D02*
D03*
D21*
X1357000Y987500D02*
D03*
X1453000D02*
D03*
D22*
X1612500Y1278500D02*
D03*
Y1182500D02*
D03*
X1745000Y912000D02*
D03*
Y1008000D02*
D03*
X1705000Y793000D02*
D03*
Y697000D02*
D03*
X1405000Y2862000D02*
D03*
Y2958000D02*
D03*
X457500Y3246500D02*
D03*
Y3342500D02*
D03*
X895000Y3055500D02*
D03*
Y2959500D02*
D03*
X775000Y3055500D02*
D03*
Y2959500D02*
D03*
D23*
X1637000Y2725000D02*
D03*
X1725000D02*
D03*
X665000Y2725000D02*
D03*
X577000D02*
D03*
X1686000Y3197500D02*
D03*
X1774000D02*
D03*
X1686000Y3310000D02*
D03*
X1774000D02*
D03*
X829000Y1780000D02*
D03*
X741000D02*
D03*
X329000Y1657500D02*
D03*
X241000D02*
D03*
X135000Y1772500D02*
D03*
X47000D02*
D03*
D24*
X277500Y670000D02*
D03*
Y582000D02*
D03*
X1765000Y4813500D02*
D03*
Y4901500D02*
D03*
X1392500Y2387500D02*
D03*
Y2475500D02*
D03*
X1005000Y996000D02*
D03*
Y1084000D02*
D03*
X1060000Y1685000D02*
D03*
Y1773000D02*
D03*
X1770000Y110000D02*
D03*
Y198000D02*
D03*
D25*
X1592500Y3045000D02*
D03*
Y3090000D02*
D03*
D26*
X1662500Y3067500D02*
D03*
D27*
X80000Y155000D02*
D03*
X152500Y2122500D02*
D03*
D28*
X1558894Y3042126D02*
X1561569Y3044800D01*
X1592300D02*
X1592500Y3045000D01*
X1561569Y3044800D02*
X1592300D01*
X945000Y1492500D02*
Y1497500D01*
X913299Y1460799D02*
X945000Y1492500D01*
X889600Y1437900D02*
X912500Y1460799D01*
X913299D01*
X492500Y2430000D02*
X601267D01*
X822700Y2665200D02*
X840000Y2682500D01*
X845000D01*
X822700Y2641400D02*
Y2665200D01*
X739600Y2787101D02*
X794999Y2842500D01*
X739600Y2784759D02*
Y2787101D01*
X794999Y2842500D02*
X800000D01*
X457500Y3342500D02*
Y3382500D01*
X389400Y3424399D02*
X584999Y3619998D01*
X389400Y3181408D02*
X472500Y3098308D01*
X389400Y3181408D02*
Y3424399D01*
X517100Y2657900D02*
Y3134539D01*
X523100Y3140539D02*
Y3473099D01*
X459800Y3205455D02*
Y3244200D01*
X517100Y3134539D02*
X523100Y3140539D01*
Y3473099D02*
X669999Y3619998D01*
X457500Y3246500D02*
X459800Y3244200D01*
X517100Y2657900D02*
X562500Y2612500D01*
X173100Y3276900D02*
X290280Y3159720D01*
Y3156279D02*
Y3159720D01*
X1057000Y1770000D02*
X1060000Y1773000D01*
X1015000Y1770000D02*
X1057000D01*
X1686000Y3197500D02*
Y3310000D01*
X1587500Y3170000D02*
X1658500D01*
X1686000Y3195500D02*
Y3197500D01*
X1668700Y3178200D02*
X1686000Y3195500D01*
X1666700Y3178200D02*
X1668700D01*
X1658500Y3170000D02*
X1666700Y3178200D01*
X1572500Y4932500D02*
X1622500D01*
X1625001Y4935001D01*
X1625002Y4935000D01*
X1625001Y3830000D02*
X1677500D01*
X1437500Y3642499D02*
Y3695000D01*
X1350000Y3639999D02*
X1350000Y3639999D01*
Y3692500D01*
X327500Y3637500D02*
X329998Y3639999D01*
X327500Y3587500D02*
Y3637500D01*
X224999Y3745000D02*
X277500D01*
X224998Y3744999D02*
X224999Y3745000D01*
X227497Y3827500D02*
X277500D01*
X224998Y3829999D02*
X227497Y3827500D01*
X224998Y4000000D02*
X224998Y4000000D01*
X277500D01*
X224998Y3915000D02*
X224999Y3915000D01*
X275000D01*
X870000Y2797960D02*
Y2825200D01*
X1352500Y2230000D02*
X1402500D01*
X1370000Y2627500D02*
X1382700Y2640200D01*
X1275040Y2627500D02*
X1370000D01*
X1195000Y2527500D02*
X1275040D01*
X1095000Y2422500D02*
Y2427500D01*
X1195000Y2527500D01*
X1221900Y2166764D02*
Y2359400D01*
X1317500Y2455000D01*
X1189400Y1915959D02*
X1279600Y2006159D01*
X1221900Y2166764D02*
X1279600Y2109063D01*
X1022500Y2540000D02*
X1022500D01*
X1007500Y2525000D02*
X1022500Y2540000D01*
X1022500D02*
X1045200Y2562700D01*
X835000Y2525000D02*
X1007500D01*
X1045200Y2562700D02*
X1077700D01*
X1095000Y2580000D01*
X1091250Y2588750D02*
X1095000Y2585000D01*
X584000Y2525000D02*
X835000D01*
X812500Y1672500D02*
X825000Y1685000D01*
X672500Y1672500D02*
X812500D01*
X825000Y1685000D02*
X827500Y1682500D01*
Y1687500D02*
Y1778500D01*
Y1590000D02*
Y1682500D01*
X825000Y1685000D02*
X827500Y1687500D01*
X362482Y1982518D02*
X672500Y1672500D01*
X1405500Y2862500D02*
X1432500D01*
X1405000Y2862000D02*
X1405500Y2862500D01*
X67500Y5020000D02*
X77500Y5010000D01*
X122500D01*
X315000Y1672079D02*
X329000Y1658079D01*
X315000Y1672079D02*
Y1702500D01*
X1392500Y2475500D02*
Y2525000D01*
X995000Y1092000D02*
X1003000Y1084000D01*
X995000Y1092000D02*
Y1132500D01*
X975000D02*
X995000D01*
X945000Y1162500D02*
X975000Y1132500D01*
X945000Y1162500D02*
Y1497500D01*
X875000Y1105000D02*
Y1132500D01*
X711200Y1247651D02*
Y1460820D01*
X770000Y1092500D02*
X775000Y1097500D01*
Y1183851D01*
X745600Y1261900D02*
X875000Y1132500D01*
X745600Y1261900D02*
Y1548458D01*
X711200Y1247651D02*
X775000Y1183851D01*
X695121Y1476898D02*
X711200Y1460820D01*
X830000Y1492500D02*
X885401Y1437099D01*
X830000Y1492500D02*
Y1497500D01*
X885401Y1437099D02*
X889600D01*
X1482500Y1935000D02*
X1487500Y1930000D01*
X1447500Y1935000D02*
X1482500D01*
X1745000Y1008000D02*
Y1050000D01*
X1742700Y909700D02*
X1745000Y912000D01*
X1742700Y897700D02*
Y909700D01*
X1705000Y631900D02*
X1772500Y564400D01*
Y472500D02*
Y564400D01*
X1705000Y631900D02*
Y697000D01*
X1770000Y327500D02*
Y380000D01*
X1772500Y200500D02*
Y240000D01*
X1770000Y198000D02*
X1772500Y200500D01*
X1770000Y60000D02*
Y110000D01*
X827500Y1590000D02*
X830000Y1587500D01*
X1005000Y970000D02*
Y996000D01*
X47000Y1772500D02*
X63413Y1756087D01*
Y1723831D02*
X215900Y1571345D01*
X63413Y1723831D02*
Y1756087D01*
X772500Y995000D02*
X887500D01*
X584000Y2335000D02*
X835000D01*
X895000Y3055500D02*
Y3067500D01*
X1025000Y3197500D01*
Y3197500D01*
Y3397500D01*
X608100Y1185000D02*
X610400D01*
X1557901Y1115901D02*
Y1139599D01*
X1612500Y1170500D02*
Y1182500D01*
X1557901Y1115901D02*
X1612500Y1170500D01*
X1557901Y420401D02*
Y1115901D01*
X1315000Y987500D02*
X1357000D01*
X1523501Y928999D02*
Y1028962D01*
X1453000Y987500D02*
X1465000D01*
X1523501Y928999D01*
Y484200D02*
Y928999D01*
X947600Y1036521D02*
X962479Y1051400D01*
X904800Y1017300D02*
X932721D01*
X962479Y1051400D02*
X970400D01*
X947600Y1032179D02*
Y1036521D01*
X932721Y1017300D02*
X947600Y1032179D01*
X1003000Y1084000D02*
X1005000D01*
X970400Y1051400D02*
X1003000Y1084000D01*
X887500Y1000000D02*
X904800Y1017300D01*
X887500Y995000D02*
Y1000000D01*
X1015600Y2603739D02*
Y2606900D01*
X774448Y3056052D02*
X775000Y3055500D01*
X774448Y3056052D02*
Y3121133D01*
X666250Y2726250D02*
X667500Y2727500D01*
X665000Y2725000D02*
X666250Y2726250D01*
Y2841250D02*
X667500Y2842500D01*
X1447126Y309626D02*
X1557901Y420401D01*
X728626Y309626D02*
X1447126D01*
X532500Y367500D02*
X1406801D01*
X290000Y125000D02*
X532500Y367500D01*
X1406801D02*
X1523501Y484200D01*
X544000Y125000D02*
X544000D01*
X728626Y309626D01*
X1465000Y1232500D02*
X1557901Y1139599D01*
X980000Y2970000D02*
X1125750Y3115750D01*
X980000Y2790000D02*
Y2970000D01*
X1010000Y3551800D02*
X1125750Y3436051D01*
Y3115750D02*
Y3436051D01*
X1010000Y3551800D02*
Y3639999D01*
X1380000Y3109759D02*
Y3504998D01*
X1265000Y3619998D02*
X1380000Y3504998D01*
X1265000Y3619998D02*
Y3639999D01*
X1323500Y2746100D02*
Y3476498D01*
X1187299Y3612698D02*
X1323500Y3476498D01*
Y2746100D02*
X1337100Y2732500D01*
X1770000Y470000D02*
X1772500Y472500D01*
X1840600Y1812179D02*
Y3755959D01*
X1575000Y1546579D02*
X1840600Y1812179D01*
X1684821Y3911738D02*
X1840600Y3755959D01*
X1020000Y2430000D02*
X1087500D01*
X1095000Y2422500D01*
X925533Y2335000D02*
X1020000Y2429468D01*
Y2430000D01*
X835000Y2335000D02*
X925533D01*
X1486900Y3027159D02*
Y3240341D01*
Y3027159D02*
X1504400Y3009659D01*
Y2742181D02*
Y3009659D01*
X1427500Y2992500D02*
X1450000D01*
X1504400Y2742181D02*
X1575000Y2671581D01*
X1486900Y3240341D02*
X1690400Y3443840D01*
X1405000Y2970000D02*
X1427500Y2992500D01*
X1405000Y2752500D02*
Y2862000D01*
X1179999Y3639999D02*
X1187299Y3632699D01*
Y3612698D02*
Y3632699D01*
X980000Y2790000D02*
X1072700Y2697300D01*
X774448Y3121133D02*
X825000Y3171685D01*
Y3197500D02*
Y3397500D01*
Y3171685D02*
Y3197500D01*
X1077700Y2697300D02*
X1095000Y2680000D01*
Y2675000D02*
Y2680000D01*
X1072700Y2697300D02*
X1077700D01*
X1662500Y3067500D02*
X1715000D01*
X1715000Y3067500D01*
X1020000Y2332500D02*
X1095000D01*
X1012500Y2340000D02*
X1020000Y2332500D01*
X810435Y2432500D02*
X912500D01*
X807935Y2430000D02*
X810435Y2432500D01*
X1628262Y3911738D02*
X1684821D01*
X1625001Y3915000D02*
X1628262Y3911738D01*
X923501Y471499D02*
X968500Y426500D01*
X923501Y471499D02*
Y765800D01*
X968500Y426500D02*
X1326501D01*
X1575000Y1360000D02*
Y1546579D01*
X1490000Y1687500D02*
X1530000D01*
X1487500Y1690000D02*
X1490000Y1687500D01*
X1527300Y1594800D02*
Y1599800D01*
X1530000Y1602500D01*
Y1687500D01*
X1505000Y1577500D02*
X1510000D01*
X1527300Y1594800D01*
X1386836Y1695663D02*
X1392500Y1690000D01*
X1365000Y1969663D02*
X1575000Y2179663D01*
X1365000Y1900000D02*
Y1969663D01*
X1569600Y2590521D02*
X1575000Y2595921D01*
Y2179663D02*
Y2504079D01*
X1569600Y2509479D02*
Y2590521D01*
X1575000Y2595921D02*
Y2671581D01*
X1569600Y2509479D02*
X1575000Y2504079D01*
X1690400Y3443840D02*
Y3699600D01*
X1645001Y3744999D02*
X1690400Y3699600D01*
X1625001Y3744999D02*
X1645001D01*
X1189400Y1363063D02*
Y1915959D01*
X1562500Y3112900D02*
Y3145000D01*
X1507500Y2477500D02*
Y2660921D01*
X1438221Y2730200D02*
X1507500Y2660921D01*
X1189400Y1363063D02*
X1523501Y1028962D01*
X1279600Y2006159D02*
Y2109063D01*
X594398Y1171297D02*
X608100Y1185000D01*
X594398Y994036D02*
X708515Y879918D01*
X594398Y994036D02*
Y1171297D01*
X708515Y879918D02*
X809383D01*
X923501Y765800D01*
X1326501Y426500D02*
X1425001Y525000D01*
X1123501Y626500D02*
Y1085558D01*
Y626500D02*
X1225001Y525000D01*
X669999Y3619998D02*
Y3639999D01*
X472500Y2619636D02*
Y3098308D01*
Y2619636D02*
X482500Y2609636D01*
X330000Y3192159D02*
Y3450000D01*
Y3192159D02*
X431900Y3090259D01*
X584999Y3619998D02*
Y3639999D01*
X431900Y2365499D02*
X968999Y1828400D01*
X1102521D02*
X1117400Y1813521D01*
Y1563958D02*
Y1813521D01*
X1024400Y1470958D02*
X1117400Y1563958D01*
X1024400Y1184660D02*
Y1470958D01*
Y1184660D02*
X1123501Y1085558D01*
X968999Y1828400D02*
X1102521D01*
X431900Y2365499D02*
Y3090259D01*
X397500Y2340000D02*
X932500Y1805000D01*
Y1670000D02*
Y1805000D01*
X330000Y3450000D02*
X499999Y3619999D01*
Y3639999D01*
X173100Y3276900D02*
Y3277500D01*
X222500Y3637500D02*
X224999Y3639999D01*
X215900Y1359100D02*
Y1571345D01*
Y1359100D02*
X277500Y1297500D01*
X362482Y1982518D02*
Y2962316D01*
X737002Y1780000D02*
X742500Y1774502D01*
X397500Y2340000D02*
Y2977500D01*
X932500Y1670000D02*
X945000Y1657500D01*
X947500Y1685000D02*
X1060000D01*
X945000Y1587500D02*
Y1657500D01*
X932500Y1670000D02*
X947500Y1685000D01*
X122500Y3252500D02*
X397500Y2977500D01*
X328082Y1965976D02*
X745600Y1548458D01*
X293682Y1948818D02*
Y2933818D01*
X53700Y3222449D02*
X328082Y2948067D01*
Y1965976D02*
Y2948067D01*
X88100Y3236698D02*
X362482Y2962316D01*
X19300Y3208200D02*
X293682Y2933818D01*
X293682Y1948818D02*
X644400Y1598100D01*
X122500Y3252500D02*
Y4257502D01*
X19300Y3208200D02*
Y4409302D01*
X204998Y4595000D02*
X224998D01*
X88100Y3236698D02*
Y4308102D01*
X19300Y4409302D02*
X204998Y4595000D01*
X53700Y3222449D02*
Y4358702D01*
X88100Y4308102D02*
X204998Y4425000D01*
X53700Y4358702D02*
X204998Y4510000D01*
X644400Y1506540D02*
Y1598100D01*
X674041Y1476898D02*
X695121D01*
X644400Y1506540D02*
X674041Y1476898D01*
X47000Y2017000D02*
X47500Y2017500D01*
X47000Y1772500D02*
Y2017000D01*
X204998Y4510000D02*
X224998D01*
X122500Y4257502D02*
X204998Y4339999D01*
X1562500Y3145000D02*
X1587500Y3170000D01*
X940000Y2682500D02*
X1015600Y2606900D01*
X935000Y2682500D02*
X940000D01*
X1095000Y2580000D02*
Y2585000D01*
X1052000Y125000D02*
X1073945Y146945D01*
X1275000Y1387500D02*
X1292348Y1404848D01*
X1392700Y1462700D02*
Y1560200D01*
X1334848Y1404848D02*
X1392700Y1462700D01*
X1292348Y1404848D02*
X1334848D01*
X1409999Y1577500D02*
X1415000D01*
X1392700Y1560200D02*
X1409999Y1577500D01*
X1297500Y1677500D02*
Y1690000D01*
X1272500Y1570000D02*
Y1652500D01*
X1297500Y1677500D01*
X1256836Y1911836D02*
X1283826D01*
X1297500Y1925510D02*
Y1930000D01*
X1283826Y1911836D02*
X1297500Y1925510D01*
X1240000Y1895000D02*
X1256836Y1911836D01*
X204998Y4425000D02*
X224998D01*
X173100Y4170000D02*
X224998D01*
X173100Y4085000D02*
X224998D01*
X204998Y4339999D02*
X224998D01*
X875000Y1105000D02*
X885000Y1095000D01*
X68721Y4801279D02*
X105000Y4765000D01*
X68721Y4801279D02*
Y4868779D01*
X105000Y4765000D02*
X224998D01*
X67500Y4870000D02*
X68721Y4868779D01*
X155200Y4672700D02*
X217698D01*
X224998Y4680000D01*
X135000Y4652500D02*
X155200Y4672700D01*
X190000Y1710500D02*
Y1715500D01*
X135000Y1770500D02*
Y1772500D01*
X241000Y1657500D02*
Y1659500D01*
X222499Y5037500D02*
X224999Y5040000D01*
X222499Y5037500D02*
X224998Y5035001D01*
X101600Y711200D02*
X115000Y697800D01*
Y707400D01*
X924999Y3569060D02*
Y3639999D01*
Y3569060D02*
X925779Y3568280D01*
X887300Y2842500D02*
X890000D01*
X870000Y2825200D02*
X887300Y2842500D01*
X587500Y2825000D02*
X587500Y2825000D01*
X587000Y2824500D02*
X587500Y2825000D01*
X1763000Y4813500D02*
X1765000D01*
X1625002Y4935000D02*
X1729500D01*
X1763000Y4901500D02*
X1765000D01*
X1729500Y4935000D02*
X1763000Y4901500D01*
X347600Y582000D02*
X404600Y525000D01*
X277500Y582000D02*
X347600D01*
X404600Y525000D02*
X425000D01*
X115000Y517500D02*
X142900D01*
X207400Y582000D02*
X277500D01*
X142900Y517500D02*
X207400Y582000D01*
X1625001Y4680000D02*
X1625001Y4680001D01*
Y4765000D02*
X1637701D01*
Y4680000D02*
X1645001Y4687300D01*
X1625001Y4680000D02*
X1637701D01*
Y4765000D02*
X1645001Y4757700D01*
X1605001Y4680000D02*
X1625001D01*
X1597701Y4687300D02*
X1605001Y4680000D01*
Y4765000D02*
X1625001D01*
X1597701Y4757700D02*
X1605001Y4765000D01*
X1625000Y4765000D02*
X1625001Y4765000D01*
X1625000Y4680001D02*
X1625001Y4680000D01*
X224998Y4765000D02*
X232298Y4772300D01*
X252298D02*
X277498Y4797500D01*
X307500D01*
X232298Y4772300D02*
X252298D01*
X1545000Y4327500D02*
X1550199Y4332699D01*
X1617700D02*
X1625000Y4339999D01*
X1550199Y4332699D02*
X1617700D01*
X1622501Y4252500D02*
X1625001Y4254999D01*
X1547500Y4252500D02*
X1622501D01*
X1094999Y3639999D02*
Y3659999D01*
X1294401Y3859400D01*
X1399400D01*
X1343280Y3800780D02*
X1415779D01*
X1265000Y3722500D02*
X1343280Y3800780D01*
X1435000Y3639999D02*
X1437500Y3642499D01*
X1265000Y3639999D02*
X1265000Y3639999D01*
Y3722500D01*
X224998Y4254999D02*
X224999Y4255000D01*
X282500D01*
X550000Y4727500D02*
Y4895000D01*
X332500Y4510000D02*
X550000Y4727500D01*
X224998Y4510000D02*
X332500D01*
X300000Y4595000D02*
X302500Y4597500D01*
X224998Y4595000D02*
X300000D01*
X1625000Y5040000D02*
X1627500Y5037500D01*
X1625000Y5040000D02*
X1625000Y5040000D01*
X924999Y4504999D02*
Y4505000D01*
X1089999Y4504999D02*
X1089999Y4505000D01*
X759999Y4174999D02*
X760000Y4175000D01*
X1089999Y4174999D02*
X1089999Y4175000D01*
X924999Y4339999D02*
X924999D01*
X1405000Y2747500D02*
X1422300Y2730200D01*
X1438221D01*
X1405000Y2747500D02*
Y2752500D01*
X1506500Y2476500D02*
X1507500Y2477500D01*
X1392500Y2475500D02*
X1393500Y2476500D01*
X1562500Y3112900D02*
X1585400Y3090000D01*
X1592500D01*
X1405000Y2958000D02*
Y2970000D01*
X1382700Y2640200D02*
X1387700D01*
X1405000Y2657500D02*
Y2662500D01*
X1387700Y2640200D02*
X1405000Y2657500D01*
X1636938Y2106062D02*
Y2543062D01*
X1637000Y2725000D02*
Y2899000D01*
Y2557000D02*
Y2725000D01*
D29*
X1625001Y3829999D02*
X1625001Y3830000D01*
X1720000Y2550000D02*
X1725000Y2555000D01*
X1720000Y2550000D02*
X1725000Y2545000D01*
D30*
X1393500Y2476500D02*
X1506500D01*
D31*
X1636938Y2106062D02*
X1672500Y2070500D01*
X1630000Y2550000D02*
X1636938Y2543062D01*
X1637000Y2899000D02*
X1672500Y2934500D01*
X1630000Y2550000D02*
X1637000Y2557000D01*
D32*
X101600Y1016000D02*
D03*
Y762000D02*
D03*
Y508000D02*
D03*
Y1270000D02*
D03*
Y1524000D02*
D03*
X798000Y125000D02*
D03*
X1052000D02*
D03*
X1306000D02*
D03*
X1560000D02*
D03*
X544000D02*
D03*
X290000D02*
D03*
D33*
X425000Y525000D02*
D03*
X625000D02*
D03*
X425000Y725000D02*
D03*
X625000D02*
D03*
X825001Y525000D02*
D03*
X1025001D02*
D03*
X1225001D02*
D03*
X1425001D02*
D03*
X825001Y725000D02*
D03*
X1025001D02*
D03*
X1225001D02*
D03*
X825000Y3197500D02*
D03*
X1025000D02*
D03*
X1225000D02*
D03*
X625000Y3397500D02*
D03*
X825000D02*
D03*
X1025000D02*
D03*
X1225000D02*
D03*
D34*
X1425001Y725000D02*
D03*
X625000Y3197500D02*
D03*
D35*
X1672500Y2934500D02*
D03*
Y2070500D02*
D03*
D36*
X1136500Y2934500D02*
D03*
Y2070500D02*
D03*
D37*
X1697100Y1482700D02*
D03*
X160400Y2341900D02*
D03*
D38*
X1558894Y3042126D02*
D03*
X822700Y2641400D02*
D03*
X492500Y2430000D02*
D03*
X1770000Y3150000D02*
D03*
X425000Y2105000D02*
D03*
X165000Y1955000D02*
D03*
X695000Y2242500D02*
D03*
X747500Y2660000D02*
D03*
X640000Y2635000D02*
D03*
X697500D02*
D03*
X290280Y3156279D02*
D03*
X739600Y2784759D02*
D03*
X457500Y3382500D02*
D03*
X459800Y3205455D02*
D03*
X572200Y2676501D02*
D03*
X1015000Y1770000D02*
D03*
X1704059Y3385941D02*
D03*
X1450000Y4785000D02*
D03*
X1600000Y3432500D02*
D03*
X535000Y4565000D02*
D03*
X1322500Y4300000D02*
D03*
X1435000Y4995000D02*
D03*
X842500Y4997500D02*
D03*
X1572500Y4932500D02*
D03*
X1677500Y3830000D02*
D03*
X1437500Y3695000D02*
D03*
X1350000Y3692500D02*
D03*
X327500Y3587500D02*
D03*
X277500Y3745000D02*
D03*
Y3827500D02*
D03*
Y4000000D02*
D03*
X275000Y3915000D02*
D03*
X255000Y4935000D02*
D03*
X140000Y2947500D02*
D03*
X870000Y2797960D02*
D03*
X1352500Y2230000D02*
D03*
X1275040Y2627500D02*
D03*
X1275040Y2527500D02*
D03*
X1172137Y2375655D02*
D03*
X1272500Y2220000D02*
D03*
X1015600Y2540000D02*
D03*
X825000Y1685000D02*
D03*
X1432500Y2862500D02*
D03*
X122500Y5010000D02*
D03*
X545000Y4217500D02*
D03*
X315000Y1702500D02*
D03*
X1392500Y2525000D02*
D03*
X995000Y1132500D02*
D03*
X875000D02*
D03*
X775000Y1130000D02*
D03*
X889600Y1437099D02*
D03*
X1447500Y1935000D02*
D03*
X1745000Y1050000D02*
D03*
X1705000Y835000D02*
D03*
X1772500Y517500D02*
D03*
X1770000Y327500D02*
D03*
X1772500Y240000D02*
D03*
X1770000Y60000D02*
D03*
X1005000Y970000D02*
D03*
X1380000Y1732500D02*
D03*
X1717500Y4725000D02*
D03*
X985000Y3055000D02*
D03*
X610400Y1185000D02*
D03*
X430000Y1172500D02*
D03*
X1682500Y1290000D02*
D03*
X1315000Y987500D02*
D03*
X1015600Y2603739D02*
D03*
X759999Y4504999D02*
D03*
X1465000Y1232500D02*
D03*
X837500Y2937500D02*
D03*
X1172500Y3055000D02*
D03*
X1380000Y3107500D02*
D03*
X1790000Y1920000D02*
D03*
X1439121Y2578379D02*
D03*
X1020000Y2430000D02*
D03*
X1450000Y2992500D02*
D03*
X1264400Y2785000D02*
D03*
Y2837389D02*
D03*
X1777500Y3065000D02*
D03*
X1715000Y3067500D02*
D03*
X1790001Y3549058D02*
D03*
X1012500Y2340000D02*
D03*
X912500Y2432500D02*
D03*
X1575000Y1360000D02*
D03*
X1507500Y2380000D02*
D03*
Y2317500D02*
D03*
X1725000Y2775000D02*
D03*
X1508626Y1764393D02*
D03*
X1530000Y1687500D02*
D03*
X1365000Y1900000D02*
D03*
X1138800Y1485000D02*
D03*
X1562500Y3145000D02*
D03*
X1291361Y2168861D02*
D03*
X1317500Y2455000D02*
D03*
X1337100Y2732500D02*
D03*
X562500Y2612500D02*
D03*
X482500Y2609636D02*
D03*
X222500Y3637500D02*
D03*
X173100Y3277500D02*
D03*
X130000Y2637500D02*
D03*
X190000Y1715000D02*
D03*
X277500Y1297500D02*
D03*
Y1477500D02*
D03*
X692500Y1780000D02*
D03*
X932500Y1670000D02*
D03*
X47500Y2017500D02*
D03*
X1322500Y4422500D02*
D03*
X357500Y4217500D02*
D03*
X173100Y4170000D02*
D03*
Y4085000D02*
D03*
X1240000Y1895000D02*
D03*
X695000Y1527499D02*
D03*
X1075000Y1365000D02*
D03*
X644998Y1014995D02*
D03*
X1204998Y1014996D02*
D03*
X22500Y4640000D02*
D03*
X135000Y4652500D02*
D03*
X925779Y3568280D02*
D03*
X1420000Y4922500D02*
D03*
X672500Y4995000D02*
D03*
X1010000D02*
D03*
X1180000Y4992500D02*
D03*
X1350000Y4995000D02*
D03*
X500000Y4997500D02*
D03*
X1625000Y3639999D02*
D03*
X1625000Y5040000D02*
D03*
X224998Y5035001D02*
D03*
X307500Y4797500D02*
D03*
X1547500Y4252500D02*
D03*
X1545000Y4327500D02*
D03*
X1399400Y3859400D02*
D03*
X1415779Y3800780D02*
D03*
X1425000Y4422500D02*
D03*
X452500D02*
D03*
X282500Y4255000D02*
D03*
X302500Y4597500D02*
D03*
X550000Y4895000D02*
D03*
X759999Y4174999D02*
D03*
X924999D02*
D03*
X1089999Y4175000D02*
D03*
Y4339999D02*
D03*
X924999D02*
D03*
X760000D02*
D03*
X924999Y4505000D02*
D03*
X1089999D02*
D03*
X1725000Y2600000D02*
D03*
%TF.MD5,8db3bbb4ee8ecb774d5a997023f41c6b*%
M02*
