%TF.GenerationSoftware,Altium Limited,Altium Designer,24.6.1 (21)*%
G04 Layer_Physical_Order=2*
G04 Layer_Color=36540*
%FSLAX45Y45*%
%MOMM*%
%TF.SameCoordinates,189501FC-2F9B-42A0-9727-E85274D5E768*%
%TF.FilePolarity,Positive*%
%TF.FileFunction,Copper,L2,Inr,Signal*%
%TF.Part,Single*%
G01*
G75*
%TA.AperFunction,Conductor*%
%ADD28C,0.25400*%
%ADD31C,0.12700*%
%TA.AperFunction,ComponentPad*%
%ADD32C,1.52400*%
%ADD33C,1.20800*%
%ADD34R,1.20800X1.20800*%
%ADD35O,2.60000X1.10000*%
%ADD36O,2.10000X1.10000*%
%TA.AperFunction,ViaPad*%
%ADD37C,1.52400*%
%ADD38C,0.25000*%
G36*
X1875000Y3531724D02*
X1866000Y3527996D01*
X1817470Y3576526D01*
X1813436Y3579222D01*
X1811470Y3581188D01*
X1808901Y3582252D01*
X1804867Y3584947D01*
X1800108Y3585894D01*
X1797540Y3586958D01*
X1794760D01*
X1790001Y3587904D01*
X1785243Y3586958D01*
X1782463D01*
X1779895Y3585894D01*
X1775136Y3584947D01*
X1771102Y3582252D01*
X1768533Y3581188D01*
X1766567Y3579222D01*
X1762533Y3576526D01*
X1759837Y3572492D01*
X1757872Y3570526D01*
X1756808Y3567958D01*
X1754112Y3563924D01*
X1753165Y3559165D01*
X1752102Y3556596D01*
Y3553817D01*
X1751155Y3549058D01*
X1752102Y3544299D01*
Y3541519D01*
X1753165Y3538951D01*
X1754112Y3534192D01*
X1756808Y3530158D01*
X1757872Y3527589D01*
X1759837Y3525623D01*
X1762533Y3521589D01*
X1803653Y3480468D01*
Y3126091D01*
X1781409Y3103846D01*
X1777500D01*
X1772741Y3102900D01*
X1769961D01*
X1767393Y3101836D01*
X1762634Y3100889D01*
X1758600Y3098194D01*
X1756031Y3097130D01*
X1754065Y3095164D01*
X1750031Y3092469D01*
X1740979Y3095120D01*
X1736469Y3099630D01*
X1722539Y3105400D01*
X1707461D01*
X1701500Y3102931D01*
X1692500Y3108945D01*
Y3112500D01*
X1596326D01*
X1592599Y3121500D01*
X1594630Y3123531D01*
X1600400Y3137461D01*
Y3152539D01*
X1594630Y3166469D01*
X1583969Y3177130D01*
X1570039Y3182900D01*
X1554961D01*
X1541031Y3177130D01*
X1530370Y3166469D01*
X1524600Y3152539D01*
Y3137461D01*
X1530370Y3123531D01*
X1541031Y3112870D01*
X1554961Y3107100D01*
X1562500D01*
Y3080026D01*
X1551356D01*
X1537426Y3074256D01*
X1526764Y3063594D01*
X1520994Y3049664D01*
Y3034587D01*
X1526764Y3020657D01*
X1537426Y3009996D01*
X1544964Y3006873D01*
X1546320Y2996570D01*
X1540158Y2991842D01*
X1527271Y2975047D01*
X1523885Y2966872D01*
X1489730D01*
X1484135Y2975872D01*
X1487900Y2984961D01*
Y3000039D01*
X1482130Y3013969D01*
X1471468Y3024630D01*
X1457539Y3030400D01*
X1442461D01*
X1428531Y3024630D01*
X1417870Y3013969D01*
X1412100Y3000039D01*
Y2984961D01*
X1415865Y2975872D01*
X1410270Y2966872D01*
X1260115D01*
X1256729Y2975047D01*
X1243842Y2991842D01*
X1227047Y3004729D01*
X1207489Y3012830D01*
X1196683Y3014253D01*
X1194958Y3019728D01*
X1194691Y3023593D01*
X1204630Y3033531D01*
X1210400Y3047461D01*
Y3062539D01*
X1204630Y3076469D01*
X1193969Y3087130D01*
X1180039Y3092900D01*
X1164961D01*
X1151031Y3087130D01*
X1140370Y3076469D01*
X1134600Y3062539D01*
Y3047461D01*
X1140370Y3033531D01*
X1149308Y3024593D01*
X1147123Y3016526D01*
X1146549Y3015593D01*
X1086500D01*
X1065511Y3012830D01*
X1045953Y3004729D01*
X1029158Y2991842D01*
X1016271Y2975047D01*
X1008170Y2955488D01*
X1005406Y2934500D01*
X1008170Y2913511D01*
X1016271Y2893953D01*
X1029158Y2877158D01*
X1045953Y2864271D01*
X1065511Y2856170D01*
X1086500Y2853406D01*
X1186500D01*
X1207489Y2856170D01*
X1227047Y2864271D01*
X1243842Y2877158D01*
X1256729Y2893953D01*
X1260115Y2902128D01*
X1406770D01*
X1407856Y2900218D01*
X1409529Y2893128D01*
X1400370Y2883969D01*
X1394600Y2870039D01*
Y2854961D01*
X1400370Y2841031D01*
X1411031Y2830370D01*
X1424961Y2824600D01*
X1440039D01*
X1453969Y2830370D01*
X1464630Y2841031D01*
X1470400Y2854961D01*
Y2870039D01*
X1464630Y2883969D01*
X1455471Y2893128D01*
X1457144Y2900218D01*
X1458230Y2902128D01*
X1523885D01*
X1527271Y2893953D01*
X1540158Y2877158D01*
X1556953Y2864271D01*
X1576511Y2856170D01*
X1597500Y2853406D01*
X1747500D01*
X1768489Y2856170D01*
X1788047Y2864271D01*
X1804842Y2877158D01*
X1817729Y2893953D01*
X1825830Y2913511D01*
X1828594Y2934500D01*
X1825830Y2955488D01*
X1817729Y2975047D01*
X1804842Y2991842D01*
X1788047Y3004729D01*
X1768489Y3012830D01*
X1747500Y3015593D01*
X1703785D01*
X1696558Y3024181D01*
X1696700Y3025110D01*
X1705640Y3030355D01*
X1707461Y3029600D01*
X1722539D01*
X1736469Y3035370D01*
X1739489Y3038391D01*
X1750032Y3037531D01*
X1754065Y3034836D01*
X1756031Y3032870D01*
X1758600Y3031806D01*
X1762634Y3029111D01*
X1767393Y3028164D01*
X1769961Y3027100D01*
X1772741D01*
X1777500Y3026153D01*
X1797500D01*
X1812366Y3029111D01*
X1824969Y3037531D01*
X1866000Y3078563D01*
X1875000Y3074835D01*
Y2391863D01*
X1866000Y2388937D01*
X1649090Y2605847D01*
X1636487Y2614268D01*
X1621621Y2617225D01*
X1439121D01*
X1434362Y2616278D01*
X1431582D01*
X1429014Y2615215D01*
X1424255Y2614268D01*
X1420221Y2611573D01*
X1417652Y2610509D01*
X1415687Y2608543D01*
X1411652Y2605847D01*
X1408957Y2601813D01*
X1406991Y2599847D01*
X1405927Y2597279D01*
X1403232Y2593244D01*
X1402285Y2588486D01*
X1401221Y2585917D01*
Y2583138D01*
X1400275Y2578379D01*
X1401221Y2573620D01*
Y2571215D01*
X1401154Y2570739D01*
X1397273Y2564951D01*
X1394177Y2562900D01*
X1384961D01*
X1371031Y2557130D01*
X1360370Y2546469D01*
X1354600Y2532539D01*
Y2517461D01*
X1360370Y2503531D01*
X1371031Y2492870D01*
X1384961Y2487100D01*
X1400039D01*
X1413968Y2492870D01*
X1424630Y2503531D01*
X1430400Y2517461D01*
Y2532164D01*
X1430474Y2532688D01*
X1431459Y2534662D01*
X1437076Y2539939D01*
X1439121Y2539532D01*
X1605531D01*
X1801754Y2343309D01*
Y2140386D01*
X1793682Y2136405D01*
X1788047Y2140729D01*
X1768489Y2148830D01*
X1747500Y2151594D01*
X1597500D01*
X1576511Y2148830D01*
X1556953Y2140729D01*
X1540158Y2127842D01*
X1527271Y2111047D01*
X1523885Y2102872D01*
X1260115D01*
X1256729Y2111047D01*
X1243842Y2127842D01*
X1227047Y2140729D01*
X1207489Y2148830D01*
X1186500Y2151594D01*
X1086500D01*
X1065511Y2148830D01*
X1045953Y2140729D01*
X1029158Y2127842D01*
X1016271Y2111047D01*
X1008170Y2091489D01*
X1005406Y2070500D01*
X1008170Y2049512D01*
X1016271Y2029953D01*
X1029158Y2013158D01*
X1045953Y2000271D01*
X1065511Y1992170D01*
X1086500Y1989406D01*
X1186500D01*
X1207489Y1992170D01*
X1227047Y2000271D01*
X1243842Y2013158D01*
X1256729Y2029953D01*
X1260115Y2038128D01*
X1523885D01*
X1527271Y2029953D01*
X1540158Y2013158D01*
X1556953Y2000271D01*
X1576511Y1992170D01*
X1597500Y1989406D01*
X1747500D01*
X1768489Y1992170D01*
X1788047Y2000271D01*
X1793682Y2004595D01*
X1801754Y2000614D01*
Y1986691D01*
X1762531Y1947469D01*
X1759836Y1943435D01*
X1757870Y1941469D01*
X1756806Y1938900D01*
X1754111Y1934866D01*
X1753164Y1930107D01*
X1752100Y1927539D01*
Y1924759D01*
X1751153Y1920000D01*
X1752100Y1915241D01*
Y1912461D01*
X1753164Y1909893D01*
X1754111Y1905134D01*
X1756806Y1901100D01*
X1757870Y1898531D01*
X1759836Y1896565D01*
X1762531Y1892531D01*
X1766565Y1889836D01*
X1768531Y1887870D01*
X1771100Y1886806D01*
X1775134Y1884111D01*
X1779893Y1883164D01*
X1782461Y1882100D01*
X1785241D01*
X1790000Y1881153D01*
X1794759Y1882100D01*
X1797539D01*
X1800107Y1883164D01*
X1804866Y1884111D01*
X1808900Y1886806D01*
X1811469Y1887870D01*
X1813435Y1889836D01*
X1817469Y1892531D01*
X1866000Y1941063D01*
X1875000Y1938137D01*
Y-25000D01*
X-25000D01*
Y5100000D01*
X131133D01*
X136687Y5091687D01*
X145089Y5086073D01*
X154999Y5084102D01*
X1694999D01*
X1704910Y5086073D01*
X1713313Y5091688D01*
X1718867Y5100000D01*
X1875000D01*
Y3531724D01*
D02*
G37*
%LPC*%
G36*
X130039Y5047900D02*
X114961D01*
X101031Y5042130D01*
X90370Y5031468D01*
X84600Y5017539D01*
Y5002461D01*
X90370Y4988531D01*
X101031Y4977870D01*
X114961Y4972100D01*
X130039D01*
X143968Y4977870D01*
X154630Y4988531D01*
X160400Y5002461D01*
Y5017539D01*
X154630Y5031468D01*
X143968Y5042130D01*
X130039Y5047900D01*
D02*
G37*
G36*
X1580039Y4970400D02*
X1564961D01*
X1551031Y4964630D01*
X1540370Y4953969D01*
X1534600Y4940039D01*
Y4924961D01*
X1540370Y4911031D01*
X1551031Y4900370D01*
X1564961Y4894600D01*
X1580039D01*
X1593969Y4900370D01*
X1604630Y4911031D01*
X1610400Y4924961D01*
Y4940039D01*
X1604630Y4953969D01*
X1593969Y4964630D01*
X1580039Y4970400D01*
D02*
G37*
G36*
X557539Y4932900D02*
X542461D01*
X528531Y4927130D01*
X517870Y4916469D01*
X512100Y4902539D01*
Y4887461D01*
X517870Y4873532D01*
X528531Y4862870D01*
X542461Y4857100D01*
X557539D01*
X571469Y4862870D01*
X582130Y4873532D01*
X587900Y4887461D01*
Y4902539D01*
X582130Y4916469D01*
X571469Y4927130D01*
X557539Y4932900D01*
D02*
G37*
G36*
X315039Y4835400D02*
X299961D01*
X286031Y4829630D01*
X275370Y4818969D01*
X269600Y4805039D01*
Y4789961D01*
X275370Y4776031D01*
X286031Y4765370D01*
X299961Y4759600D01*
X315039D01*
X328969Y4765370D01*
X339630Y4776031D01*
X345400Y4789961D01*
Y4805039D01*
X339630Y4818969D01*
X328969Y4829630D01*
X315039Y4835400D01*
D02*
G37*
G36*
X1457539Y4822900D02*
X1442461D01*
X1428531Y4817130D01*
X1417870Y4806469D01*
X1412100Y4792539D01*
Y4777461D01*
X1417870Y4763531D01*
X1428531Y4752870D01*
X1442461Y4747100D01*
X1457539D01*
X1471468Y4752870D01*
X1482130Y4763531D01*
X1487900Y4777461D01*
Y4792539D01*
X1482130Y4806469D01*
X1471468Y4817130D01*
X1457539Y4822900D01*
D02*
G37*
G36*
X142539Y4690400D02*
X127461D01*
X113531Y4684630D01*
X102870Y4673969D01*
X97100Y4660039D01*
Y4644961D01*
X102870Y4631031D01*
X113531Y4620370D01*
X127461Y4614600D01*
X142539D01*
X156469Y4620370D01*
X167130Y4631031D01*
X172900Y4644961D01*
Y4660039D01*
X167130Y4673969D01*
X156469Y4684630D01*
X142539Y4690400D01*
D02*
G37*
G36*
X310039Y4635400D02*
X294961D01*
X281031Y4629630D01*
X270370Y4618969D01*
X264600Y4605039D01*
Y4589961D01*
X270370Y4576031D01*
X281031Y4565370D01*
X294961Y4559600D01*
X310039D01*
X323969Y4565370D01*
X334630Y4576031D01*
X340400Y4589961D01*
Y4605039D01*
X334630Y4618969D01*
X323969Y4629630D01*
X310039Y4635400D01*
D02*
G37*
G36*
X542539Y4602900D02*
X527461D01*
X513531Y4597130D01*
X502870Y4586469D01*
X497100Y4572539D01*
Y4557461D01*
X502870Y4543531D01*
X513531Y4532870D01*
X527461Y4527100D01*
X542539D01*
X556469Y4532870D01*
X567130Y4543531D01*
X572900Y4557461D01*
Y4572539D01*
X567130Y4586469D01*
X556469Y4597130D01*
X542539Y4602900D01*
D02*
G37*
G36*
X1432539Y4460400D02*
X1417461D01*
X1403531Y4454630D01*
X1392870Y4443969D01*
X1387100Y4430039D01*
Y4414961D01*
X1392870Y4401031D01*
X1403531Y4390370D01*
X1417461Y4384600D01*
X1432539D01*
X1446469Y4390370D01*
X1457130Y4401031D01*
X1462900Y4414961D01*
Y4430039D01*
X1457130Y4443969D01*
X1446469Y4454630D01*
X1432539Y4460400D01*
D02*
G37*
G36*
X290039Y4292900D02*
X274961D01*
X261031Y4287130D01*
X250370Y4276469D01*
X244600Y4262539D01*
Y4247461D01*
X250370Y4233532D01*
X261031Y4222870D01*
X274961Y4217100D01*
X290039D01*
X303969Y4222870D01*
X314630Y4233532D01*
X320400Y4247461D01*
Y4262539D01*
X314630Y4276469D01*
X303969Y4287130D01*
X290039Y4292900D01*
D02*
G37*
G36*
X1552539Y4365400D02*
X1537461D01*
X1523531Y4359630D01*
X1512870Y4348969D01*
X1507100Y4335039D01*
Y4319961D01*
X1512870Y4306032D01*
X1523531Y4295370D01*
X1525987Y4294353D01*
X1526031Y4284630D01*
X1515370Y4273969D01*
X1509600Y4260039D01*
Y4244961D01*
X1515370Y4231031D01*
X1526031Y4220370D01*
X1539961Y4214600D01*
X1555039D01*
X1568969Y4220370D01*
X1579630Y4231031D01*
X1585400Y4244961D01*
Y4260039D01*
X1579630Y4273969D01*
X1568969Y4284630D01*
X1566513Y4285647D01*
X1566469Y4295370D01*
X1577130Y4306032D01*
X1582900Y4319961D01*
Y4335039D01*
X1577130Y4348969D01*
X1566469Y4359630D01*
X1552539Y4365400D01*
D02*
G37*
G36*
X552539Y4255400D02*
X537461D01*
X523531Y4249630D01*
X512870Y4238969D01*
X507100Y4225039D01*
Y4209961D01*
X512870Y4196031D01*
X523531Y4185370D01*
X537461Y4179600D01*
X552539D01*
X566469Y4185370D01*
X577130Y4196031D01*
X582900Y4209961D01*
Y4225039D01*
X577130Y4238969D01*
X566469Y4249630D01*
X552539Y4255400D01*
D02*
G37*
G36*
X180639Y4207900D02*
X165561D01*
X151631Y4202130D01*
X140970Y4191469D01*
X135200Y4177539D01*
Y4162461D01*
X140970Y4148531D01*
X151631Y4137870D01*
X165561Y4132100D01*
X180639D01*
X194569Y4137870D01*
X205230Y4148531D01*
X211000Y4162461D01*
Y4177539D01*
X205230Y4191469D01*
X194569Y4202130D01*
X180639Y4207900D01*
D02*
G37*
G36*
Y4122900D02*
X165561D01*
X151631Y4117130D01*
X140970Y4106468D01*
X135200Y4092538D01*
Y4077461D01*
X140970Y4063531D01*
X151631Y4052870D01*
X165561Y4047100D01*
X180639D01*
X194569Y4052870D01*
X205230Y4063531D01*
X211000Y4077461D01*
Y4092538D01*
X205230Y4106468D01*
X194569Y4117130D01*
X180639Y4122900D01*
D02*
G37*
G36*
X285039Y4037900D02*
X269961D01*
X256031Y4032130D01*
X245370Y4021468D01*
X239600Y4007539D01*
Y3992461D01*
X245370Y3978531D01*
X256031Y3967870D01*
X269961Y3962100D01*
X285039D01*
X298969Y3967870D01*
X309630Y3978531D01*
X315400Y3992461D01*
Y4007539D01*
X309630Y4021468D01*
X298969Y4032130D01*
X285039Y4037900D01*
D02*
G37*
G36*
X282539Y3952900D02*
X267461D01*
X253531Y3947130D01*
X242870Y3936469D01*
X237100Y3922539D01*
Y3907461D01*
X242870Y3893531D01*
X253531Y3882870D01*
X267461Y3877100D01*
X282539D01*
X296469Y3882870D01*
X307130Y3893531D01*
X312900Y3907461D01*
Y3922539D01*
X307130Y3936469D01*
X296469Y3947130D01*
X282539Y3952900D01*
D02*
G37*
G36*
X1685039Y3867900D02*
X1669961D01*
X1656031Y3862130D01*
X1645370Y3851469D01*
X1639600Y3837539D01*
Y3822461D01*
X1645370Y3808531D01*
X1656031Y3797870D01*
X1669961Y3792100D01*
X1685039D01*
X1698969Y3797870D01*
X1709630Y3808531D01*
X1715400Y3822461D01*
Y3837539D01*
X1709630Y3851469D01*
X1698969Y3862130D01*
X1685039Y3867900D01*
D02*
G37*
G36*
X1406939Y3897300D02*
X1391861D01*
X1377931Y3891530D01*
X1367270Y3880869D01*
X1361500Y3866939D01*
Y3851861D01*
X1367270Y3837932D01*
X1377931Y3827270D01*
X1381144Y3816198D01*
X1377880Y3808318D01*
Y3793241D01*
X1383650Y3779311D01*
X1394311Y3768650D01*
X1408241Y3762880D01*
X1423318D01*
X1437248Y3768650D01*
X1447909Y3779311D01*
X1453679Y3793241D01*
Y3808318D01*
X1447909Y3822248D01*
X1437248Y3832909D01*
X1434036Y3843982D01*
X1437300Y3851861D01*
Y3866939D01*
X1431530Y3880869D01*
X1420869Y3891530D01*
X1406939Y3897300D01*
D02*
G37*
G36*
X285039Y3865400D02*
X269961D01*
X256031Y3859630D01*
X245370Y3848969D01*
X239600Y3835039D01*
Y3819961D01*
X245370Y3806032D01*
X256031Y3795370D01*
X266290Y3791121D01*
Y3781379D01*
X256031Y3777130D01*
X245370Y3766468D01*
X239600Y3752539D01*
Y3737461D01*
X245370Y3723531D01*
X256031Y3712870D01*
X269961Y3707100D01*
X285039D01*
X298969Y3712870D01*
X309630Y3723531D01*
X315400Y3737461D01*
Y3752539D01*
X309630Y3766468D01*
X298969Y3777130D01*
X288710Y3781379D01*
Y3791121D01*
X298969Y3795370D01*
X309630Y3806032D01*
X315400Y3819961D01*
Y3835039D01*
X309630Y3848969D01*
X298969Y3859630D01*
X285039Y3865400D01*
D02*
G37*
G36*
X1445039Y3732900D02*
X1429961D01*
X1416031Y3727130D01*
X1405370Y3716469D01*
X1399600Y3702539D01*
Y3687461D01*
X1405370Y3673531D01*
X1416031Y3662870D01*
X1429961Y3657100D01*
X1445039D01*
X1458969Y3662870D01*
X1469630Y3673531D01*
X1475400Y3687461D01*
Y3702539D01*
X1469630Y3716469D01*
X1458969Y3727130D01*
X1445039Y3732900D01*
D02*
G37*
G36*
X1357539Y3730400D02*
X1342461D01*
X1328532Y3724630D01*
X1317870Y3713969D01*
X1312100Y3700039D01*
Y3684961D01*
X1317870Y3671032D01*
X1328532Y3660370D01*
X1342461Y3654600D01*
X1357539D01*
X1371469Y3660370D01*
X1382130Y3671032D01*
X1387900Y3684961D01*
Y3700039D01*
X1382130Y3713969D01*
X1371469Y3724630D01*
X1357539Y3730400D01*
D02*
G37*
G36*
X335039Y3625400D02*
X319961D01*
X306031Y3619630D01*
X295370Y3608969D01*
X289600Y3595039D01*
Y3579961D01*
X295370Y3566031D01*
X306031Y3555370D01*
X319961Y3549600D01*
X335039D01*
X348969Y3555370D01*
X359630Y3566031D01*
X365400Y3579961D01*
Y3595039D01*
X359630Y3608969D01*
X348969Y3619630D01*
X335039Y3625400D01*
D02*
G37*
G36*
X933318Y3606179D02*
X918241D01*
X904311Y3600410D01*
X893649Y3589748D01*
X887880Y3575818D01*
Y3560741D01*
X893649Y3546811D01*
X904311Y3536150D01*
X918241Y3530380D01*
X933318D01*
X947248Y3536150D01*
X957909Y3546811D01*
X963679Y3560741D01*
Y3575818D01*
X957909Y3589748D01*
X947248Y3600410D01*
X933318Y3606179D01*
D02*
G37*
G36*
X1237700Y3482924D02*
Y3410200D01*
X1310424D01*
X1304953Y3430618D01*
X1293657Y3450183D01*
X1277682Y3466157D01*
X1258117Y3477453D01*
X1237700Y3482924D01*
D02*
G37*
G36*
X1212300D02*
X1191882Y3477453D01*
X1172317Y3466157D01*
X1156343Y3450183D01*
X1145047Y3430618D01*
X1139576Y3410200D01*
X1212300D01*
Y3482924D01*
D02*
G37*
G36*
X1607539Y3470400D02*
X1592461D01*
X1578532Y3464630D01*
X1567870Y3453969D01*
X1562100Y3440039D01*
Y3424961D01*
X1567870Y3411032D01*
X1578532Y3400370D01*
X1592461Y3394600D01*
X1607539D01*
X1621469Y3400370D01*
X1632130Y3411032D01*
X1637900Y3424961D01*
Y3440039D01*
X1632130Y3453969D01*
X1621469Y3464630D01*
X1607539Y3470400D01*
D02*
G37*
G36*
X465039Y3420400D02*
X449961D01*
X436031Y3414630D01*
X425370Y3403969D01*
X419600Y3390039D01*
Y3374961D01*
X425370Y3361031D01*
X436031Y3350370D01*
X449961Y3344600D01*
X465039D01*
X478969Y3350370D01*
X489630Y3361031D01*
X495400Y3374961D01*
Y3390039D01*
X489630Y3403969D01*
X478969Y3414630D01*
X465039Y3420400D01*
D02*
G37*
G36*
X1310424Y3384800D02*
X1237700D01*
Y3312076D01*
X1258117Y3317547D01*
X1277682Y3328843D01*
X1293657Y3344818D01*
X1304953Y3364383D01*
X1310424Y3384800D01*
D02*
G37*
G36*
X1212300D02*
X1139576D01*
X1145047Y3364383D01*
X1156343Y3344818D01*
X1172317Y3328843D01*
X1191882Y3317547D01*
X1212300Y3312076D01*
Y3384800D01*
D02*
G37*
G36*
X1036296Y3483300D02*
X1013704D01*
X991882Y3477453D01*
X972317Y3466157D01*
X956343Y3450183D01*
X945047Y3430618D01*
X939200Y3408796D01*
Y3386204D01*
X945047Y3364383D01*
X956343Y3344818D01*
X972317Y3328843D01*
X991882Y3317547D01*
X1013704Y3311700D01*
X1036296D01*
X1058117Y3317547D01*
X1077682Y3328843D01*
X1093657Y3344818D01*
X1104953Y3364383D01*
X1110800Y3386204D01*
Y3408796D01*
X1104953Y3430618D01*
X1093657Y3450183D01*
X1077682Y3466157D01*
X1058117Y3477453D01*
X1036296Y3483300D01*
D02*
G37*
G36*
X836296D02*
X813704D01*
X791882Y3477453D01*
X772317Y3466157D01*
X756343Y3450183D01*
X745047Y3430618D01*
X739200Y3408796D01*
Y3386204D01*
X745047Y3364383D01*
X756343Y3344818D01*
X772317Y3328843D01*
X791882Y3317547D01*
X813704Y3311700D01*
X836296D01*
X858117Y3317547D01*
X877682Y3328843D01*
X893657Y3344818D01*
X904953Y3364383D01*
X910800Y3386204D01*
Y3408796D01*
X904953Y3430618D01*
X893657Y3450183D01*
X877682Y3466157D01*
X858117Y3477453D01*
X836296Y3483300D01*
D02*
G37*
G36*
X636296D02*
X613704D01*
X591882Y3477453D01*
X572317Y3466157D01*
X556343Y3450183D01*
X545047Y3430618D01*
X539200Y3408796D01*
Y3386204D01*
X545047Y3364383D01*
X556343Y3344818D01*
X572317Y3328843D01*
X591882Y3317547D01*
X613704Y3311700D01*
X636296D01*
X658117Y3317547D01*
X677682Y3328843D01*
X693657Y3344818D01*
X704953Y3364383D01*
X710800Y3386204D01*
Y3408796D01*
X704953Y3430618D01*
X693657Y3450183D01*
X677682Y3466157D01*
X658117Y3477453D01*
X636296Y3483300D01*
D02*
G37*
G36*
X180639Y3315400D02*
X165561D01*
X151631Y3309630D01*
X140970Y3298969D01*
X135200Y3285039D01*
Y3269961D01*
X140970Y3256031D01*
X151631Y3245370D01*
X165561Y3239600D01*
X180639D01*
X194569Y3245370D01*
X205230Y3256031D01*
X211000Y3269961D01*
Y3285039D01*
X205230Y3298969D01*
X194569Y3309630D01*
X180639Y3315400D01*
D02*
G37*
G36*
X1237700Y3282924D02*
Y3210200D01*
X1310424D01*
X1304953Y3230618D01*
X1293657Y3250182D01*
X1277682Y3266157D01*
X1258117Y3277453D01*
X1237700Y3282924D01*
D02*
G37*
G36*
X1212300D02*
X1191882Y3277453D01*
X1172317Y3266157D01*
X1156343Y3250182D01*
X1145047Y3230618D01*
X1139576Y3210200D01*
X1212300D01*
Y3282924D01*
D02*
G37*
G36*
X297818Y3194179D02*
X282741D01*
X268811Y3188409D01*
X258150Y3177748D01*
X252380Y3163818D01*
Y3148741D01*
X258150Y3134811D01*
X268811Y3124149D01*
X282741Y3118380D01*
X297818D01*
X311748Y3124149D01*
X322410Y3134811D01*
X328179Y3148741D01*
Y3163818D01*
X322410Y3177748D01*
X311748Y3188409D01*
X297818Y3194179D01*
D02*
G37*
G36*
X1310424Y3184800D02*
X1237700D01*
Y3112076D01*
X1258117Y3117547D01*
X1277682Y3128843D01*
X1293657Y3144818D01*
X1304953Y3164383D01*
X1310424Y3184800D01*
D02*
G37*
G36*
X1212300D02*
X1139576D01*
X1145047Y3164383D01*
X1156343Y3144818D01*
X1172317Y3128843D01*
X1191882Y3117547D01*
X1212300Y3112076D01*
Y3184800D01*
D02*
G37*
G36*
X1036296Y3283300D02*
X1013704D01*
X991882Y3277453D01*
X972317Y3266157D01*
X956343Y3250182D01*
X945047Y3230618D01*
X939200Y3208796D01*
Y3186204D01*
X945047Y3164383D01*
X956343Y3144818D01*
X972317Y3128843D01*
X991882Y3117547D01*
X1013704Y3111700D01*
X1036296D01*
X1058117Y3117547D01*
X1077682Y3128843D01*
X1093657Y3144818D01*
X1104953Y3164383D01*
X1110800Y3186204D01*
Y3208796D01*
X1104953Y3230618D01*
X1093657Y3250182D01*
X1077682Y3266157D01*
X1058117Y3277453D01*
X1036296Y3283300D01*
D02*
G37*
G36*
X836296D02*
X813704D01*
X791882Y3277453D01*
X772317Y3266157D01*
X756343Y3250182D01*
X745047Y3230618D01*
X739200Y3208796D01*
Y3186204D01*
X745047Y3164383D01*
X756343Y3144818D01*
X772317Y3128843D01*
X791882Y3117547D01*
X813704Y3111700D01*
X836296D01*
X858117Y3117547D01*
X877682Y3128843D01*
X893657Y3144818D01*
X904953Y3164383D01*
X910800Y3186204D01*
Y3208796D01*
X904953Y3230618D01*
X893657Y3250182D01*
X877682Y3266157D01*
X858117Y3277453D01*
X836296Y3283300D01*
D02*
G37*
G36*
X710800D02*
X539200D01*
Y3111700D01*
X710800D01*
Y3283300D01*
D02*
G37*
G36*
X1387539Y3145400D02*
X1372461D01*
X1358531Y3139630D01*
X1347870Y3128969D01*
X1342100Y3115039D01*
Y3099961D01*
X1347870Y3086031D01*
X1358531Y3075370D01*
X1372461Y3069600D01*
X1387539D01*
X1401469Y3075370D01*
X1412130Y3086031D01*
X1417900Y3099961D01*
Y3115039D01*
X1412130Y3128969D01*
X1401469Y3139630D01*
X1387539Y3145400D01*
D02*
G37*
G36*
X992539Y3092900D02*
X977461D01*
X963531Y3087130D01*
X952870Y3076469D01*
X947100Y3062539D01*
Y3047461D01*
X952870Y3033531D01*
X963531Y3022870D01*
X977461Y3017100D01*
X992539D01*
X1006469Y3022870D01*
X1017130Y3033531D01*
X1022900Y3047461D01*
Y3062539D01*
X1017130Y3076469D01*
X1006469Y3087130D01*
X992539Y3092900D01*
D02*
G37*
G36*
X147539Y2985400D02*
X132461D01*
X118531Y2979630D01*
X107870Y2968969D01*
X102100Y2955039D01*
Y2939961D01*
X107870Y2926031D01*
X118531Y2915370D01*
X132461Y2909600D01*
X147539D01*
X161469Y2915370D01*
X172130Y2926031D01*
X177900Y2939961D01*
Y2955039D01*
X172130Y2968969D01*
X161469Y2979630D01*
X147539Y2985400D01*
D02*
G37*
G36*
X877539Y2835860D02*
X862461D01*
X848531Y2830090D01*
X837870Y2819429D01*
X832100Y2805499D01*
Y2790421D01*
X837870Y2776492D01*
X848531Y2765830D01*
X862461Y2760060D01*
X877539D01*
X891469Y2765830D01*
X902130Y2776492D01*
X907900Y2790421D01*
Y2805499D01*
X902130Y2819429D01*
X891469Y2830090D01*
X877539Y2835860D01*
D02*
G37*
G36*
X747139Y2822659D02*
X732062D01*
X718132Y2816889D01*
X707470Y2806228D01*
X701700Y2792298D01*
Y2777220D01*
X707470Y2763290D01*
X718132Y2752629D01*
X732062Y2746859D01*
X747139D01*
X761069Y2752629D01*
X771730Y2763290D01*
X777500Y2777220D01*
Y2792298D01*
X771730Y2806228D01*
X761069Y2816889D01*
X747139Y2822659D01*
D02*
G37*
G36*
X1344639Y2770400D02*
X1329561D01*
X1315631Y2764630D01*
X1304970Y2753969D01*
X1299200Y2740039D01*
Y2724961D01*
X1304970Y2711031D01*
X1315631Y2700370D01*
X1329561Y2694600D01*
X1344639D01*
X1358569Y2700370D01*
X1369230Y2711031D01*
X1375000Y2724961D01*
Y2740039D01*
X1369230Y2753969D01*
X1358569Y2764630D01*
X1344639Y2770400D01*
D02*
G37*
G36*
X755039Y2697900D02*
X739961D01*
X726031Y2692130D01*
X715370Y2681469D01*
X710828Y2670502D01*
X705039Y2672900D01*
X689961D01*
X676031Y2667130D01*
X668750Y2659849D01*
X661469Y2667130D01*
X647539Y2672900D01*
X632461D01*
X618531Y2667130D01*
X607870Y2656469D01*
X602100Y2642539D01*
Y2638258D01*
X600316Y2637233D01*
X593100Y2635498D01*
X583969Y2644630D01*
X570039Y2650400D01*
X554961D01*
X541031Y2644630D01*
X530370Y2633969D01*
X526778Y2625296D01*
X517036D01*
X514630Y2631104D01*
X503969Y2641766D01*
X490039Y2647535D01*
X474961D01*
X461032Y2641766D01*
X450370Y2631104D01*
X444600Y2617174D01*
Y2602097D01*
X450370Y2588167D01*
X461032Y2577506D01*
X474961Y2571736D01*
X490039D01*
X503969Y2577506D01*
X514630Y2588167D01*
X518222Y2596840D01*
X527964D01*
X530370Y2591031D01*
X541031Y2580370D01*
X554961Y2574600D01*
X570039D01*
X583969Y2580370D01*
X594630Y2591031D01*
X600400Y2604961D01*
Y2609242D01*
X602184Y2610267D01*
X609400Y2612002D01*
X618531Y2602870D01*
X632461Y2597100D01*
X647539D01*
X661469Y2602870D01*
X668750Y2610151D01*
X676031Y2602870D01*
X689961Y2597100D01*
X705039D01*
X718969Y2602870D01*
X729630Y2613531D01*
X734172Y2624498D01*
X739961Y2622100D01*
X755039D01*
X768968Y2627870D01*
X779630Y2638531D01*
X785400Y2652461D01*
Y2667539D01*
X779630Y2681469D01*
X768968Y2692130D01*
X755039Y2697900D01*
D02*
G37*
G36*
X1282579Y2665400D02*
X1267502D01*
X1253572Y2659630D01*
X1242910Y2648969D01*
X1237141Y2635039D01*
Y2619961D01*
X1242910Y2606031D01*
X1253572Y2595370D01*
X1267502Y2589600D01*
X1282579D01*
X1296509Y2595370D01*
X1307170Y2606031D01*
X1312940Y2619961D01*
Y2635039D01*
X1307170Y2648969D01*
X1296509Y2659630D01*
X1282579Y2665400D01*
D02*
G37*
G36*
X1023139Y2641639D02*
X1008061D01*
X994132Y2635869D01*
X983470Y2625208D01*
X977700Y2611278D01*
Y2596201D01*
X983470Y2582271D01*
X993871Y2571870D01*
X983470Y2561469D01*
X977700Y2547539D01*
Y2532461D01*
X983470Y2518531D01*
X994132Y2507870D01*
X1008061Y2502100D01*
X1023139D01*
X1037069Y2507870D01*
X1047730Y2518531D01*
X1053500Y2532461D01*
Y2547539D01*
X1047730Y2561469D01*
X1037329Y2571870D01*
X1047730Y2582271D01*
X1053500Y2596201D01*
Y2611278D01*
X1047730Y2625208D01*
X1037069Y2635869D01*
X1023139Y2641639D01*
D02*
G37*
G36*
X1282579Y2565400D02*
X1267501D01*
X1253572Y2559630D01*
X1242910Y2548968D01*
X1237140Y2535039D01*
Y2519961D01*
X1242910Y2506031D01*
X1253572Y2495370D01*
X1267501Y2489600D01*
X1282579D01*
X1288032Y2491859D01*
X1293131Y2484229D01*
X1285370Y2476469D01*
X1279600Y2462539D01*
Y2447461D01*
X1285370Y2433531D01*
X1296031Y2422870D01*
X1309961Y2417100D01*
X1325039D01*
X1338969Y2422870D01*
X1349630Y2433531D01*
X1355400Y2447461D01*
Y2462539D01*
X1349630Y2476469D01*
X1338969Y2487130D01*
X1325039Y2492900D01*
X1309961D01*
X1304508Y2490641D01*
X1299409Y2498271D01*
X1307170Y2506031D01*
X1312940Y2519961D01*
Y2535039D01*
X1307170Y2548968D01*
X1296509Y2559630D01*
X1282579Y2565400D01*
D02*
G37*
G36*
X920039Y2470400D02*
X904961D01*
X891031Y2464630D01*
X880370Y2453969D01*
X874600Y2440039D01*
Y2424961D01*
X880370Y2411031D01*
X891031Y2400370D01*
X904961Y2394600D01*
X920039D01*
X933969Y2400370D01*
X944630Y2411031D01*
X950400Y2424961D01*
Y2440039D01*
X944630Y2453969D01*
X933969Y2464630D01*
X920039Y2470400D01*
D02*
G37*
G36*
X1027539Y2467900D02*
X1012461D01*
X998531Y2462130D01*
X987870Y2451469D01*
X982100Y2437539D01*
Y2422461D01*
X987870Y2408531D01*
X998531Y2397870D01*
X1012461Y2392100D01*
X1027539D01*
X1041469Y2397870D01*
X1052130Y2408531D01*
X1057900Y2422461D01*
Y2437539D01*
X1052130Y2451469D01*
X1041469Y2462130D01*
X1027539Y2467900D01*
D02*
G37*
G36*
X1179676Y2413554D02*
X1164599D01*
X1150669Y2407785D01*
X1140007Y2397123D01*
X1134238Y2383193D01*
Y2368116D01*
X1140007Y2354186D01*
X1150669Y2343525D01*
X1164599Y2337755D01*
X1179676D01*
X1193606Y2343525D01*
X1204267Y2354186D01*
X1210037Y2368116D01*
Y2383193D01*
X1204267Y2397123D01*
X1193606Y2407785D01*
X1179676Y2413554D01*
D02*
G37*
G36*
X1020039Y2377900D02*
X1004961D01*
X991031Y2372130D01*
X980370Y2361468D01*
X974600Y2347539D01*
Y2332461D01*
X980370Y2318531D01*
X991031Y2307870D01*
X1004961Y2302100D01*
X1020039D01*
X1033968Y2307870D01*
X1044630Y2318531D01*
X1050400Y2332461D01*
Y2347539D01*
X1044630Y2361468D01*
X1033968Y2372130D01*
X1020039Y2377900D01*
D02*
G37*
G36*
X173776Y2443500D02*
X147024D01*
X121184Y2436576D01*
X98016Y2423200D01*
X79100Y2404284D01*
X65724Y2381116D01*
X58800Y2355276D01*
Y2328524D01*
X65724Y2302684D01*
X79100Y2279516D01*
X98016Y2260600D01*
X121184Y2247224D01*
X147024Y2240300D01*
X173776D01*
X199616Y2247224D01*
X222784Y2260600D01*
X241700Y2279516D01*
X255076Y2302684D01*
X262000Y2328524D01*
Y2355276D01*
X255076Y2381116D01*
X241700Y2404284D01*
X222784Y2423200D01*
X199616Y2436576D01*
X173776Y2443500D01*
D02*
G37*
G36*
X1360039Y2267900D02*
X1344961D01*
X1331031Y2262130D01*
X1320370Y2251469D01*
X1314600Y2237539D01*
Y2222461D01*
X1320370Y2208532D01*
X1331031Y2197870D01*
X1344961Y2192100D01*
X1360039D01*
X1373969Y2197870D01*
X1384630Y2208532D01*
X1390400Y2222461D01*
Y2237539D01*
X1384630Y2251469D01*
X1373969Y2262130D01*
X1360039Y2267900D01*
D02*
G37*
G36*
X55039Y2055400D02*
X39961D01*
X26031Y2049630D01*
X15370Y2038968D01*
X9600Y2025039D01*
Y2009961D01*
X15370Y1996031D01*
X26031Y1985370D01*
X39961Y1979600D01*
X55039D01*
X68969Y1985370D01*
X79630Y1996031D01*
X85400Y2009961D01*
Y2025039D01*
X79630Y2038968D01*
X68969Y2049630D01*
X55039Y2055400D01*
D02*
G37*
G36*
X1455039Y1972900D02*
X1439961D01*
X1426031Y1967130D01*
X1415370Y1956469D01*
X1409600Y1942539D01*
Y1927461D01*
X1415370Y1913531D01*
X1426031Y1902870D01*
X1439961Y1897100D01*
X1455039D01*
X1468969Y1902870D01*
X1479630Y1913531D01*
X1485400Y1927461D01*
Y1942539D01*
X1479630Y1956469D01*
X1468969Y1967130D01*
X1455039Y1972900D01*
D02*
G37*
G36*
X1372539Y1937900D02*
X1357461D01*
X1343531Y1932130D01*
X1332870Y1921469D01*
X1327100Y1907539D01*
Y1892461D01*
X1332870Y1878531D01*
X1343531Y1867870D01*
X1357461Y1862100D01*
X1372539D01*
X1386469Y1867870D01*
X1397130Y1878531D01*
X1402900Y1892461D01*
Y1907539D01*
X1397130Y1921469D01*
X1386469Y1932130D01*
X1372539Y1937900D01*
D02*
G37*
G36*
X1247539Y1932900D02*
X1232461D01*
X1218531Y1927130D01*
X1207870Y1916469D01*
X1202100Y1902539D01*
Y1887461D01*
X1207870Y1873531D01*
X1218531Y1862870D01*
X1232461Y1857100D01*
X1247539D01*
X1261469Y1862870D01*
X1272130Y1873531D01*
X1277900Y1887461D01*
Y1902539D01*
X1272130Y1916469D01*
X1261469Y1927130D01*
X1247539Y1932900D01*
D02*
G37*
G36*
X322539Y1740400D02*
X307461D01*
X293531Y1734630D01*
X282870Y1723969D01*
X277100Y1710039D01*
Y1694961D01*
X282870Y1681031D01*
X293531Y1670370D01*
X307461Y1664600D01*
X322539D01*
X336468Y1670370D01*
X347130Y1681031D01*
X352900Y1694961D01*
Y1710039D01*
X347130Y1723969D01*
X336468Y1734630D01*
X322539Y1740400D01*
D02*
G37*
G36*
X1537539Y1725400D02*
X1522461D01*
X1508531Y1719630D01*
X1497870Y1708969D01*
X1492100Y1695039D01*
Y1679961D01*
X1497870Y1666031D01*
X1508531Y1655370D01*
X1522461Y1649600D01*
X1537539D01*
X1551469Y1655370D01*
X1562130Y1666031D01*
X1567900Y1679961D01*
Y1695039D01*
X1562130Y1708969D01*
X1551469Y1719630D01*
X1537539Y1725400D01*
D02*
G37*
G36*
X832539Y1722900D02*
X817461D01*
X803531Y1717130D01*
X792870Y1706469D01*
X787100Y1692539D01*
Y1677461D01*
X792870Y1663531D01*
X803531Y1652870D01*
X817461Y1647100D01*
X832539D01*
X846468Y1652870D01*
X857130Y1663531D01*
X862900Y1677461D01*
Y1692539D01*
X857130Y1706469D01*
X846468Y1717130D01*
X832539Y1722900D01*
D02*
G37*
G36*
X940039Y1707900D02*
X924961D01*
X911031Y1702130D01*
X900370Y1691469D01*
X894600Y1677539D01*
Y1662461D01*
X900370Y1648531D01*
X911031Y1637870D01*
X924961Y1632100D01*
X940039D01*
X953969Y1637870D01*
X964630Y1648531D01*
X970400Y1662461D01*
Y1677539D01*
X964630Y1691469D01*
X953969Y1702130D01*
X940039Y1707900D01*
D02*
G37*
G36*
X114976Y1625600D02*
X88224D01*
X62384Y1618676D01*
X39216Y1605300D01*
X20300Y1586384D01*
X6924Y1563216D01*
X0Y1537376D01*
Y1510624D01*
X6924Y1484784D01*
X20300Y1461616D01*
X39216Y1442700D01*
X62384Y1429324D01*
X88224Y1422400D01*
X114976D01*
X140816Y1429324D01*
X163984Y1442700D01*
X182900Y1461616D01*
X196276Y1484784D01*
X203200Y1510624D01*
Y1537376D01*
X196276Y1563216D01*
X182900Y1586384D01*
X163984Y1605300D01*
X140816Y1618676D01*
X114976Y1625600D01*
D02*
G37*
G36*
X897139Y1474999D02*
X882062D01*
X868132Y1469229D01*
X857470Y1458568D01*
X851701Y1444638D01*
Y1429561D01*
X857470Y1415631D01*
X868132Y1404970D01*
X882062Y1399200D01*
X897139D01*
X911069Y1404970D01*
X921730Y1415631D01*
X927500Y1429561D01*
Y1444638D01*
X921730Y1458568D01*
X911069Y1469229D01*
X897139Y1474999D01*
D02*
G37*
G36*
X1710476Y1584300D02*
X1683724D01*
X1657884Y1577376D01*
X1634716Y1564000D01*
X1615800Y1545084D01*
X1602424Y1521916D01*
X1595500Y1496076D01*
Y1469324D01*
X1602424Y1443484D01*
X1615800Y1420316D01*
X1634716Y1401400D01*
X1657884Y1388024D01*
X1683724Y1381100D01*
X1710476D01*
X1736316Y1388024D01*
X1759484Y1401400D01*
X1778400Y1420316D01*
X1791776Y1443484D01*
X1798700Y1469324D01*
Y1496076D01*
X1791776Y1521916D01*
X1778400Y1545084D01*
X1759484Y1564000D01*
X1736316Y1577376D01*
X1710476Y1584300D01*
D02*
G37*
G36*
X1582539Y1397900D02*
X1567461D01*
X1553531Y1392130D01*
X1542870Y1381469D01*
X1537100Y1367539D01*
Y1352461D01*
X1542870Y1338531D01*
X1553531Y1327870D01*
X1567461Y1322100D01*
X1582539D01*
X1596468Y1327870D01*
X1607130Y1338531D01*
X1612900Y1352461D01*
Y1367539D01*
X1607130Y1381469D01*
X1596468Y1392130D01*
X1582539Y1397900D01*
D02*
G37*
G36*
X285039Y1335400D02*
X269961D01*
X256031Y1329630D01*
X245370Y1318969D01*
X239600Y1305039D01*
Y1289961D01*
X245370Y1276031D01*
X256031Y1265370D01*
X269961Y1259600D01*
X285039D01*
X298969Y1265370D01*
X309630Y1276031D01*
X315400Y1289961D01*
Y1305039D01*
X309630Y1318969D01*
X298969Y1329630D01*
X285039Y1335400D01*
D02*
G37*
G36*
X1472539Y1270400D02*
X1457461D01*
X1443532Y1264630D01*
X1432870Y1253969D01*
X1427100Y1240039D01*
Y1224961D01*
X1432870Y1211031D01*
X1443532Y1200370D01*
X1457461Y1194600D01*
X1472539D01*
X1486469Y1200370D01*
X1497130Y1211031D01*
X1502900Y1224961D01*
Y1240039D01*
X1497130Y1253969D01*
X1486469Y1264630D01*
X1472539Y1270400D01*
D02*
G37*
G36*
X114976Y1371600D02*
X88224D01*
X62384Y1364676D01*
X39216Y1351300D01*
X20300Y1332384D01*
X6924Y1309216D01*
X0Y1283376D01*
Y1256624D01*
X6924Y1230784D01*
X20300Y1207616D01*
X39216Y1188700D01*
X62384Y1175324D01*
X88224Y1168400D01*
X114976D01*
X140816Y1175324D01*
X163984Y1188700D01*
X182900Y1207616D01*
X196276Y1230784D01*
X203200Y1256624D01*
Y1283376D01*
X196276Y1309216D01*
X182900Y1332384D01*
X163984Y1351300D01*
X140816Y1364676D01*
X114976Y1371600D01*
D02*
G37*
G36*
X617939Y1222900D02*
X602862D01*
X588932Y1217130D01*
X578270Y1206469D01*
X572501Y1192539D01*
Y1177461D01*
X578270Y1163531D01*
X588932Y1152870D01*
X602862Y1147100D01*
X617939D01*
X631869Y1152870D01*
X642530Y1163531D01*
X648300Y1177461D01*
Y1192539D01*
X642530Y1206469D01*
X631869Y1217130D01*
X617939Y1222900D01*
D02*
G37*
G36*
X1002539Y1170400D02*
X987461D01*
X973531Y1164630D01*
X962870Y1153968D01*
X957100Y1140039D01*
Y1124961D01*
X962870Y1111031D01*
X973531Y1100370D01*
X987461Y1094600D01*
X1002539D01*
X1016469Y1100370D01*
X1027130Y1111031D01*
X1032900Y1124961D01*
Y1140039D01*
X1027130Y1153968D01*
X1016469Y1164630D01*
X1002539Y1170400D01*
D02*
G37*
G36*
X882539D02*
X867461D01*
X853531Y1164630D01*
X842870Y1153968D01*
X837100Y1140039D01*
Y1124961D01*
X842870Y1111031D01*
X853531Y1100370D01*
X867461Y1094600D01*
X882539D01*
X896469Y1100370D01*
X907130Y1111031D01*
X912900Y1124961D01*
Y1140039D01*
X907130Y1153968D01*
X896469Y1164630D01*
X882539Y1170400D01*
D02*
G37*
G36*
X782539Y1167900D02*
X767461D01*
X753531Y1162130D01*
X742870Y1151469D01*
X737100Y1137539D01*
Y1122461D01*
X742870Y1108531D01*
X753531Y1097870D01*
X767461Y1092100D01*
X782539D01*
X796469Y1097870D01*
X807130Y1108531D01*
X812900Y1122461D01*
Y1137539D01*
X807130Y1151469D01*
X796469Y1162130D01*
X782539Y1167900D01*
D02*
G37*
G36*
X1752539Y1087900D02*
X1737461D01*
X1723531Y1082130D01*
X1712870Y1071469D01*
X1707100Y1057539D01*
Y1042461D01*
X1712870Y1028531D01*
X1723531Y1017870D01*
X1737461Y1012100D01*
X1752539D01*
X1766469Y1017870D01*
X1777130Y1028531D01*
X1782900Y1042461D01*
Y1057539D01*
X1777130Y1071469D01*
X1766469Y1082130D01*
X1752539Y1087900D01*
D02*
G37*
G36*
X114976Y1117600D02*
X88224D01*
X62384Y1110676D01*
X39216Y1097300D01*
X20300Y1078384D01*
X6924Y1055216D01*
X0Y1029376D01*
Y1002624D01*
X6924Y976784D01*
X20300Y953616D01*
X39216Y934700D01*
X62384Y921324D01*
X88224Y914400D01*
X114976D01*
X140816Y921324D01*
X163984Y934700D01*
X182900Y953616D01*
X196276Y976784D01*
X203200Y1002624D01*
Y1029376D01*
X196276Y1055216D01*
X182900Y1078384D01*
X163984Y1097300D01*
X140816Y1110676D01*
X114976Y1117600D01*
D02*
G37*
G36*
Y863600D02*
X114300D01*
Y774700D01*
X203200D01*
Y775376D01*
X196276Y801216D01*
X182900Y824384D01*
X163984Y843300D01*
X140816Y856676D01*
X114976Y863600D01*
D02*
G37*
G36*
X88900D02*
X88224D01*
X62384Y856676D01*
X39216Y843300D01*
X20300Y824384D01*
X6924Y801216D01*
X0Y775376D01*
Y774700D01*
X88900D01*
Y863600D01*
D02*
G37*
G36*
X637701Y810424D02*
Y737701D01*
X710424D01*
X704953Y758118D01*
X693657Y777682D01*
X677682Y793657D01*
X658118Y804953D01*
X637701Y810424D01*
D02*
G37*
G36*
X612301Y810424D02*
X591882Y804953D01*
X572318Y793657D01*
X556343Y777682D01*
X545047Y758118D01*
X539577Y737701D01*
X612301D01*
Y810424D01*
D02*
G37*
G36*
X203200Y749300D02*
X114300D01*
Y660400D01*
X114976D01*
X140816Y667324D01*
X163984Y680700D01*
X182900Y699616D01*
X196276Y722784D01*
X203200Y748624D01*
Y749300D01*
D02*
G37*
G36*
X88900D02*
X0D01*
Y748624D01*
X6924Y722784D01*
X20300Y699616D01*
X39216Y680700D01*
X62384Y667324D01*
X88224Y660400D01*
X88900D01*
Y749300D01*
D02*
G37*
G36*
X710424Y712301D02*
X637701D01*
Y639577D01*
X658118Y645047D01*
X677682Y656343D01*
X693657Y672318D01*
X704953Y691883D01*
X710424Y712301D01*
D02*
G37*
G36*
X612301D02*
X539576D01*
X545047Y691883D01*
X556343Y672318D01*
X572318Y656343D01*
X591882Y645047D01*
X612301Y639576D01*
Y712301D01*
D02*
G37*
G36*
X1510801Y810800D02*
X1339201D01*
Y639200D01*
X1510801D01*
Y810800D01*
D02*
G37*
G36*
X1236297D02*
X1213705D01*
X1191883Y804953D01*
X1172318Y793657D01*
X1156344Y777682D01*
X1145048Y758118D01*
X1139201Y736296D01*
Y713704D01*
X1145048Y691883D01*
X1156344Y672318D01*
X1172318Y656343D01*
X1191883Y645047D01*
X1213705Y639200D01*
X1236297D01*
X1258118Y645047D01*
X1277683Y656343D01*
X1293658Y672318D01*
X1304954Y691883D01*
X1310801Y713704D01*
Y736296D01*
X1304954Y758118D01*
X1293658Y777682D01*
X1277683Y793657D01*
X1258118Y804953D01*
X1236297Y810800D01*
D02*
G37*
G36*
X1036297D02*
X1013705D01*
X991883Y804953D01*
X972319Y793657D01*
X956344Y777682D01*
X945048Y758118D01*
X939201Y736296D01*
Y713704D01*
X945048Y691883D01*
X956344Y672318D01*
X972319Y656343D01*
X991883Y645047D01*
X1013705Y639200D01*
X1036297D01*
X1058119Y645047D01*
X1077683Y656343D01*
X1093658Y672318D01*
X1104954Y691883D01*
X1110801Y713704D01*
Y736296D01*
X1104954Y758118D01*
X1093658Y777682D01*
X1077683Y793657D01*
X1058119Y804953D01*
X1036297Y810800D01*
D02*
G37*
G36*
X836297D02*
X813705D01*
X791883Y804953D01*
X772318Y793657D01*
X756344Y777682D01*
X745048Y758118D01*
X739201Y736296D01*
Y713704D01*
X745048Y691883D01*
X756344Y672318D01*
X772318Y656343D01*
X791883Y645047D01*
X813705Y639200D01*
X836297D01*
X858118Y645047D01*
X877683Y656343D01*
X893658Y672318D01*
X904954Y691883D01*
X910801Y713704D01*
Y736296D01*
X904954Y758118D01*
X893658Y777682D01*
X877683Y793657D01*
X858118Y804953D01*
X836297Y810800D01*
D02*
G37*
G36*
X436296D02*
X413704D01*
X391882Y804953D01*
X372318Y793657D01*
X356343Y777682D01*
X345047Y758118D01*
X339200Y736296D01*
Y713704D01*
X345047Y691883D01*
X356343Y672318D01*
X372318Y656343D01*
X391882Y645047D01*
X413704Y639200D01*
X436296D01*
X458117Y645047D01*
X477682Y656343D01*
X493657Y672318D01*
X504953Y691883D01*
X510800Y713704D01*
Y736296D01*
X504953Y758118D01*
X493657Y777682D01*
X477682Y793657D01*
X458117Y804953D01*
X436296Y810800D01*
D02*
G37*
G36*
X637701Y610423D02*
Y537699D01*
X710424D01*
X704953Y558118D01*
X693657Y577682D01*
X677682Y593657D01*
X658118Y604953D01*
X637701Y610423D01*
D02*
G37*
G36*
X612301Y610424D02*
X591882Y604953D01*
X572318Y593657D01*
X556343Y577682D01*
X545047Y558118D01*
X539576Y537699D01*
X612301D01*
Y610424D01*
D02*
G37*
G36*
X1780039Y555400D02*
X1764961D01*
X1751031Y549630D01*
X1740370Y538969D01*
X1734600Y525039D01*
Y509961D01*
X1740370Y496032D01*
X1751031Y485370D01*
X1764961Y479600D01*
X1780039D01*
X1793968Y485370D01*
X1804630Y496032D01*
X1810400Y509961D01*
Y525039D01*
X1804630Y538969D01*
X1793968Y549630D01*
X1780039Y555400D01*
D02*
G37*
G36*
X710424Y512299D02*
X637701D01*
Y439576D01*
X658118Y445047D01*
X677682Y456343D01*
X693657Y472318D01*
X704953Y491882D01*
X710424Y512299D01*
D02*
G37*
G36*
X612301D02*
X539577D01*
X545047Y491882D01*
X556343Y472318D01*
X572318Y456343D01*
X591882Y445047D01*
X612301Y439576D01*
Y512299D01*
D02*
G37*
G36*
X1436297Y610800D02*
X1413705D01*
X1391883Y604953D01*
X1372319Y593657D01*
X1356344Y577682D01*
X1345048Y558118D01*
X1339201Y536296D01*
Y513704D01*
X1345048Y491882D01*
X1356344Y472318D01*
X1372319Y456343D01*
X1391883Y445047D01*
X1413705Y439200D01*
X1436297D01*
X1458118Y445047D01*
X1477683Y456343D01*
X1493658Y472318D01*
X1504954Y491882D01*
X1510801Y513704D01*
Y536296D01*
X1504954Y558118D01*
X1493658Y577682D01*
X1477683Y593657D01*
X1458118Y604953D01*
X1436297Y610800D01*
D02*
G37*
G36*
X1236297D02*
X1213705D01*
X1191883Y604953D01*
X1172318Y593657D01*
X1156344Y577682D01*
X1145048Y558118D01*
X1139201Y536296D01*
Y513704D01*
X1145048Y491882D01*
X1156344Y472318D01*
X1172318Y456343D01*
X1191883Y445047D01*
X1213705Y439200D01*
X1236297D01*
X1258118Y445047D01*
X1277683Y456343D01*
X1293658Y472318D01*
X1304954Y491882D01*
X1310801Y513704D01*
Y536296D01*
X1304954Y558118D01*
X1293658Y577682D01*
X1277683Y593657D01*
X1258118Y604953D01*
X1236297Y610800D01*
D02*
G37*
G36*
X1036297D02*
X1013705D01*
X991883Y604953D01*
X972319Y593657D01*
X956344Y577682D01*
X945048Y558118D01*
X939201Y536296D01*
Y513704D01*
X945048Y491882D01*
X956344Y472318D01*
X972319Y456343D01*
X991883Y445047D01*
X1013705Y439200D01*
X1036297D01*
X1058119Y445047D01*
X1077683Y456343D01*
X1093658Y472318D01*
X1104954Y491882D01*
X1110801Y513704D01*
Y536296D01*
X1104954Y558118D01*
X1093658Y577682D01*
X1077683Y593657D01*
X1058119Y604953D01*
X1036297Y610800D01*
D02*
G37*
G36*
X836297D02*
X813705D01*
X791883Y604953D01*
X772318Y593657D01*
X756344Y577682D01*
X745048Y558118D01*
X739201Y536296D01*
Y513704D01*
X745048Y491882D01*
X756344Y472318D01*
X772318Y456343D01*
X791883Y445047D01*
X813705Y439200D01*
X836297D01*
X858118Y445047D01*
X877683Y456343D01*
X893658Y472318D01*
X904954Y491882D01*
X910801Y513704D01*
Y536296D01*
X904954Y558118D01*
X893658Y577682D01*
X877683Y593657D01*
X858118Y604953D01*
X836297Y610800D01*
D02*
G37*
G36*
X436296D02*
X413704D01*
X391882Y604953D01*
X372318Y593657D01*
X356343Y577682D01*
X345047Y558118D01*
X339200Y536296D01*
Y513704D01*
X345047Y491882D01*
X356343Y472318D01*
X372318Y456343D01*
X391882Y445047D01*
X413704Y439200D01*
X436296D01*
X458117Y445047D01*
X477682Y456343D01*
X493657Y472318D01*
X504953Y491882D01*
X510800Y513704D01*
Y536296D01*
X504953Y558118D01*
X493657Y577682D01*
X477682Y593657D01*
X458117Y604953D01*
X436296Y610800D01*
D02*
G37*
G36*
X114976Y609600D02*
X88224D01*
X62384Y602676D01*
X39216Y589300D01*
X20300Y570384D01*
X6924Y547216D01*
X0Y521376D01*
Y494624D01*
X6924Y468784D01*
X20300Y445616D01*
X39216Y426700D01*
X62384Y413324D01*
X88224Y406400D01*
X114976D01*
X140816Y413324D01*
X163984Y426700D01*
X182900Y445616D01*
X196276Y468784D01*
X203200Y494624D01*
Y521376D01*
X196276Y547216D01*
X182900Y570384D01*
X163984Y589300D01*
X140816Y602676D01*
X114976Y609600D01*
D02*
G37*
G36*
X1780039Y277900D02*
X1764961D01*
X1751031Y272130D01*
X1740370Y261469D01*
X1734600Y247539D01*
Y232461D01*
X1740370Y218531D01*
X1751031Y207870D01*
X1764961Y202100D01*
X1780039D01*
X1793968Y207870D01*
X1804630Y218531D01*
X1810400Y232461D01*
Y247539D01*
X1804630Y261469D01*
X1793968Y272130D01*
X1780039Y277900D01*
D02*
G37*
G36*
X1573376Y226600D02*
X1572700D01*
Y137700D01*
X1661600D01*
Y138376D01*
X1654676Y164216D01*
X1641300Y187384D01*
X1622384Y206300D01*
X1599216Y219676D01*
X1573376Y226600D01*
D02*
G37*
G36*
X1547300D02*
X1546624D01*
X1520784Y219676D01*
X1497616Y206300D01*
X1478700Y187384D01*
X1465324Y164216D01*
X1458400Y138376D01*
Y137700D01*
X1547300D01*
Y226600D01*
D02*
G37*
G36*
X1661600Y112300D02*
X1572700D01*
Y23400D01*
X1573376D01*
X1599216Y30324D01*
X1622384Y43700D01*
X1641300Y62616D01*
X1654676Y85784D01*
X1661600Y111624D01*
Y112300D01*
D02*
G37*
G36*
X1547300D02*
X1458400D01*
Y111624D01*
X1465324Y85784D01*
X1478700Y62616D01*
X1497616Y43700D01*
X1520784Y30324D01*
X1546624Y23400D01*
X1547300D01*
Y112300D01*
D02*
G37*
G36*
X1319376Y226600D02*
X1292624D01*
X1266784Y219676D01*
X1243616Y206300D01*
X1224700Y187384D01*
X1211324Y164216D01*
X1204400Y138376D01*
Y111624D01*
X1211324Y85784D01*
X1224700Y62616D01*
X1243616Y43700D01*
X1266784Y30324D01*
X1292624Y23400D01*
X1319376D01*
X1345216Y30324D01*
X1368384Y43700D01*
X1387300Y62616D01*
X1400676Y85784D01*
X1407600Y111624D01*
Y138376D01*
X1400676Y164216D01*
X1387300Y187384D01*
X1368384Y206300D01*
X1345216Y219676D01*
X1319376Y226600D01*
D02*
G37*
G36*
X1065376D02*
X1038624D01*
X1012784Y219676D01*
X989616Y206300D01*
X970700Y187384D01*
X957324Y164216D01*
X950400Y138376D01*
Y111624D01*
X957324Y85784D01*
X970700Y62616D01*
X989616Y43700D01*
X1012784Y30324D01*
X1038624Y23400D01*
X1065376D01*
X1091216Y30324D01*
X1114384Y43700D01*
X1133300Y62616D01*
X1146676Y85784D01*
X1153600Y111624D01*
Y138376D01*
X1146676Y164216D01*
X1133300Y187384D01*
X1114384Y206300D01*
X1091216Y219676D01*
X1065376Y226600D01*
D02*
G37*
G36*
X811376D02*
X784624D01*
X758784Y219676D01*
X735616Y206300D01*
X716700Y187384D01*
X703324Y164216D01*
X696400Y138376D01*
Y111624D01*
X703324Y85784D01*
X716700Y62616D01*
X735616Y43700D01*
X758784Y30324D01*
X784624Y23400D01*
X811376D01*
X837216Y30324D01*
X860384Y43700D01*
X879300Y62616D01*
X892676Y85784D01*
X899600Y111624D01*
Y138376D01*
X892676Y164216D01*
X879300Y187384D01*
X860384Y206300D01*
X837216Y219676D01*
X811376Y226600D01*
D02*
G37*
G36*
X557376D02*
X530624D01*
X504784Y219676D01*
X481616Y206300D01*
X462700Y187384D01*
X449324Y164216D01*
X442400Y138376D01*
Y111624D01*
X449324Y85784D01*
X462700Y62616D01*
X481616Y43700D01*
X504784Y30324D01*
X530624Y23400D01*
X557376D01*
X583216Y30324D01*
X606384Y43700D01*
X625300Y62616D01*
X638676Y85784D01*
X645600Y111624D01*
Y138376D01*
X638676Y164216D01*
X625300Y187384D01*
X606384Y206300D01*
X583216Y219676D01*
X557376Y226600D01*
D02*
G37*
G36*
X303376D02*
X276624D01*
X250784Y219676D01*
X227616Y206300D01*
X208700Y187384D01*
X195324Y164216D01*
X188400Y138376D01*
Y111624D01*
X195324Y85784D01*
X208700Y62616D01*
X227616Y43700D01*
X250784Y30324D01*
X276624Y23400D01*
X303376D01*
X329216Y30324D01*
X352384Y43700D01*
X371300Y62616D01*
X384676Y85784D01*
X391600Y111624D01*
Y138376D01*
X384676Y164216D01*
X371300Y187384D01*
X352384Y206300D01*
X329216Y219676D01*
X303376Y226600D01*
D02*
G37*
%LPD*%
D28*
X1840600Y1970600D02*
Y2359400D01*
X1790000Y1920000D02*
X1840600Y1970600D01*
X1621621Y2578379D02*
X1840600Y2359400D01*
X1439121Y2578379D02*
X1621621D01*
X1790001Y3549058D02*
X1842500Y3496559D01*
Y3110000D02*
Y3496559D01*
X1797500Y3065000D02*
X1842500Y3110000D01*
X1777500Y3065000D02*
X1797500D01*
D31*
X1136500Y2070500D02*
X1672500D01*
X1136500Y2934500D02*
X1672500D01*
D32*
X101600Y1016000D02*
D03*
Y762000D02*
D03*
Y508000D02*
D03*
Y1270000D02*
D03*
Y1524000D02*
D03*
X798000Y125000D02*
D03*
X1052000D02*
D03*
X1306000D02*
D03*
X1560000D02*
D03*
X544000D02*
D03*
X290000D02*
D03*
D33*
X425000Y525000D02*
D03*
X625000D02*
D03*
X425000Y725000D02*
D03*
X625000D02*
D03*
X825001Y525000D02*
D03*
X1025001D02*
D03*
X1225001D02*
D03*
X1425001D02*
D03*
X825001Y725000D02*
D03*
X1025001D02*
D03*
X1225001D02*
D03*
X825000Y3197500D02*
D03*
X1025000D02*
D03*
X1225000D02*
D03*
X625000Y3397500D02*
D03*
X825000D02*
D03*
X1025000D02*
D03*
X1225000D02*
D03*
D34*
X1425001Y725000D02*
D03*
X625000Y3197500D02*
D03*
D35*
X1672500Y2934500D02*
D03*
Y2070500D02*
D03*
D36*
X1136500Y2934500D02*
D03*
Y2070500D02*
D03*
D37*
X1697100Y1482700D02*
D03*
X160400Y2341900D02*
D03*
D38*
X1558894Y3042126D02*
D03*
X822700Y2641400D02*
D03*
X492500Y2430000D02*
D03*
X1770000Y3150000D02*
D03*
X425000Y2105000D02*
D03*
X165000Y1955000D02*
D03*
X695000Y2242500D02*
D03*
X747500Y2660000D02*
D03*
X640000Y2635000D02*
D03*
X697500D02*
D03*
X290280Y3156279D02*
D03*
X739600Y2784759D02*
D03*
X457500Y3382500D02*
D03*
X459800Y3205455D02*
D03*
X572200Y2676501D02*
D03*
X1015000Y1770000D02*
D03*
X1704059Y3385941D02*
D03*
X1450000Y4785000D02*
D03*
X1600000Y3432500D02*
D03*
X535000Y4565000D02*
D03*
X1322500Y4300000D02*
D03*
X1435000Y4995000D02*
D03*
X842500Y4997500D02*
D03*
X1572500Y4932500D02*
D03*
X1677500Y3830000D02*
D03*
X1437500Y3695000D02*
D03*
X1350000Y3692500D02*
D03*
X327500Y3587500D02*
D03*
X277500Y3745000D02*
D03*
Y3827500D02*
D03*
Y4000000D02*
D03*
X275000Y3915000D02*
D03*
X255000Y4935000D02*
D03*
X140000Y2947500D02*
D03*
X870000Y2797960D02*
D03*
X1352500Y2230000D02*
D03*
X1275040Y2627500D02*
D03*
X1275040Y2527500D02*
D03*
X1172137Y2375655D02*
D03*
X1272500Y2220000D02*
D03*
X1015600Y2540000D02*
D03*
X825000Y1685000D02*
D03*
X1432500Y2862500D02*
D03*
X122500Y5010000D02*
D03*
X545000Y4217500D02*
D03*
X315000Y1702500D02*
D03*
X1392500Y2525000D02*
D03*
X995000Y1132500D02*
D03*
X875000D02*
D03*
X775000Y1130000D02*
D03*
X889600Y1437099D02*
D03*
X1447500Y1935000D02*
D03*
X1745000Y1050000D02*
D03*
X1705000Y835000D02*
D03*
X1772500Y517500D02*
D03*
X1770000Y327500D02*
D03*
X1772500Y240000D02*
D03*
X1770000Y60000D02*
D03*
X1005000Y970000D02*
D03*
X1380000Y1732500D02*
D03*
X1717500Y4725000D02*
D03*
X985000Y3055000D02*
D03*
X610400Y1185000D02*
D03*
X430000Y1172500D02*
D03*
X1682500Y1290000D02*
D03*
X1315000Y987500D02*
D03*
X1015600Y2603739D02*
D03*
X759999Y4504999D02*
D03*
X1465000Y1232500D02*
D03*
X837500Y2937500D02*
D03*
X1172500Y3055000D02*
D03*
X1380000Y3107500D02*
D03*
X1790000Y1920000D02*
D03*
X1439121Y2578379D02*
D03*
X1020000Y2430000D02*
D03*
X1450000Y2992500D02*
D03*
X1264400Y2785000D02*
D03*
Y2837389D02*
D03*
X1777500Y3065000D02*
D03*
X1715000Y3067500D02*
D03*
X1790001Y3549058D02*
D03*
X1012500Y2340000D02*
D03*
X912500Y2432500D02*
D03*
X1575000Y1360000D02*
D03*
X1507500Y2380000D02*
D03*
Y2317500D02*
D03*
X1725000Y2775000D02*
D03*
X1508626Y1764393D02*
D03*
X1530000Y1687500D02*
D03*
X1365000Y1900000D02*
D03*
X1138800Y1485000D02*
D03*
X1562500Y3145000D02*
D03*
X1291361Y2168861D02*
D03*
X1317500Y2455000D02*
D03*
X1337100Y2732500D02*
D03*
X562500Y2612500D02*
D03*
X482500Y2609636D02*
D03*
X222500Y3637500D02*
D03*
X173100Y3277500D02*
D03*
X130000Y2637500D02*
D03*
X190000Y1715000D02*
D03*
X277500Y1297500D02*
D03*
Y1477500D02*
D03*
X692500Y1780000D02*
D03*
X932500Y1670000D02*
D03*
X47500Y2017500D02*
D03*
X1322500Y4422500D02*
D03*
X357500Y4217500D02*
D03*
X173100Y4170000D02*
D03*
Y4085000D02*
D03*
X1240000Y1895000D02*
D03*
X695000Y1527499D02*
D03*
X1075000Y1365000D02*
D03*
X644998Y1014995D02*
D03*
X1204998Y1014996D02*
D03*
X22500Y4640000D02*
D03*
X135000Y4652500D02*
D03*
X925779Y3568280D02*
D03*
X1420000Y4922500D02*
D03*
X672500Y4995000D02*
D03*
X1010000D02*
D03*
X1180000Y4992500D02*
D03*
X1350000Y4995000D02*
D03*
X500000Y4997500D02*
D03*
X1625000Y3639999D02*
D03*
X1625000Y5040000D02*
D03*
X224998Y5035001D02*
D03*
X307500Y4797500D02*
D03*
X1547500Y4252500D02*
D03*
X1545000Y4327500D02*
D03*
X1399400Y3859400D02*
D03*
X1415779Y3800780D02*
D03*
X1425000Y4422500D02*
D03*
X452500D02*
D03*
X282500Y4255000D02*
D03*
X302500Y4597500D02*
D03*
X550000Y4895000D02*
D03*
X759999Y4174999D02*
D03*
X924999D02*
D03*
X1089999Y4175000D02*
D03*
Y4339999D02*
D03*
X924999D02*
D03*
X760000D02*
D03*
X924999Y4505000D02*
D03*
X1089999D02*
D03*
X1725000Y2600000D02*
D03*
%TF.MD5,ed3b7b29812098cfd4205c4660ea776b*%
M02*
