%TF.GenerationSoftware,Altium Limited,Altium Designer,24.6.1 (21)*%
G04 Layer_Color=0*
%FSLAX45Y45*%
%MOMM*%
%TF.SameCoordinates,189501FC-2F9B-42A0-9727-E85274D5E768*%
%TF.FilePolarity,Positive*%
%TF.FileFunction,Plated,1,4,PTH,Drill*%
%TF.Part,Single*%
G01*
G75*
%TA.AperFunction,ComponentDrill*%
%ADD101C,0.76200*%
%ADD102C,0.76200*%
%ADD103C,0.70000*%
%ADD104O,2.10000X0.60000*%
%ADD105O,1.60000X0.60000*%
%TA.AperFunction,OtherDrill,Pad Free-MNT (16.971mm,14.827mm)*%
%ADD106C,1.52400*%
%TA.AperFunction,OtherDrill,Pad Free-MNT (1.604mm,23.419mm)*%
%ADD107C,1.52400*%
%TA.AperFunction,ViaDrill,NotFilled*%
%ADD108C,0.15000*%
D101*
X101600Y1016000D02*
D03*
Y762000D02*
D03*
Y508000D02*
D03*
Y1270000D02*
D03*
D102*
Y1524000D02*
D03*
X798000Y125000D02*
D03*
X1052000D02*
D03*
X1306000D02*
D03*
X1560000D02*
D03*
X544000D02*
D03*
X290000D02*
D03*
D103*
X425000Y525000D02*
D03*
X625000D02*
D03*
X425000Y725000D02*
D03*
X625000D02*
D03*
X825001Y525000D02*
D03*
X1025001D02*
D03*
X1225001D02*
D03*
X1425001D02*
D03*
X825001Y725000D02*
D03*
X1025001D02*
D03*
X1225001D02*
D03*
X1425001D02*
D03*
X625000Y3197500D02*
D03*
X825000D02*
D03*
X1025000D02*
D03*
X1225000D02*
D03*
X625000Y3397500D02*
D03*
X825000D02*
D03*
X1025000D02*
D03*
X1225000D02*
D03*
D104*
X1672500Y2934500D02*
D03*
Y2070500D02*
D03*
D105*
X1136500Y2934500D02*
D03*
Y2070500D02*
D03*
D106*
X1697100Y1482700D02*
D03*
D107*
X160400Y2341900D02*
D03*
D108*
X1558894Y3042126D02*
D03*
X822700Y2641400D02*
D03*
X492500Y2430000D02*
D03*
X1770000Y3150000D02*
D03*
X425000Y2105000D02*
D03*
X165000Y1955000D02*
D03*
X695000Y2242500D02*
D03*
X747500Y2660000D02*
D03*
X640000Y2635000D02*
D03*
X697500D02*
D03*
X290280Y3156279D02*
D03*
X739600Y2784759D02*
D03*
X457500Y3382500D02*
D03*
X459800Y3205455D02*
D03*
X572200Y2676501D02*
D03*
X1015000Y1770000D02*
D03*
X1704059Y3385941D02*
D03*
X1450000Y4785000D02*
D03*
X1600000Y3432500D02*
D03*
X535000Y4565000D02*
D03*
X1322500Y4300000D02*
D03*
X1435000Y4995000D02*
D03*
X842500Y4997500D02*
D03*
X1572500Y4932500D02*
D03*
X1677500Y3830000D02*
D03*
X1437500Y3695000D02*
D03*
X1350000Y3692500D02*
D03*
X327500Y3587500D02*
D03*
X277500Y3745000D02*
D03*
Y3827500D02*
D03*
Y4000000D02*
D03*
X275000Y3915000D02*
D03*
X255000Y4935000D02*
D03*
X140000Y2947500D02*
D03*
X870000Y2797960D02*
D03*
X1352500Y2230000D02*
D03*
X1275040Y2627500D02*
D03*
X1275040Y2527500D02*
D03*
X1172137Y2375655D02*
D03*
X1272500Y2220000D02*
D03*
X1015600Y2540000D02*
D03*
X825000Y1685000D02*
D03*
X1432500Y2862500D02*
D03*
X122500Y5010000D02*
D03*
X545000Y4217500D02*
D03*
X315000Y1702500D02*
D03*
X1392500Y2525000D02*
D03*
X995000Y1132500D02*
D03*
X875000D02*
D03*
X775000Y1130000D02*
D03*
X889600Y1437099D02*
D03*
X1447500Y1935000D02*
D03*
X1745000Y1050000D02*
D03*
X1705000Y835000D02*
D03*
X1772500Y517500D02*
D03*
X1770000Y327500D02*
D03*
X1772500Y240000D02*
D03*
X1770000Y60000D02*
D03*
X1005000Y970000D02*
D03*
X1380000Y1732500D02*
D03*
X1717500Y4725000D02*
D03*
X985000Y3055000D02*
D03*
X610400Y1185000D02*
D03*
X430000Y1172500D02*
D03*
X1682500Y1290000D02*
D03*
X1315000Y987500D02*
D03*
X1015600Y2603739D02*
D03*
X759999Y4504999D02*
D03*
X1465000Y1232500D02*
D03*
X837500Y2937500D02*
D03*
X1172500Y3055000D02*
D03*
X1380000Y3107500D02*
D03*
X1790000Y1920000D02*
D03*
X1439121Y2578379D02*
D03*
X1020000Y2430000D02*
D03*
X1450000Y2992500D02*
D03*
X1264400Y2785000D02*
D03*
Y2837389D02*
D03*
X1777500Y3065000D02*
D03*
X1715000Y3067500D02*
D03*
X1790001Y3549058D02*
D03*
X1012500Y2340000D02*
D03*
X912500Y2432500D02*
D03*
X1575000Y1360000D02*
D03*
X1507500Y2380000D02*
D03*
Y2317500D02*
D03*
X1725000Y2775000D02*
D03*
X1508626Y1764393D02*
D03*
X1530000Y1687500D02*
D03*
X1365000Y1900000D02*
D03*
X1138800Y1485000D02*
D03*
X1562500Y3145000D02*
D03*
X1291361Y2168861D02*
D03*
X1317500Y2455000D02*
D03*
X1337100Y2732500D02*
D03*
X562500Y2612500D02*
D03*
X482500Y2609636D02*
D03*
X222500Y3637500D02*
D03*
X173100Y3277500D02*
D03*
X130000Y2637500D02*
D03*
X190000Y1715000D02*
D03*
X277500Y1297500D02*
D03*
Y1477500D02*
D03*
X692500Y1780000D02*
D03*
X932500Y1670000D02*
D03*
X47500Y2017500D02*
D03*
X1322500Y4422500D02*
D03*
X357500Y4217500D02*
D03*
X173100Y4170000D02*
D03*
Y4085000D02*
D03*
X1240000Y1895000D02*
D03*
X695000Y1527499D02*
D03*
X1075000Y1365000D02*
D03*
X644998Y1014995D02*
D03*
X1204998Y1014996D02*
D03*
X22500Y4640000D02*
D03*
X135000Y4652500D02*
D03*
X925779Y3568280D02*
D03*
X1420000Y4922500D02*
D03*
X672500Y4995000D02*
D03*
X1010000D02*
D03*
X1180000Y4992500D02*
D03*
X1350000Y4995000D02*
D03*
X500000Y4997500D02*
D03*
X1625000Y3639999D02*
D03*
X1625000Y5040000D02*
D03*
X224998Y5035001D02*
D03*
X307500Y4797500D02*
D03*
X1547500Y4252500D02*
D03*
X1545000Y4327500D02*
D03*
X1399400Y3859400D02*
D03*
X1415779Y3800780D02*
D03*
X1425000Y4422500D02*
D03*
X452500D02*
D03*
X282500Y4255000D02*
D03*
X302500Y4597500D02*
D03*
X550000Y4895000D02*
D03*
X759999Y4174999D02*
D03*
X924999D02*
D03*
X1089999Y4175000D02*
D03*
Y4339999D02*
D03*
X924999D02*
D03*
X760000D02*
D03*
X924999Y4505000D02*
D03*
X1089999D02*
D03*
X1725000Y2600000D02*
D03*
%TF.MD5,b60c2b9c675acf78962f735146b0506c*%
M02*
