%TF.GenerationSoftware,Altium Limited,Altium Designer,24.6.1 (21)*%
G04 Layer_Color=65535*
%FSLAX45Y45*%
%MOMM*%
%TF.SameCoordinates,189501FC-2F9B-42A0-9727-E85274D5E768*%
%TF.FilePolarity,Positive*%
%TF.FileFunction,Legend,Top*%
%TF.Part,Single*%
G01*
G75*
%TA.AperFunction,NonConductor*%
%ADD56C,0.20000*%
%ADD57C,0.10000*%
%ADD58C,0.25400*%
%ADD59C,0.12700*%
D56*
X464000Y2524500D02*
G03*
X464000Y2524500I-10000J0D01*
G01*
X1559600Y974800D02*
G03*
X1559600Y974800I-10000J0D01*
G01*
X1609800Y1085900D02*
G03*
X1609800Y1085900I-10000J0D01*
G01*
X1767700Y1104600D02*
G03*
X1767700Y1104600I-10000J0D01*
G01*
X1702300Y600400D02*
G03*
X1702300Y600400I-10000J0D01*
G01*
X1427700Y3054600D02*
G03*
X1427700Y3054600I-10000J0D01*
G01*
X480200Y3439100D02*
G03*
X480200Y3439100I-10000J0D01*
G01*
X936523Y3126756D02*
G03*
X936523Y3126756I-10000J0D01*
G01*
X747500Y3115000D02*
G03*
X747500Y3115000I-10000J0D01*
G01*
D57*
X1250000Y1786250D02*
G03*
X1250000Y1833750I0J23750D01*
G01*
X1535000Y1753500D02*
Y1867300D01*
X1250000D02*
X1321250D01*
X1463750D02*
X1535000D01*
X1250000Y1753500D02*
X1535000D01*
X1321250Y1867300D02*
X1463750D01*
X1250000Y1833750D02*
Y1867500D01*
Y1753500D02*
Y1786250D01*
X154999Y5109999D02*
X1695000Y5109998D01*
X154999Y5109999D02*
X155000Y3570000D01*
X1695000D02*
Y5109999D01*
X155000Y3570000D02*
X1695000Y3570000D01*
X154999Y5109999D02*
Y5619999D01*
X1694999D01*
X1695000Y5109998D01*
D58*
X1546036Y3117500D02*
G03*
X1546036Y3117500I-3535J0D01*
G01*
X163000Y-2000D02*
X1687000D01*
X163000D02*
Y168180D01*
X246820Y252000D02*
X1687000D01*
X163000Y168180D02*
X246820Y252000D01*
X1687000Y-2000D02*
Y252000D01*
X420399Y5275399D02*
Y5376967D01*
X471183Y5427750D01*
X521967Y5376967D01*
Y5275399D01*
Y5351575D01*
X420399D01*
X572750Y5275399D02*
Y5427750D01*
X674317Y5275399D01*
Y5427750D01*
X725101D02*
X826668D01*
X775884D01*
Y5275399D01*
X979019Y5427750D02*
X877452D01*
Y5275399D01*
X979019D01*
X877452Y5351575D02*
X928235D01*
X1029802Y5275399D02*
Y5427750D01*
X1131370Y5275399D01*
Y5427750D01*
X1182153Y5275399D02*
Y5427750D01*
X1283720Y5275399D01*
Y5427750D01*
X1334504Y5275399D02*
Y5376967D01*
X1385287Y5427750D01*
X1436071Y5376967D01*
Y5275399D01*
Y5351575D01*
X1334504D01*
D59*
X1249600Y1607200D02*
X1300400D01*
X1227500Y1448500D02*
Y1476500D01*
X1320000Y1448500D02*
Y1476500D01*
X20000Y4937000D02*
Y4944000D01*
Y4916000D02*
Y4923000D01*
X42500Y5075000D02*
X93300D01*
X20000Y4923000D02*
Y4937000D01*
X115000Y4917000D02*
Y4945000D01*
X628250Y2586500D02*
X790750D01*
X628250Y2273500D02*
X790750D01*
X1365000Y1034000D02*
X1445000D01*
X1365000Y941000D02*
X1445000D01*
X1659000Y1190500D02*
Y1270500D01*
X1566000Y1190500D02*
Y1270500D01*
X1698500Y920000D02*
Y1000000D01*
X1791500Y920000D02*
Y1000000D01*
X1751500Y705000D02*
Y785000D01*
X1658500Y705000D02*
Y785000D01*
X1358500Y2870000D02*
Y2950000D01*
X1451500Y2870000D02*
Y2950000D01*
X411000Y3254500D02*
Y3334500D01*
X504000Y3254500D02*
Y3334500D01*
X941500Y2967500D02*
Y3047500D01*
X848500Y2967500D02*
Y3047500D01*
X821500Y2967500D02*
Y3047500D01*
X728500Y2967500D02*
Y3047500D01*
X32700Y380184D02*
Y330200D01*
X57692D01*
X66022Y338531D01*
Y346861D01*
X57692Y355192D01*
X32700D01*
X57692D01*
X66022Y363523D01*
Y371853D01*
X57692Y380184D01*
X32700D01*
X82684Y330200D02*
Y363523D01*
X99345Y380184D01*
X116006Y363523D01*
Y330200D01*
Y355192D01*
X82684D01*
X132667Y380184D02*
X165990D01*
X149328D01*
Y330200D01*
X182651Y355192D02*
X215973D01*
X199312Y371853D02*
Y338531D01*
X235863Y1042492D02*
Y1009169D01*
X252525Y992508D01*
X269186Y1009169D01*
Y1042492D01*
X285847D02*
Y992508D01*
X310839D01*
X319170Y1000839D01*
Y1009169D01*
X310839Y1017500D01*
X285847D01*
X310839D01*
X319170Y1025831D01*
Y1034162D01*
X310839Y1042492D01*
X285847D01*
X335831Y992508D02*
Y1025831D01*
X352492Y1042492D01*
X369153Y1025831D01*
Y992508D01*
Y1017500D01*
X335831D01*
X385814Y1042492D02*
X419137D01*
X402475D01*
Y992508D01*
X254260Y1302184D02*
X237598D01*
X229268Y1293854D01*
Y1260531D01*
X237598Y1252201D01*
X254260D01*
X262590Y1260531D01*
Y1293854D01*
X254260Y1302184D01*
X279251D02*
Y1260531D01*
X287582Y1252201D01*
X304243D01*
X312574Y1260531D01*
Y1302184D01*
X329235D02*
X362558D01*
X345896D01*
Y1252201D01*
X379219Y1302184D02*
Y1252201D01*
X404211D01*
X412541Y1260531D01*
Y1268862D01*
X404211Y1277193D01*
X379219D01*
X404211D01*
X412541Y1285523D01*
Y1293854D01*
X404211Y1302184D01*
X379219D01*
X254286Y1551184D02*
X237625D01*
X229294Y1542854D01*
Y1509531D01*
X237625Y1501201D01*
X254286D01*
X262616Y1509531D01*
Y1542854D01*
X254286Y1551184D01*
X279278D02*
Y1509531D01*
X287608Y1501201D01*
X304269D01*
X312600Y1509531D01*
Y1551184D01*
X329261D02*
X362584D01*
X345922D01*
Y1501201D01*
X379245D02*
Y1534523D01*
X395906Y1551184D01*
X412567Y1534523D01*
Y1501201D01*
Y1526193D01*
X379245D01*
%TF.MD5,136fd59dd46069144dc79ac76aa9118b*%
M02*
